SplineFontDB: 3.0
FontName: SignikaNegative-Bold
FullName: Signika Negative Bold
FamilyName: Signika Negative
Weight: Bold
Copyright: Copyright (c) 2011 by Anna Giedrys (http://ancymonic.com), with Reserved Font Names "Signika".
Version: 1.001
ItalicAngle: 0
UnderlinePosition: -100
UnderlineWidth: 50
Ascent: 800
Descent: 200
sfntRevision: 0x00010042
LayerCount: 2
Layer: 0 1 "Back"  1
Layer: 1 1 "Fore"  0
XUID: [1021 343 874506396 9056879]
FSType: 0
OS2Version: 2
OS2_WeightWidthSlopeOnly: 0
OS2_UseTypoMetrics: 1
CreationTime: 1323969886
ModificationTime: 1323999500
PfmFamily: 17
TTFWeight: 700
TTFWidth: 5
LineGap: 0
VLineGap: 0
Panose: 2 1 0 3 2 6 0 0 0 4
OS2TypoAscent: 140
OS2TypoAOffset: 1
OS2TypoDescent: -92
OS2TypoDOffset: 1
OS2TypoLinegap: 0
OS2WinAscent: 5
OS2WinAOffset: 1
OS2WinDescent: 4
OS2WinDOffset: 1
HheadAscent: 5
HheadAOffset: 1
HheadDescent: -4
HheadDOffset: 1
OS2SubXSize: 700
OS2SubYSize: 650
OS2SubXOff: 0
OS2SubYOff: 140
OS2SupXSize: 700
OS2SupYSize: 650
OS2SupXOff: 0
OS2SupYOff: 477
OS2StrikeYSize: 50
OS2StrikeYPos: 250
OS2CodePages: 00000093.00000000
OS2UnicodeRanges: a00000ef.40000043.00000000.00000000
Lookup: 258 0 0 "'kern' Horizontal Kerning in Latin lookup 0"  {"'kern' Horizontal Kerning in Latin lookup 0 subtable"  } ['kern' ('DFLT' <'dflt' > 'latn' <'dflt' > ) ]
MarkAttachClasses: 1
DEI: 91125
TtTable: prep
PUSHW_1
 511
SCANCTRL
PUSHB_1
 4
SCANTYPE
EndTTInstrs
ShortTable: maxp 16
  1
  0
  385
  84
  5
  66
  4
  2
  0
  1
  1
  0
  64
  0
  2
  1
EndShort
LangName: 1033 "" "" "" "AnnaGiedrys: Signika Light: 2011" "" "Version 1.001" "" "Signika is a trademark of Anna Giedrys." "Anna Giedrys" "Anna Giedrys" "" "www.ancymonic.com" "www.ancymonic.com" "This Font Software is licensed under the SIL Open Font License, Version 1.1. This license is available with a FAQ at: http://scripts.sil.org/OFL" "http://scripts.sil.org/OFL" 
GaspTable: 1 65535 15 1
Encoding: UnicodeBmp
UnicodeInterp: none
NameList: Adobe Glyph List
DisplaySize: -24

StartChar: exclam
Encoding: 33 33 5
Width: 305
GlyphClass: 2
Flags: W
LayerCount: 2
Fore
SplineSet
92 207 m 1,0,-1
 72 650 l 1,1,2
 130 692 130 692 230 692 c 1,3,-1
 239 681 l 1,4,-1
 205 207 l 1,5,6
 183 200 183 200 148.5 200 c 128,-1,7
 114 200 114 200 92 207 c 1,0,-1
77 119 m 1,8,9
 106 135 106 135 149.5 135 c 128,-1,10
 193 135 193 135 220 119 c 1,11,12
 231 100 231 100 231 62 c 128,-1,13
 231 24 231 24 220 5 c 1,14,15
 195 -11 195 -11 149 -11 c 128,-1,16
 103 -11 103 -11 77 5 c 1,17,18
 66 24 66 24 66 62 c 128,-1,19
 66 100 66 100 77 119 c 1,8,9
EndSplineSet
EndChar

StartChar: quotedbl
Encoding: 34 34 6
Width: 443
GlyphClass: 2
Flags: W
LayerCount: 2
Fore
SplineSet
255 725 m 128,-1,1
 255 742 255 742 262 774 c 1,2,3
 291 791 291 791 328 791 c 128,-1,4
 365 791 365 791 394 774 c 1,5,6
 401 742 401 742 401 725 c 128,-1,7
 401 708 401 708 394 674 c 0,8,9
 373 562 373 562 365 494 c 1,10,11
 352 486 352 486 328 486 c 128,-1,12
 304 486 304 486 291 494 c 1,13,14
 283 562 283 562 269 635 c 128,-1,0
 255 708 255 708 255 725 c 128,-1,1
42 725 m 128,-1,16
 42 742 42 742 49 774 c 1,17,18
 78 791 78 791 115 791 c 128,-1,19
 152 791 152 791 181 774 c 1,20,21
 188 742 188 742 188 725 c 128,-1,22
 188 708 188 708 182 674 c 0,23,24
 160 562 160 562 152 494 c 1,25,26
 139 486 139 486 115 486 c 128,-1,27
 91 486 91 486 78 494 c 1,28,29
 70 562 70 562 56 635 c 128,-1,15
 42 708 42 708 42 725 c 128,-1,16
EndSplineSet
EndChar

StartChar: numbersign
Encoding: 35 35 7
Width: 708
GlyphClass: 2
Flags: W
LayerCount: 2
Fore
SplineSet
461 527 m 1,0,-1
 489 650 l 1,1,2
 513 660 513 660 554.5 660 c 128,-1,3
 596 660 596 660 619 650 c 1,4,-1
 591 527 l 1,5,-1
 684 527 l 1,6,7
 693 501 693 501 693 468 c 128,-1,8
 693 435 693 435 684 409 c 1,9,-1
 565 409 l 1,10,-1
 530 253 l 1,11,-1
 631 253 l 1,12,13
 640 227 640 227 640 193.5 c 128,-1,14
 640 160 640 160 631 135 c 1,15,-1
 503 135 l 1,16,-1
 476 12 l 1,17,18
 452 2 452 2 410 2 c 128,-1,19
 368 2 368 2 346 12 c 1,20,-1
 373 135 l 1,21,-1
 253 135 l 1,22,-1
 226 12 l 1,23,24
 202 2 202 2 160 2 c 128,-1,25
 118 2 118 2 96 12 c 1,26,-1
 123 135 l 1,27,-1
 28 135 l 1,28,29
 19 160 19 160 19 194 c 128,-1,30
 19 228 19 228 28 253 c 1,31,-1
 150 253 l 1,32,-1
 185 409 l 1,33,-1
 80 409 l 1,34,35
 71 435 71 435 71 468 c 128,-1,36
 71 501 71 501 80 527 c 1,37,-1
 211 527 l 1,38,-1
 239 650 l 1,39,40
 263 660 263 660 305 660 c 128,-1,41
 347 660 347 660 369 650 c 1,42,-1
 341 527 l 1,43,-1
 461 527 l 1,0,-1
315 409 m 1,44,-1
 280 253 l 1,45,-1
 400 253 l 1,46,-1
 435 409 l 1,47,-1
 315 409 l 1,44,-1
EndSplineSet
EndChar

StartChar: dollar
Encoding: 36 36 8
Width: 508
GlyphClass: 2
Flags: W
LayerCount: 2
Fore
SplineSet
23 95 m 1,0,1
 24 124 24 124 40.5 158 c 128,-1,2
 57 192 57 192 79 205 c 1,3,4
 183 151 183 151 257 151 c 0,5,6
 287 151 287 151 305.5 162.5 c 128,-1,7
 324 174 324 174 324 195 c 0,8,9
 324 230 324 230 275 247 c 2,10,-1
 180 281 l 1,11,12
 47 332 47 332 47 440 c 0,13,14
 47 505 47 505 89.5 550.5 c 128,-1,15
 132 596 132 596 201 609 c 1,16,-1
 201 690 l 1,17,18
 220 694 220 694 254.5 694 c 128,-1,19
 289 694 289 694 309 690 c 1,20,-1
 309 611 l 1,21,22
 382 603 382 603 466 567 c 1,23,24
 466 535 466 535 452 503.5 c 128,-1,25
 438 472 438 472 415 452 c 1,26,27
 315 492 315 492 258 492 c 0,28,29
 232 492 232 492 216.5 480.5 c 128,-1,30
 201 469 201 469 201 450 c 0,31,32
 201 425 201 425 251 408 c 1,33,-1
 344 372 l 1,34,35
 481 321 481 321 481 201 c 0,36,37
 481 135 481 135 433 90.5 c 128,-1,38
 385 46 385 46 305 35 c 1,39,-1
 305 -41 l 1,40,41
 290 -44 290 -44 250.5 -44 c 128,-1,42
 211 -44 211 -44 197 -41 c 1,43,-1
 197 36 l 1,44,45
 90 50 90 50 23 95 c 1,0,1
EndSplineSet
EndChar

StartChar: percent
Encoding: 37 37 9
Width: 979
GlyphClass: 2
Flags: W
LayerCount: 2
Fore
SplineSet
764 -13 m 0,0,1
 594 -13 594 -13 594 203 c 0,2,3
 594 322 594 322 642 370 c 128,-1,4
 690 418 690 418 764 418 c 128,-1,5
 838 418 838 418 882 373 c 1,6,7
 934 322 934 322 934 202 c 128,-1,8
 934 82 934 82 882 31 c 1,9,10
 839 -13 839 -13 764 -13 c 0,0,1
714 203 m 128,-1,12
 714 143 714 143 724 111 c 128,-1,13
 734 79 734 79 764 79 c 128,-1,14
 794 79 794 79 803.5 110.5 c 128,-1,15
 813 142 813 142 813 203 c 128,-1,16
 813 264 813 264 803.5 295 c 128,-1,17
 794 326 794 326 764 326 c 128,-1,18
 734 326 734 326 724 294.5 c 128,-1,11
 714 263 714 263 714 203 c 128,-1,12
215 696 m 128,-1,20
 289 696 289 696 337 648 c 128,-1,21
 385 600 385 600 385 480 c 128,-1,22
 385 360 385 360 333 310 c 1,23,24
 291 265 291 265 215.5 265 c 128,-1,25
 140 265 140 265 96 310 c 1,26,27
 45 360 45 360 45 480 c 128,-1,28
 45 600 45 600 96 652 c 1,29,19
 141 696 141 696 215 696 c 128,-1,20
166 481 m 128,-1,31
 166 420 166 420 175.5 388.5 c 128,-1,32
 185 357 185 357 215 357 c 128,-1,33
 245 357 245 357 254.5 388.5 c 128,-1,34
 264 420 264 420 264 481 c 128,-1,35
 264 542 264 542 254.5 573 c 128,-1,36
 245 604 245 604 215 604 c 128,-1,37
 185 604 185 604 175.5 573 c 128,-1,30
 166 542 166 542 166 481 c 128,-1,31
228 0 m 1,38,-1
 606 683 l 1,39,40
 636 690 636 690 658 690 c 0,41,42
 728 690 728 690 749 683 c 1,43,-1
 372 0 l 1,44,45
 342 -7 342 -7 320 -7 c 0,46,47
 250 -7 250 -7 228 0 c 1,38,-1
EndSplineSet
EndChar

StartChar: ampersand
Encoding: 38 38 10
Width: 652
GlyphClass: 2
Flags: W
LayerCount: 2
Fore
SplineSet
531 296 m 1,0,-1
 532 235 l 1,1,-1
 532 159 l 2,2,3
 532 79 532 79 539 0 c 1,4,5
 512 -9 512 -9 472 -9 c 128,-1,6
 432 -9 432 -9 402 -2 c 1,7,-1
 392 42 l 1,8,9
 328 -15 328 -15 236 -15 c 128,-1,10
 144 -15 144 -15 92.5 40.5 c 128,-1,11
 41 96 41 96 41 171.5 c 128,-1,12
 41 247 41 247 78 297 c 128,-1,13
 115 347 115 347 169 364 c 1,14,15
 125 381 125 381 98 422 c 128,-1,16
 71 463 71 463 71 516 c 0,17,18
 71 597 71 597 129.5 647.5 c 128,-1,19
 188 698 188 698 293 698 c 128,-1,20
 398 698 398 698 495 665 c 1,21,22
 495 661 495 661 495 646 c 128,-1,23
 495 631 495 631 485 602 c 128,-1,24
 475 573 475 573 457 553 c 1,25,26
 370 580 370 580 320.5 580 c 128,-1,27
 271 580 271 580 249 558.5 c 128,-1,28
 227 537 227 537 227 503 c 0,29,30
 227 422 227 422 330 422 c 2,31,-1
 522 422 l 2,32,33
 581 422 581 422 627 441 c 1,34,35
 646 417 646 417 646 371 c 0,36,37
 646 296 646 296 554 296 c 2,38,-1
 531 296 l 1,0,-1
385 234 m 2,39,40
 385 273 385 273 386 296 c 1,41,-1
 318 296 l 2,42,43
 259 296 259 296 228 269 c 128,-1,44
 197 242 197 242 197 195 c 128,-1,45
 197 148 197 148 219.5 124.5 c 128,-1,46
 242 101 242 101 278 101 c 0,47,48
 339 101 339 101 385 141 c 1,49,-1
 385 234 l 2,39,40
EndSplineSet
EndChar

StartChar: quotesingle
Encoding: 39 39 11
Width: 237
GlyphClass: 2
Flags: W
LayerCount: 2
Fore
SplineSet
41 725 m 128,-1,1
 41 742 41 742 48 774 c 1,2,3
 77 791 77 791 114 791 c 128,-1,4
 151 791 151 791 180 774 c 1,5,6
 187 742 187 742 187 725 c 128,-1,7
 187 708 187 708 180 674 c 0,8,9
 159 562 159 562 151 494 c 1,10,11
 138 486 138 486 114 486 c 128,-1,12
 90 486 90 486 77 494 c 1,13,14
 69 562 69 562 55 635 c 128,-1,0
 41 708 41 708 41 725 c 128,-1,1
EndSplineSet
EndChar

StartChar: parenleft
Encoding: 40 40 12
Width: 369
GlyphClass: 2
Flags: W
LayerCount: 2
Fore
SplineSet
249 553.5 m 128,-1,1
 215 437 215 437 215 322.5 c 128,-1,2
 215 208 215 208 249 91.5 c 128,-1,3
 283 -25 283 -25 350 -118 c 1,4,5
 325 -175 325 -175 264 -196 c 1,6,7
 166 -102 166 -102 112.5 40.5 c 128,-1,8
 59 183 59 183 59 323 c 128,-1,9
 59 463 59 463 112.5 605.5 c 128,-1,10
 166 748 166 748 264 841 c 1,11,12
 325 820 325 820 350 763 c 1,13,0
 283 670 283 670 249 553.5 c 128,-1,1
EndSplineSet
EndChar

StartChar: parenright
Encoding: 41 41 13
Width: 369
GlyphClass: 2
Flags: W
LayerCount: 2
Fore
SplineSet
120 91.5 m 128,-1,1
 154 208 154 208 154 322.5 c 128,-1,2
 154 437 154 437 120 553.5 c 128,-1,3
 86 670 86 670 19 763 c 1,4,5
 44 820 44 820 105 841 c 1,6,7
 203 748 203 748 256.5 605.5 c 128,-1,8
 310 463 310 463 310 323 c 128,-1,9
 310 183 310 183 256.5 40.5 c 128,-1,10
 203 -102 203 -102 105 -196 c 1,11,12
 44 -175 44 -175 19 -118 c 1,13,0
 86 -25 86 -25 120 91.5 c 128,-1,1
EndSplineSet
EndChar

StartChar: asterisk
Encoding: 42 42 14
Width: 518
GlyphClass: 2
Flags: W
LayerCount: 2
Fore
SplineSet
37 525 m 1,0,1
 37 528 37 528 37 540.5 c 128,-1,2
 37 553 37 553 48.5 587.5 c 128,-1,3
 60 622 60 622 75 640 c 1,4,-1
 133 617 l 1,5,6
 166 606 166 606 225 563 c 1,7,8
 203 633 203 633 202 667 c 2,9,-1
 199 730 l 1,10,11
 219 739 219 739 258.5 739 c 128,-1,12
 298 739 298 739 319 730 c 1,13,-1
 316 667 l 2,14,15
 314 636 314 636 293 564 c 1,16,17
 344 599 344 599 384 616 c 1,18,-1
 443 639 l 1,19,20
 457 622 457 622 469.5 585 c 128,-1,21
 482 548 482 548 481 525 c 1,22,-1
 419 508 l 2,23,24
 383 499 383 499 313 499 c 1,25,26
 369 457 369 457 392 428 c 2,27,-1
 432 379 l 1,28,29
 421 360 421 360 389.5 336.5 c 128,-1,30
 358 313 358 313 336 308 c 1,31,-1
 301 361 l 2,32,33
 281 391 281 391 259 458 c 1,34,35
 236 393 236 393 216 362 c 2,36,-1
 182 309 l 1,37,38
 160 313 160 313 128.5 336 c 128,-1,39
 97 359 97 359 85 379 c 1,40,-1
 124 429 l 2,41,42
 146 457 146 457 204 499 c 1,43,44
 135 499 135 499 99 509 c 2,45,-1
 37 525 l 1,0,1
EndSplineSet
EndChar

StartChar: plus
Encoding: 43 43 15
Width: 530
GlyphClass: 2
Flags: W
LayerCount: 2
Fore
SplineSet
202 357 m 1,0,-1
 201 424 l 1,1,-1
 201 514 l 1,2,3
 229 519 229 519 265.5 519 c 128,-1,4
 302 519 302 519 329 514 c 1,5,-1
 329 424 l 1,6,7
 329 424 329 424 328 357 c 1,8,-1
 393 358 l 1,9,-1
 477 358 l 1,10,11
 483 326 483 326 483 297 c 128,-1,12
 483 268 483 268 477 238 c 1,13,-1
 393 238 l 1,14,-1
 328 239 l 1,15,-1
 329 175 l 1,16,-1
 329 84 l 1,17,18
 302 79 302 79 265 79 c 128,-1,19
 228 79 228 79 201 84 c 1,20,-1
 201 175 l 1,21,-1
 202 239 l 1,22,-1
 137 238 l 1,23,-1
 53 238 l 1,24,25
 47 266 47 266 47 298 c 128,-1,26
 47 330 47 330 53 358 c 1,27,-1
 137 358 l 1,28,-1
 202 357 l 1,0,-1
EndSplineSet
EndChar

StartChar: comma
Encoding: 44 44 16
Width: 292
GlyphClass: 2
Flags: W
LayerCount: 2
Fore
SplineSet
221 124 m 1,0,1
 234 92 234 92 234 47 c 0,2,3
 234 -26 234 -26 188.5 -88.5 c 128,-1,4
 143 -151 143 -151 59 -178 c 1,5,6
 41 -169 41 -169 32 -150.5 c 128,-1,7
 23 -132 23 -132 23 -122 c 128,-1,8
 23 -112 23 -112 23 -108 c 1,9,10
 60 -95 60 -95 85.5 -68 c 128,-1,11
 111 -41 111 -41 115 -8 c 1,12,13
 86 -2 86 -2 72 7 c 1,14,15
 61 29 61 29 61 65.5 c 128,-1,16
 61 102 61 102 72 124 c 1,17,18
 104 142 104 142 149.5 142 c 128,-1,19
 195 142 195 142 221 124 c 1,0,1
EndSplineSet
EndChar

StartChar: hyphen
Encoding: 45 45 17
Width: 373
GlyphClass: 2
Flags: W
LayerCount: 2
Fore
SplineSet
325 209 m 1,0,-1
 48 209 l 1,1,2
 42 233 42 233 42 269 c 128,-1,3
 42 305 42 305 48 329 c 1,4,-1
 325 329 l 1,5,6
 331 305 331 305 331 269 c 128,-1,7
 331 233 331 233 325 209 c 1,0,-1
EndSplineSet
EndChar

StartChar: period
Encoding: 46 46 18
Width: 283
GlyphClass: 2
Flags: W
LayerCount: 2
Fore
SplineSet
54 66 m 128,-1,1
 54 102 54 102 66 125 c 1,2,3
 97 143 97 143 142 143 c 128,-1,4
 187 143 187 143 218 125 c 1,5,6
 229 102 229 102 229 66 c 128,-1,7
 229 30 229 30 218 7 c 1,8,9
 191 -10 191 -10 142 -10 c 128,-1,10
 93 -10 93 -10 66 7 c 1,11,0
 54 30 54 30 54 66 c 128,-1,1
EndSplineSet
EndChar

StartChar: slash
Encoding: 47 47 19
Width: 447
GlyphClass: 2
Flags: W
LayerCount: 2
Fore
SplineSet
2 -70 m 1,0,-1
 316 767 l 1,1,2
 392 758 392 758 443 719 c 1,3,-1
 129 -118 l 1,4,5
 51 -109 51 -109 2 -70 c 1,0,-1
EndSplineSet
EndChar

StartChar: zero
Encoding: 48 48 20
Width: 530
GlyphClass: 2
Flags: W
LayerCount: 2
Fore
SplineSet
32 324 m 128,-1,1
 32 420 32 420 46 485.5 c 128,-1,2
 60 551 60 551 103 599 c 1,3,4
 169 663 169 663 265 663 c 0,5,6
 321 663 321 663 358 646.5 c 128,-1,7
 395 630 395 630 427 599 c 1,8,9
 470 551 470 551 484 485.5 c 128,-1,10
 498 420 498 420 498 324 c 128,-1,11
 498 228 498 228 484 162.5 c 128,-1,12
 470 97 470 97 427 49 c 1,13,14
 361 -15 361 -15 265 -15 c 128,-1,15
 169 -15 169 -15 103 49 c 1,16,17
 60 97 60 97 46 162.5 c 128,-1,0
 32 228 32 228 32 324 c 128,-1,1
185 324 m 128,-1,19
 185 182 185 182 203.5 140.5 c 128,-1,20
 222 99 222 99 265 99 c 128,-1,21
 308 99 308 99 324 136 c 0,22,23
 345 183 345 183 345 324.5 c 128,-1,24
 345 466 345 466 326.5 507.5 c 128,-1,25
 308 549 308 549 265 549 c 128,-1,26
 222 549 222 549 203.5 507.5 c 128,-1,18
 185 466 185 466 185 324 c 128,-1,19
EndSplineSet
EndChar

StartChar: one
Encoding: 49 49 21
Width: 530
GlyphClass: 2
Flags: W
LayerCount: 2
Fore
SplineSet
223 121 m 1,0,-1
 222 194 l 1,1,-1
 222 339 l 2,2,3
 222 354 222 354 225 397 c 128,-1,4
 228 440 228 440 229 456 c 1,5,6
 175 395 175 395 95 361 c 1,7,8
 72 371 72 371 54 395 c 128,-1,9
 36 419 36 419 32 447 c 1,10,11
 173 535 173 535 227 648 c 1,12,13
 258 654 258 654 297 654 c 128,-1,14
 336 654 336 654 367 648 c 1,15,-1
 367 194 l 1,16,-1
 366 121 l 1,17,-1
 433 122 l 1,18,-1
 489 122 l 1,19,20
 496 97 496 97 496 62 c 128,-1,21
 496 27 496 27 489 0 c 1,22,-1
 77 0 l 1,23,24
 70 33 70 33 70 61.5 c 128,-1,25
 70 90 70 90 77 122 c 1,26,-1
 160 122 l 1,27,-1
 223 121 l 1,0,-1
EndSplineSet
EndChar

StartChar: two
Encoding: 50 50 22
Width: 530
GlyphClass: 2
Flags: W
LayerCount: 2
Fore
SplineSet
486 126 m 1,0,1
 486 96 486 96 483 70 c 1,2,3
 471 -1 471 -1 392 -1 c 2,4,-1
 91 -1 l 1,5,6
 40 53 40 53 40 90 c 0,7,8
 40 166 40 166 156 269 c 1,9,-1
 263 366 l 2,10,11
 318 416 318 416 318 467 c 0,12,13
 318 499 318 499 298.5 520 c 128,-1,14
 279 541 279 541 245 541 c 128,-1,15
 211 541 211 541 187 515 c 128,-1,16
 163 489 163 489 153 452 c 1,17,18
 124 452 124 452 92 464.5 c 128,-1,19
 60 477 60 477 47 497 c 1,20,21
 67 569 67 569 123.5 616 c 128,-1,22
 180 663 180 663 267.5 663 c 128,-1,23
 355 663 355 663 412.5 608 c 128,-1,24
 470 553 470 553 470 463 c 0,25,26
 470 403 470 403 439 358 c 128,-1,27
 408 313 408 313 349 263 c 2,28,-1
 277 201 l 1,29,30
 207 143 207 143 193 116 c 1,31,32
 270 126 270 126 342 126 c 2,33,-1
 486 126 l 1,0,1
EndSplineSet
EndChar

StartChar: three
Encoding: 51 51 23
Width: 530
GlyphClass: 2
Flags: W
LayerCount: 2
Fore
SplineSet
434 498 m 2,0,-1
 354 416 l 2,1,2
 341 403 341 403 323 390 c 1,3,4
 398 381 398 381 443.5 331.5 c 128,-1,5
 489 282 489 282 489 201 c 0,6,7
 489 101 489 101 419.5 43 c 128,-1,8
 350 -15 350 -15 250 -15 c 0,9,10
 121 -15 121 -15 38 57 c 1,11,12
 49 112 49 112 101 154 c 1,13,14
 163 105 163 105 231 105 c 0,15,16
 279 105 279 105 308 132.5 c 128,-1,17
 337 160 337 160 337 204.5 c 128,-1,18
 337 249 337 249 311 273.5 c 128,-1,19
 285 298 285 298 250.5 298 c 128,-1,20
 216 298 216 298 189 286 c 1,21,22
 171 294 171 294 155.5 316.5 c 128,-1,23
 140 339 140 339 133 365 c 1,24,-1
 231 466 l 1,25,26
 279 514 279 514 299 528 c 1,27,-1
 295 535 l 1,28,29
 254 523 254 523 195 523 c 2,30,-1
 71 523 l 1,31,32
 61 549 61 549 61 584.5 c 128,-1,33
 61 620 61 620 74 648 c 1,34,-1
 433 648 l 1,35,36
 463 593 463 593 463 560.5 c 128,-1,37
 463 528 463 528 434 498 c 2,0,-1
EndSplineSet
EndChar

StartChar: four
Encoding: 52 52 24
Width: 530
GlyphClass: 2
Flags: W
LayerCount: 2
Fore
SplineSet
417 118 m 1,0,-1
 418 48 l 1,1,-1
 418 0 l 1,2,3
 387 -6 387 -6 346 -6 c 128,-1,4
 305 -6 305 -6 274 0 c 1,5,-1
 274 48 l 1,6,-1
 275 118 l 1,7,-1
 204 116 l 1,8,-1
 55 116 l 1,9,10
 23 168 23 168 23 208 c 0,11,12
 23 227 23 227 41 273 c 1,13,-1
 204 656 l 1,14,15
 217 658 217 658 235.5 658 c 128,-1,16
 254 658 254 658 288.5 651 c 128,-1,17
 323 644 323 644 340 625 c 1,18,-1
 266 450 l 1,19,20
 208 305 208 305 162 238 c 1,21,-1
 165 233 l 1,22,23
 201 236 201 236 274 239 c 1,24,-1
 274 300 l 2,25,26
 274 355 274 355 301 386.5 c 128,-1,27
 328 418 328 418 377 418 c 2,28,-1
 411 418 l 1,29,-1
 418 412 l 1,30,-1
 418 310 l 1,31,-1
 417 240 l 1,32,-1
 473 241 l 1,33,-1
 503 241 l 1,34,35
 507 217 507 217 507 184 c 128,-1,36
 507 151 507 151 498 118 c 1,37,-1
 417 118 l 1,0,-1
EndSplineSet
EndChar

StartChar: five
Encoding: 53 53 25
Width: 530
GlyphClass: 2
Flags: W
LayerCount: 2
Fore
SplineSet
450 648 m 1,0,1
 460 618 460 618 460 587 c 0,2,3
 460 524 460 524 396 524 c 2,4,-1
 219 524 l 1,5,-1
 219 495 l 1,6,-1
 215 444 l 1,7,-1
 212 425 l 1,8,9
 242 433 242 433 271 433 c 0,10,11
 370 433 370 433 427 375 c 128,-1,12
 484 317 484 317 484 212.5 c 128,-1,13
 484 108 484 108 411 46.5 c 128,-1,14
 338 -15 338 -15 238 -15 c 0,15,16
 116 -15 116 -15 39 54 c 1,17,18
 44 77 44 77 61.5 106.5 c 128,-1,19
 79 136 79 136 100 151 c 1,20,21
 163 106 163 106 217 106 c 128,-1,22
 271 106 271 106 301 134.5 c 128,-1,23
 331 163 331 163 331 215 c 128,-1,24
 331 267 331 267 301.5 293 c 128,-1,25
 272 319 272 319 226 319 c 128,-1,26
 180 319 180 319 139 287 c 1,27,28
 119 291 119 291 97.5 306 c 128,-1,29
 76 321 76 321 65 338 c 1,30,-1
 82 640 l 1,31,-1
 89 648 l 1,32,-1
 450 648 l 1,0,1
EndSplineSet
EndChar

StartChar: six
Encoding: 54 54 26
Width: 530
GlyphClass: 2
Flags: W
LayerCount: 2
Fore
SplineSet
271 -15 m 0,0,1
 34 -15 34 -15 34 320 c 0,2,3
 34 481 34 481 105.5 572 c 128,-1,4
 177 663 177 663 306 663 c 0,5,6
 399 663 399 663 466 628 c 1,7,8
 462 561 462 561 418 526 c 1,9,10
 371 546 371 546 318 546 c 0,11,12
 197 546 197 546 189 392 c 1,13,14
 244 435 244 435 322 435 c 128,-1,15
 400 435 400 435 448 381.5 c 128,-1,16
 496 328 496 328 496 219 c 128,-1,17
 496 110 496 110 431.5 47.5 c 128,-1,18
 367 -15 367 -15 271 -15 c 0,0,1
189 270 m 2,19,20
 189 96 189 96 273 96 c 0,21,22
 311 96 311 96 330 126 c 128,-1,23
 349 156 349 156 349 207 c 0,24,25
 349 316 349 316 276 316 c 0,26,27
 230 316 230 316 189 281 c 1,28,-1
 189 270 l 2,19,20
EndSplineSet
EndChar

StartChar: seven
Encoding: 55 55 27
Width: 530
GlyphClass: 2
Flags: W
LayerCount: 2
Fore
SplineSet
60 648 m 1,0,-1
 469 648 l 1,1,2
 495 590 495 590 495 560 c 128,-1,3
 495 530 495 530 475 501 c 1,4,-1
 436 448 l 1,5,6
 309 269 309 269 289 45 c 2,7,-1
 285 0 l 1,8,9
 256 -6 256 -6 213 -6 c 128,-1,10
 170 -6 170 -6 134 0 c 1,11,-1
 138 47 l 1,12,13
 159 279 159 279 282 442 c 1,14,-1
 294 459 l 2,15,16
 319 494 319 494 357 530 c 1,17,-1
 352 535 l 1,18,19
 303 523 303 523 212 523 c 2,20,-1
 54 523 l 1,21,22
 46 545 46 545 46 578 c 128,-1,23
 46 611 46 611 60 648 c 1,0,-1
EndSplineSet
EndChar

StartChar: eight
Encoding: 56 56 28
Width: 530
GlyphClass: 2
Flags: W
LayerCount: 2
Fore
SplineSet
28 165 m 0,0,1
 28 267 28 267 138 333 c 1,2,3
 44 391 44 391 44 487 c 0,4,5
 44 562 44 562 107 612.5 c 128,-1,6
 170 663 170 663 267 663 c 128,-1,7
 364 663 364 663 424 614.5 c 128,-1,8
 484 566 484 566 484 490 c 0,9,10
 484 402 484 402 390 350 c 1,11,12
 502 284 502 284 502 172 c 1,13,14
 501 86 501 86 431.5 35.5 c 128,-1,15
 362 -15 362 -15 257.5 -15 c 128,-1,16
 153 -15 153 -15 90.5 33.5 c 128,-1,17
 28 82 28 82 28 165 c 0,0,1
260 277 m 2,18,-1
 235 286 l 1,19,20
 178 240 178 240 178 174 c 0,21,22
 178 136 178 136 202 112.5 c 128,-1,23
 226 89 226 89 265 89 c 128,-1,24
 304 89 304 89 327 113 c 128,-1,25
 350 137 350 137 350 173 c 0,26,27
 350 244 350 244 260 277 c 2,18,-1
190 487 m 0,28,29
 190 430 190 430 278 400 c 1,30,-1
 291 395 l 1,31,32
 341 430 341 430 341 484 c 0,33,34
 341 516 341 516 319.5 536.5 c 128,-1,35
 298 557 298 557 265 557 c 128,-1,36
 232 557 232 557 211 537 c 128,-1,37
 190 517 190 517 190 487 c 0,28,29
EndSplineSet
EndChar

StartChar: nine
Encoding: 57 57 29
Width: 530
GlyphClass: 2
Flags: W
LayerCount: 2
Fore
SplineSet
259 663 m 0,0,1
 496 663 496 663 496 328 c 0,2,3
 496 167 496 167 424.5 76 c 128,-1,4
 353 -15 353 -15 224 -15 c 0,5,6
 131 -15 131 -15 64 20 c 1,7,8
 68 87 68 87 112 122 c 1,9,10
 159 102 159 102 212 102 c 0,11,12
 332 102 332 102 340 255 c 1,13,14
 285 213 285 213 207.5 213 c 128,-1,15
 130 213 130 213 82 266.5 c 128,-1,16
 34 320 34 320 34 429 c 128,-1,17
 34 538 34 538 98.5 600.5 c 128,-1,18
 163 663 163 663 259 663 c 0,0,1
341 378 m 2,19,20
 341 552 341 552 257 552 c 0,21,22
 219 552 219 552 200 522 c 128,-1,23
 181 492 181 492 181 441 c 0,24,25
 181 332 181 332 254 332 c 0,26,27
 300 332 300 332 341 367 c 1,28,-1
 341 378 l 2,19,20
EndSplineSet
EndChar

StartChar: colon
Encoding: 58 58 30
Width: 291
GlyphClass: 2
Flags: W
LayerCount: 2
Fore
SplineSet
58 66 m 128,-1,1
 58 102 58 102 70 125 c 1,2,3
 101 143 101 143 146 143 c 128,-1,4
 191 143 191 143 222 125 c 1,5,6
 233 102 233 102 233 66 c 128,-1,7
 233 30 233 30 222 7 c 1,8,9
 195 -10 195 -10 146 -10 c 128,-1,10
 97 -10 97 -10 70 7 c 1,11,0
 58 30 58 30 58 66 c 128,-1,1
58 378 m 128,-1,13
 58 414 58 414 70 437 c 1,14,15
 101 455 101 455 146 455 c 128,-1,16
 191 455 191 455 222 437 c 1,17,18
 233 414 233 414 233 378 c 128,-1,19
 233 342 233 342 222 319 c 1,20,21
 195 302 195 302 146 302 c 128,-1,22
 97 302 97 302 70 319 c 1,23,12
 58 342 58 342 58 378 c 128,-1,13
EndSplineSet
EndChar

StartChar: semicolon
Encoding: 59 59 31
Width: 295
GlyphClass: 2
Flags: W
LayerCount: 2
Fore
SplineSet
221 124 m 1,0,1
 234 92 234 92 234 47 c 0,2,3
 234 -26 234 -26 188.5 -88.5 c 128,-1,4
 143 -151 143 -151 59 -178 c 1,5,6
 41 -169 41 -169 32 -150.5 c 128,-1,7
 23 -132 23 -132 23 -122 c 128,-1,8
 23 -112 23 -112 23 -108 c 1,9,10
 60 -95 60 -95 85.5 -68 c 128,-1,11
 111 -41 111 -41 115 -8 c 1,12,13
 86 -2 86 -2 72 7 c 1,14,15
 61 29 61 29 61 65.5 c 128,-1,16
 61 102 61 102 72 124 c 1,17,18
 104 142 104 142 149.5 142 c 128,-1,19
 195 142 195 142 221 124 c 1,0,1
60 378 m 128,-1,21
 60 414 60 414 72 437 c 1,22,23
 103 455 103 455 148 455 c 128,-1,24
 193 455 193 455 224 437 c 1,25,26
 235 414 235 414 235 378 c 128,-1,27
 235 342 235 342 224 319 c 1,28,29
 197 302 197 302 148 302 c 128,-1,30
 99 302 99 302 72 319 c 1,31,20
 60 342 60 342 60 378 c 128,-1,21
EndSplineSet
EndChar

StartChar: less
Encoding: 60 60 32
Width: 530
GlyphClass: 2
Flags: W
LayerCount: 2
Fore
SplineSet
52 354 m 1,0,-1
 409 551 l 1,1,2
 437 536 437 536 456 503.5 c 128,-1,3
 475 471 475 471 476 436 c 1,4,-1
 285 338 l 2,5,6
 248 318 248 318 201 302 c 1,7,-1
 201 294 l 1,8,9
 253 277 253 277 285 259 c 1,10,-1
 476 160 l 1,11,12
 473 125 473 125 453.5 91.5 c 128,-1,13
 434 58 434 58 408 44 c 1,14,-1
 52 241 l 1,15,16
 44 270 44 270 44 298.5 c 128,-1,17
 44 327 44 327 52 354 c 1,0,-1
EndSplineSet
EndChar

StartChar: equal
Encoding: 61 61 33
Width: 530
GlyphClass: 2
Flags: W
LayerCount: 2
Fore
SplineSet
477 128 m 1,0,-1
 53 128 l 1,1,2
 47 152 47 152 47 187.5 c 128,-1,3
 47 223 47 223 53 248 c 1,4,-1
 477 248 l 1,5,6
 483 223 483 223 483 187.5 c 128,-1,7
 483 152 483 152 477 128 c 1,0,-1
477 351 m 1,8,-1
 53 351 l 1,9,10
 47 375 47 375 47 411 c 128,-1,11
 47 447 47 447 53 471 c 1,12,-1
 477 471 l 1,13,14
 483 447 483 447 483 411 c 128,-1,15
 483 375 483 375 477 351 c 1,8,-1
EndSplineSet
EndChar

StartChar: greater
Encoding: 62 62 34
Width: 530
GlyphClass: 2
Flags: W
LayerCount: 2
Fore
SplineSet
478 242 m 1,0,-1
 121 46 l 1,1,2
 93 61 93 61 74 93.5 c 128,-1,3
 55 126 55 126 54 161 c 1,4,-1
 245 259 l 2,5,6
 282 279 282 279 329 295 c 1,7,-1
 329 302 l 1,8,9
 282 318 282 318 245 338 c 2,10,-1
 54 436 l 1,11,12
 57 471 57 471 76.5 505 c 128,-1,13
 96 539 96 539 122 553 c 1,14,-1
 478 355 l 1,15,16
 486 326 486 326 486 298 c 128,-1,17
 486 270 486 270 478 242 c 1,0,-1
EndSplineSet
EndChar

StartChar: question
Encoding: 63 63 35
Width: 417
GlyphClass: 2
Flags: W
LayerCount: 2
Fore
SplineSet
3 641 m 1,0,1
 98 698 98 698 200.5 698 c 128,-1,2
 303 698 303 698 356.5 648.5 c 128,-1,3
 410 599 410 599 410 518 c 0,4,5
 410 389 410 389 280 320 c 2,6,-1
 219 288 l 1,7,-1
 209 208 l 1,8,9
 186 200 186 200 153.5 200 c 128,-1,10
 121 200 121 200 97 208 c 1,11,-1
 89 357 l 1,12,-1
 101 372 l 1,13,-1
 155 397 l 2,14,15
 254 442 254 442 254 501 c 0,16,17
 254 533 254 533 233 551.5 c 128,-1,18
 212 570 212 570 167 570 c 128,-1,19
 122 570 122 570 56 535 c 1,20,21
 36 551 36 551 20 582 c 128,-1,22
 4 613 4 613 3 641 c 1,0,1
83 116 m 1,23,24
 109 132 109 132 154.5 132 c 128,-1,25
 200 132 200 132 226 116 c 1,26,27
 237 97 237 97 237 59 c 128,-1,28
 237 21 237 21 226 2 c 1,29,30
 197 -14 197 -14 154.5 -14 c 128,-1,31
 112 -14 112 -14 83 2 c 1,32,33
 72 21 72 21 72 59 c 128,-1,34
 72 97 72 97 83 116 c 1,23,24
EndSplineSet
EndChar

StartChar: at
Encoding: 64 64 36
Width: 975
GlyphClass: 2
Flags: W
LayerCount: 2
Fore
SplineSet
692 411 m 1,0,-1
 691 163 l 2,1,2
 691 110 691 110 723 110 c 0,3,4
 796 110 796 110 796 299 c 0,5,6
 796 427 796 427 716.5 501 c 128,-1,7
 637 575 637 575 499.5 575 c 128,-1,8
 362 575 362 575 275.5 477 c 128,-1,9
 189 379 189 379 189 223.5 c 128,-1,10
 189 68 189 68 263 -10 c 128,-1,11
 337 -88 337 -88 470 -88 c 0,12,13
 569 -88 569 -88 667 -50 c 1,14,15
 704 -90 704 -90 704 -151 c 1,16,17
 590 -201 590 -201 459 -201 c 0,18,19
 268 -201 268 -201 154 -94.5 c 128,-1,20
 40 12 40 12 40 218 c 128,-1,21
 40 424 40 424 171.5 554.5 c 128,-1,22
 303 685 303 685 500 685 c 128,-1,23
 697 685 697 685 820 580.5 c 128,-1,24
 943 476 943 476 943 295 c 0,25,26
 943 152 943 152 877.5 77 c 128,-1,27
 812 2 812 2 724 2 c 128,-1,28
 636 2 636 2 587 61 c 1,29,30
 522 -2 522 -2 447 -2 c 128,-1,31
 372 -2 372 -2 329.5 60.5 c 128,-1,32
 287 123 287 123 287 233.5 c 128,-1,33
 287 344 287 344 343.5 415 c 128,-1,34
 400 486 400 486 501 486 c 0,35,36
 556 486 556 486 608.5 464 c 128,-1,37
 661 442 661 442 692 411 c 1,0,-1
441.5 139 m 128,-1,39
 454 109 454 109 486.5 109 c 128,-1,40
 519 109 519 109 553 146 c 1,41,-1
 553 363 l 1,42,43
 529 382 529 382 501 382 c 0,44,45
 429 382 429 382 429 234 c 0,46,38
 429 169 429 169 441.5 139 c 128,-1,39
EndSplineSet
EndChar

StartChar: A
Encoding: 65 65 37
Width: 634
GlyphClass: 2
Flags: W
LayerCount: 2
Fore
SplineSet
240 146 m 2,0,1
 212 146 212 146 198 147 c 1,2,-1
 154 -1 l 1,3,4
 131 -7 131 -7 87 -7 c 128,-1,5
 43 -7 43 -7 16 4 c 1,6,-1
 10 12 l 1,7,-1
 232 683 l 1,8,9
 268 689 268 689 321 689 c 128,-1,10
 374 689 374 689 408 682 c 1,11,-1
 624 10 l 1,12,13
 591 -9 591 -9 545 -9 c 128,-1,14
 499 -9 499 -9 479 8.5 c 128,-1,15
 459 26 459 26 446 74 c 2,16,-1
 425 147 l 1,17,18
 411 146 411 146 382 146 c 2,19,-1
 240 146 l 2,0,1
233 266 m 1,20,-1
 275 267 l 1,21,-1
 352 267 l 2,22,23
 357 267 357 267 370 266.5 c 128,-1,24
 383 266 383 266 390 266 c 1,25,-1
 314 542 l 1,26,-1
 309 542 l 1,27,28
 300 493 300 493 261 358 c 1,29,-1
 233 266 l 1,20,-1
EndSplineSet
EndChar

StartChar: B
Encoding: 66 66 38
Width: 613
GlyphClass: 2
Flags: W
LayerCount: 2
Fore
SplineSet
85 685 m 1,0,1
 243 689 243 689 312 689 c 0,2,3
 421 689 421 689 482.5 643.5 c 128,-1,4
 544 598 544 598 544 507 c 0,5,6
 544 462 544 462 519.5 424 c 128,-1,7
 495 386 495 386 456 369 c 1,8,9
 506 353 506 353 541 304 c 128,-1,10
 576 255 576 255 576 196 c 0,11,12
 576 96 576 96 511 45 c 128,-1,13
 446 -6 446 -6 328 -6 c 0,14,15
 253 -6 253 -6 85 -2 c 1,16,-1
 78 5 l 1,17,-1
 78 678 l 1,18,-1
 85 685 l 1,0,1
316 304 m 2,19,-1
 228 304 l 1,20,-1
 228 102 l 1,21,22
 262 103 262 103 318.5 103 c 128,-1,23
 375 103 375 103 399 132.5 c 128,-1,24
 423 162 423 162 423 202.5 c 128,-1,25
 423 243 423 243 398 273.5 c 128,-1,26
 373 304 373 304 316 304 c 2,19,-1
228 580 m 1,27,-1
 228 413 l 1,28,-1
 305 413 l 2,29,30
 354 413 354 413 374.5 437.5 c 128,-1,31
 395 462 395 462 395 497 c 0,32,33
 395 579 395 579 305 579 c 0,34,35
 255 579 255 579 228 580 c 1,27,-1
EndSplineSet
EndChar

StartChar: C
Encoding: 67 67 39
Width: 608
GlyphClass: 2
Flags: W
LayerCount: 2
Fore
SplineSet
437 416 m 1,0,1
 437 421 437 421 437 426 c 0,2,3
 437 489 437 489 411.5 533 c 128,-1,4
 386 577 386 577 322 577 c 128,-1,5
 258 577 258 577 228 517 c 128,-1,6
 198 457 198 457 198 343.5 c 128,-1,7
 198 230 198 230 235 174 c 128,-1,8
 272 118 272 118 342.5 118 c 128,-1,9
 413 118 413 118 510 189 c 1,10,11
 533 173 533 173 554.5 144.5 c 128,-1,12
 576 116 576 116 581 91 c 1,13,14
 536 46 536 46 463 15.5 c 128,-1,15
 390 -15 390 -15 320.5 -15 c 128,-1,16
 251 -15 251 -15 203.5 5.5 c 128,-1,17
 156 26 156 26 125.5 59.5 c 128,-1,18
 95 93 95 93 75 140 c 0,19,20
 38 226 38 226 38 339 c 0,21,22
 38 518 38 518 119.5 608 c 128,-1,23
 201 698 201 698 321 698 c 128,-1,24
 441 698 441 698 511.5 639 c 128,-1,25
 582 580 582 580 582 492 c 0,26,27
 582 408 582 408 495 408 c 0,28,29
 467 408 467 408 437 416 c 1,0,1
EndSplineSet
EndChar

StartChar: D
Encoding: 68 68 40
Width: 665
GlyphClass: 2
Flags: W
LayerCount: 2
Fore
SplineSet
602.5 514.5 m 128,-1,1
 626 442 626 442 626 341.5 c 128,-1,2
 626 241 626 241 603 168 c 128,-1,3
 580 95 580 95 514 44 c 0,4,5
 483 19 483 19 431 6.5 c 128,-1,6
 379 -6 379 -6 319 -6 c 128,-1,7
 259 -6 259 -6 85 -2 c 1,8,-1
 78 5 l 1,9,-1
 78 678 l 1,10,-1
 85 685 l 1,11,12
 200 689 200 689 332 689 c 0,13,14
 379 689 379 689 431 676 c 128,-1,15
 483 663 483 663 514 638 c 0,16,0
 579 587 579 587 602.5 514.5 c 128,-1,1
254 114 m 2,17,-1
 332 113 l 1,18,19
 469 113 469 113 469 341 c 128,-1,20
 469 569 469 569 332 569 c 1,21,22
 332 569 332 569 230 570 c 1,23,-1
 230 113 l 1,24,25
 231 114 231 114 254 114 c 2,17,-1
EndSplineSet
EndChar

StartChar: E
Encoding: 69 69 41
Width: 572
GlyphClass: 2
Flags: W
LayerCount: 2
Fore
SplineSet
228 193 m 1,0,-1
 227 124 l 1,1,-1
 227 123 l 1,2,3
 271 125 271 125 300 125 c 2,4,-1
 536 125 l 1,5,6
 536 89 536 89 533 71 c 0,7,8
 519 -3 519 -3 435 -3 c 2,9,-1
 165 -3 l 2,10,11
 124 -3 124 -3 100.5 21 c 128,-1,12
 77 45 77 45 77 87 c 2,13,-1
 77 676 l 1,14,-1
 84 683 l 1,15,-1
 511 683 l 1,16,17
 516 660 516 660 516 625 c 128,-1,18
 516 590 516 590 504 555 c 1,19,-1
 227 555 l 1,20,-1
 228 484 l 1,21,-1
 228 405 l 1,22,23
 254 406 254 406 295 406 c 2,24,-1
 452 406 l 1,25,26
 461 382 461 382 461 344.5 c 128,-1,27
 461 307 461 307 452 281 c 1,28,-1
 228 281 l 1,29,-1
 228 193 l 1,0,-1
EndSplineSet
EndChar

StartChar: F
Encoding: 70 70 42
Width: 533
GlyphClass: 2
Flags: W
LayerCount: 2
Fore
SplineSet
231 0 m 1,0,1
 200 -6 200 -6 154.5 -6 c 128,-1,2
 109 -6 109 -6 78 0 c 1,3,-1
 78 677 l 1,4,-1
 85 683 l 1,5,-1
 508 683 l 1,6,7
 515 659 515 659 515 624 c 0,8,9
 515 553 515 553 433 553 c 2,10,-1
 230 553 l 1,11,12
 231 525 231 525 231 470 c 2,13,-1
 231 403 l 1,14,-1
 448 403 l 1,15,16
 456 379 456 379 456 340.5 c 128,-1,17
 456 302 456 302 448 278 c 1,18,-1
 231 278 l 1,19,-1
 231 0 l 1,0,1
EndSplineSet
EndChar

StartChar: G
Encoding: 71 71 43
Width: 653
GlyphClass: 2
Flags: W
LayerCount: 2
Fore
SplineSet
342 384 m 1,0,-1
 498 385 l 2,1,2
 499 385 499 385 500 385 c 0,3,4
 600 385 600 385 600 289 c 2,5,-1
 600 27 l 1,6,7
 476 -15 476 -15 332 -15 c 128,-1,8
 188 -15 188 -15 113 79 c 128,-1,9
 38 173 38 173 38 337 c 0,10,11
 38 425 38 425 64.5 495.5 c 128,-1,12
 91 566 91 566 136 610 c 0,13,14
 226 698 226 698 356 698 c 128,-1,15
 486 698 486 698 598 626 c 1,16,17
 595 595 595 595 574.5 563.5 c 128,-1,18
 554 532 554 532 529 516 c 1,19,20
 447 571 447 571 364 571 c 0,21,22
 194 571 194 571 194 338.5 c 128,-1,23
 194 106 194 106 364 106 c 0,24,25
 407 106 407 106 456 115 c 1,26,-1
 456 188 l 2,27,28
 456 233 456 233 458 257 c 1,29,-1
 403 257 l 2,30,31
 365 257 365 257 348 271.5 c 128,-1,32
 331 286 331 286 331 321 c 128,-1,33
 331 356 331 356 342 384 c 1,0,-1
EndSplineSet
EndChar

StartChar: H
Encoding: 72 72 44
Width: 685
GlyphClass: 2
Flags: W
LayerCount: 2
Fore
SplineSet
455 415 m 1,0,-1
 454 489 l 1,1,-1
 454 683 l 1,2,3
 484 689 484 689 530.5 689 c 128,-1,4
 577 689 577 689 607 683 c 1,5,-1
 607 0 l 1,6,7
 576 -6 576 -6 530.5 -6 c 128,-1,8
 485 -6 485 -6 454 0 c 1,9,-1
 454 215 l 1,10,-1
 455 289 l 1,11,-1
 404 288 l 1,12,-1
 281 288 l 1,13,-1
 230 289 l 1,14,-1
 231 215 l 1,15,-1
 231 0 l 1,16,17
 201 -6 201 -6 154 -6 c 128,-1,18
 107 -6 107 -6 78 0 c 1,19,-1
 78 683 l 1,20,21
 107 689 107 689 154 689 c 128,-1,22
 201 689 201 689 231 683 c 1,23,-1
 231 489 l 1,24,-1
 230 415 l 1,25,-1
 281 416 l 1,26,-1
 404 416 l 1,27,-1
 455 415 l 1,0,-1
EndSplineSet
EndChar

StartChar: I
Encoding: 73 73 45
Width: 314
GlyphClass: 2
Flags: W
LayerCount: 2
Fore
SplineSet
80 0 m 1,0,-1
 80 683 l 1,1,2
 110 689 110 689 156.5 689 c 128,-1,3
 203 689 203 689 233 683 c 1,4,-1
 233 0 l 1,5,6
 203 -6 203 -6 156.5 -6 c 128,-1,7
 110 -6 110 -6 80 0 c 1,0,-1
EndSplineSet
EndChar

StartChar: J
Encoding: 74 74 46
Width: 468
GlyphClass: 2
Flags: W
LayerCount: 2
Fore
SplineSet
63 147 m 1,0,1
 111 116 111 116 159.5 116 c 128,-1,2
 208 116 208 116 227.5 147 c 128,-1,3
 247 178 247 178 247 245 c 2,4,-1
 247 683 l 1,5,6
 277 689 277 689 323.5 689 c 128,-1,7
 370 689 370 689 400 683 c 1,8,-1
 400 260 l 2,9,10
 400 137 400 137 356 67 c 0,11,12
 307 -10 307 -10 172 -10 c 0,13,14
 79 -10 79 -10 10 34 c 1,15,16
 20 100 20 100 63 147 c 1,0,1
EndSplineSet
EndChar

StartChar: K
Encoding: 75 75 47
Width: 617
GlyphClass: 2
Flags: W
LayerCount: 2
Fore
SplineSet
609 38 m 1,0,1
 578 -8 578 -8 508 -8 c 0,2,3
 468 -8 468 -8 448.5 12 c 128,-1,4
 429 32 429 32 415 79 c 1,5,-1
 375 200 l 2,6,7
 359 249 359 249 337 269.5 c 128,-1,8
 315 290 315 290 278 290 c 0,9,10
 267 290 267 290 231 288 c 1,11,-1
 231 0 l 1,12,13
 201 -6 201 -6 154 -6 c 128,-1,14
 107 -6 107 -6 78 0 c 1,15,-1
 78 683 l 1,16,17
 107 689 107 689 154 689 c 128,-1,18
 201 689 201 689 231 683 c 1,19,-1
 231 416 l 1,20,-1
 260 417 l 2,21,22
 278 417 278 417 286 423.5 c 128,-1,23
 294 430 294 430 305 450 c 2,24,-1
 404 635 l 2,25,26
 419 664 419 664 435.5 676 c 128,-1,27
 452 688 452 688 493.5 688 c 128,-1,28
 535 688 535 688 575 684 c 1,29,-1
 583 673 l 1,30,-1
 458 440 l 2,31,32
 435 396 435 396 404 370 c 1,33,34
 450 360 450 360 474.5 332 c 128,-1,35
 499 304 499 304 516 256 c 1,36,-1
 558 129 l 2,37,38
 559 127 559 127 563 115 c 128,-1,39
 567 103 567 103 568.5 100 c 128,-1,40
 570 97 570 97 573.5 87.5 c 128,-1,41
 577 78 577 78 580 74 c 128,-1,42
 583 70 583 70 587.5 62.5 c 128,-1,43
 592 55 592 55 598 50 c 1,44,45
 598 50 598 50 609 38 c 1,0,1
EndSplineSet
EndChar

StartChar: L
Encoding: 76 76 48
Width: 521
GlyphClass: 2
Flags: W
LayerCount: 2
Fore
SplineSet
323 129 m 2,0,-1
 500 129 l 1,1,2
 500 96 500 96 496 72 c 0,3,4
 484 -3 484 -3 396 -3 c 2,5,-1
 166 -3 l 2,6,7
 125 -3 125 -3 101 21 c 128,-1,8
 77 45 77 45 77 87 c 2,9,-1
 77 683 l 1,10,-1
 84 689 l 1,11,-1
 140 689 l 2,12,13
 230 689 230 689 230 593 c 2,14,-1
 230 126 l 1,15,16
 280 129 280 129 323 129 c 2,0,-1
EndSplineSet
EndChar

StartChar: M
Encoding: 77 77 49
Width: 830
GlyphClass: 2
Flags: W
LayerCount: 2
Fore
SplineSet
57 2 m 1,0,-1
 110 682 l 1,1,2
 148 689 148 689 210.5 689 c 128,-1,3
 273 689 273 689 310 682 c 1,4,-1
 374 428 l 2,5,6
 401 317 401 317 412 249 c 1,7,-1
 418 249 l 1,8,9
 429 317 429 317 456 428 c 2,10,-1
 520 682 l 1,11,12
 558 689 558 689 620 689 c 128,-1,13
 682 689 682 689 719 682 c 1,14,-1
 772 2 l 1,15,16
 744 -6 744 -6 700 -6 c 128,-1,17
 656 -6 656 -6 628 -1 c 1,18,-1
 612 289 l 2,19,20
 604 427 604 427 604 516 c 1,21,-1
 597 516 l 1,22,-1
 493 101 l 1,23,24
 466 96 466 96 415.5 96 c 128,-1,25
 365 96 365 96 336 101 c 1,26,-1
 233 516 l 1,27,-1
 226 516 l 1,28,29
 224 394 224 394 218 289 c 2,30,-1
 202 -1 l 1,31,32
 174 -6 174 -6 130 -6 c 128,-1,33
 86 -6 86 -6 57 2 c 1,0,-1
EndSplineSet
EndChar

StartChar: N
Encoding: 78 78 50
Width: 694
GlyphClass: 2
Flags: W
LayerCount: 2
Fore
SplineSet
609 689 m 1,0,-1
 616 683 l 1,1,-1
 616 3 l 1,2,3
 578 -6 578 -6 526.5 -6 c 128,-1,4
 475 -6 475 -6 435 0 c 1,5,-1
 269 366 l 1,6,7
 227 466 227 466 212 507 c 1,8,-1
 208 506 l 1,9,10
 220 364 220 364 220 215 c 2,11,-1
 220 0 l 1,12,13
 190 -6 190 -6 148.5 -6 c 128,-1,14
 107 -6 107 -6 78 0 c 1,15,-1
 78 680 l 1,16,17
 114 689 114 689 165.5 689 c 128,-1,18
 217 689 217 689 257 683 c 1,19,-1
 419 318 l 1,20,-1
 482 167 l 1,21,-1
 486 168 l 1,22,23
 474 306 474 306 474 457 c 2,24,-1
 474 597 l 2,25,26
 474 647 474 647 494 668 c 128,-1,27
 514 689 514 689 559 689 c 2,28,-1
 609 689 l 1,0,-1
EndSplineSet
EndChar

StartChar: O
Encoding: 79 79 51
Width: 665
GlyphClass: 2
Flags: W
LayerCount: 2
Fore
SplineSet
197 341.5 m 128,-1,1
 197 103 197 103 332.5 103 c 128,-1,2
 468 103 468 103 468 341.5 c 128,-1,3
 468 580 468 580 332.5 580 c 128,-1,0
 197 580 197 580 197 341.5 c 128,-1,1
145 48 m 0,4,5
 38 137 38 137 38 341.5 c 128,-1,6
 38 546 38 546 145 635 c 0,7,8
 222 698 222 698 333 698 c 128,-1,9
 444 698 444 698 521 635 c 0,10,11
 628 546 628 546 628 341.5 c 128,-1,12
 628 137 628 137 521 48 c 0,13,14
 444 -15 444 -15 333 -15 c 128,-1,15
 222 -15 222 -15 145 48 c 0,4,5
EndSplineSet
EndChar

StartChar: P
Encoding: 80 80 52
Width: 586
GlyphClass: 2
Flags: W
LayerCount: 2
Fore
SplineSet
490 629 m 128,-1,1
 556 569 556 569 556 454.5 c 128,-1,2
 556 340 556 340 489.5 279 c 128,-1,3
 423 218 423 218 314 218 c 2,4,-1
 231 218 l 1,5,-1
 231 0 l 1,6,7
 201 -6 201 -6 154 -6 c 128,-1,8
 107 -6 107 -6 78 0 c 1,9,-1
 78 678 l 1,10,-1
 85 685 l 1,11,12
 253 689 253 689 314 689 c 0,13,0
 424 689 424 689 490 629 c 128,-1,1
231 572 m 1,14,-1
 231 333 l 1,15,16
 260 334 260 334 300 334 c 128,-1,17
 340 334 340 334 363.5 354.5 c 128,-1,18
 387 375 387 375 393.5 399 c 128,-1,19
 400 423 400 423 400 461.5 c 128,-1,20
 400 500 400 500 378.5 535.5 c 128,-1,21
 357 571 357 571 308 571 c 128,-1,22
 259 571 259 571 231 572 c 1,14,-1
EndSplineSet
EndChar

StartChar: Q
Encoding: 81 81 53
Width: 669
GlyphClass: 2
Flags: W
LayerCount: 2
Fore
SplineSet
438 -104 m 2,0,-1
 335 -15 l 1,1,-1
 334 -15 l 2,2,3
 222 -15 222 -15 146 47 c 1,4,5
 38 139 38 139 38 342 c 128,-1,6
 38 545 38 545 146 636 c 0,7,8
 220 698 220 698 333.5 698 c 128,-1,9
 447 698 447 698 521 636 c 0,10,11
 629 544 629 544 629 341 c 0,12,13
 629 164 629 164 550 79 c 1,14,15
 521 46 521 46 487 32 c 1,16,-1
 511 15 l 2,17,18
 579 -33 579 -33 637 -33 c 1,19,20
 636 -82 636 -82 608 -112 c 128,-1,21
 580 -142 580 -142 541 -142 c 0,22,23
 481 -142 481 -142 438 -104 c 2,0,-1
333 580 m 128,-1,25
 195 580 195 580 195 341.5 c 128,-1,26
 195 103 195 103 333 103 c 128,-1,27
 471 103 471 103 471 341.5 c 128,-1,24
 471 580 471 580 333 580 c 128,-1,25
EndSplineSet
EndChar

StartChar: R
Encoding: 82 82 54
Width: 613
GlyphClass: 2
Flags: W
LayerCount: 2
Fore
SplineSet
562 473 m 0,0,1
 562 406 562 406 525.5 357 c 128,-1,2
 489 308 489 308 440 290 c 1,3,4
 491 272 491 272 516 199 c 1,5,-1
 548 110 l 2,6,7
 565 62 565 62 597 37 c 1,8,9
 582 17 582 17 554 4 c 128,-1,10
 526 -9 526 -9 491 -9 c 128,-1,11
 456 -9 456 -9 437 11 c 128,-1,12
 418 31 418 31 401 80 c 2,13,-1
 363 189 l 2,14,15
 353 220 353 220 333.5 237 c 128,-1,16
 314 254 314 254 276 254 c 2,17,-1
 229 254 l 1,18,-1
 229 0 l 1,19,20
 199 -6 199 -6 153 -6 c 128,-1,21
 107 -6 107 -6 78 0 c 1,22,-1
 78 678 l 1,23,-1
 85 685 l 1,24,25
 253 689 253 689 321 689 c 0,26,27
 430 689 430 689 496 634.5 c 128,-1,28
 562 580 562 580 562 473 c 0,0,1
229 574 m 1,29,-1
 229 371 l 1,30,31
 295 373 295 373 309 373 c 0,32,33
 406 373 406 373 406 473 c 128,-1,34
 406 573 406 573 309 573 c 0,35,36
 259 573 259 573 229 574 c 1,29,-1
EndSplineSet
EndChar

StartChar: S
Encoding: 83 83 55
Width: 557
GlyphClass: 2
Flags: W
LayerCount: 2
Fore
SplineSet
17 60 m 1,0,1
 20 92 20 92 37 123.5 c 128,-1,2
 54 155 54 155 77 174 c 1,3,4
 186 108 186 108 279 108 c 0,5,6
 322 108 322 108 344.5 128.5 c 128,-1,7
 367 149 367 149 367 178 c 0,8,9
 367 228 367 228 300 258 c 1,10,-1
 182 308 l 1,11,12
 40 370 40 370 40 491 c 0,13,14
 40 582 40 582 109 640 c 128,-1,15
 178 698 178 698 290.5 698 c 128,-1,16
 403 698 403 698 513 641 c 1,17,18
 508 572 508 572 461 526 c 1,19,20
 359 575 359 575 281 575 c 0,21,22
 240 575 240 575 218 555.5 c 128,-1,23
 196 536 196 536 196 511 c 0,24,25
 196 471 196 471 258 444 c 1,26,-1
 378 394 l 2,27,28
 450 363 450 363 489.5 312.5 c 128,-1,29
 529 262 529 262 529 198 c 0,30,31
 529 103 529 103 461.5 44 c 128,-1,32
 394 -15 394 -15 268 -15 c 0,33,34
 206 -15 206 -15 138.5 5 c 128,-1,35
 71 25 71 25 17 60 c 1,0,1
EndSplineSet
EndChar

StartChar: T
Encoding: 84 84 56
Width: 507
GlyphClass: 2
Flags: W
LayerCount: 2
Fore
SplineSet
330 557 m 1,0,-1
 331 483 l 1,1,-1
 331 0 l 1,2,3
 300 -6 300 -6 254.5 -6 c 128,-1,4
 209 -6 209 -6 178 0 c 1,5,-1
 178 483 l 1,6,-1
 179 557 l 1,7,-1
 178 557 l 1,8,-1
 116 556 l 1,9,-1
 10 556 l 1,10,11
 5 585 5 585 5 619.5 c 128,-1,12
 5 654 5 654 10 683 c 1,13,-1
 500 683 l 1,14,15
 508 657 508 657 508 622 c 128,-1,16
 508 587 508 587 489 571.5 c 128,-1,17
 470 556 470 556 428 556 c 2,18,-1
 393 556 l 1,19,-1
 331 557 l 1,20,-1
 330 557 l 1,0,-1
EndSplineSet
EndChar

StartChar: U
Encoding: 85 85 57
Width: 673
GlyphClass: 2
Flags: W
LayerCount: 2
Fore
SplineSet
604 683 m 1,0,-1
 604 251 l 2,1,2
 604 124 604 124 534 54.5 c 128,-1,3
 464 -15 464 -15 336 -15 c 128,-1,4
 208 -15 208 -15 138 54.5 c 128,-1,5
 68 124 68 124 68 251 c 2,6,-1
 68 683 l 1,7,-1
 75 689 l 1,8,-1
 131 689 l 2,9,10
 221 689 221 689 221 593 c 2,11,-1
 221 249 l 2,12,13
 221 177 221 177 248.5 142 c 128,-1,14
 276 107 276 107 336.5 107 c 128,-1,15
 397 107 397 107 424 142 c 128,-1,16
 451 177 451 177 451 249 c 2,17,-1
 451 683 l 1,18,19
 481 689 481 689 528 689 c 128,-1,20
 575 689 575 689 604 683 c 1,0,-1
EndSplineSet
EndChar

StartChar: V
Encoding: 86 86 58
Width: 602
GlyphClass: 2
Flags: W
LayerCount: 2
Fore
SplineSet
314 128 m 1,0,-1
 450 683 l 1,1,2
 476 689 476 689 516.5 689 c 128,-1,3
 557 689 557 689 586 679 c 1,4,-1
 593 670 l 1,5,-1
 404 0 l 1,6,7
 350 -6 350 -6 295 -6 c 128,-1,8
 240 -6 240 -6 215.5 8 c 128,-1,9
 191 22 191 22 179 64 c 2,10,-1
 10 669 l 1,11,12
 64 692 64 692 100 692 c 128,-1,13
 136 692 136 692 155 674 c 128,-1,14
 174 656 174 656 185 616 c 2,15,-1
 265 321 l 2,16,17
 285 251 285 251 304 141 c 0,18,19
 306 128 306 128 314 128 c 1,0,-1
EndSplineSet
EndChar

StartChar: W
Encoding: 87 87 59
Width: 896
GlyphClass: 2
Flags: W
LayerCount: 2
Fore
SplineSet
136 64 m 2,0,-1
 17 674 l 1,1,2
 58 692 58 692 98 692 c 128,-1,3
 138 692 138 692 156.5 674 c 128,-1,4
 175 656 175 656 182 608 c 2,5,-1
 227 338 l 2,6,7
 249 211 249 211 252.5 171.5 c 128,-1,8
 256 132 256 132 257.5 129.5 c 128,-1,9
 259 127 259 127 265 127 c 1,10,-1
 351 670 l 1,11,12
 393 677 393 677 449.5 677 c 128,-1,13
 506 677 506 677 547 670 c 1,14,-1
 626 141 l 2,15,16
 627 131 627 131 629.5 129 c 128,-1,17
 632 127 632 127 637 127 c 1,18,19
 647 219 647 219 667 340 c 1,20,-1
 727 683 l 1,21,22
 755 689 755 689 794 689 c 128,-1,23
 833 689 833 689 868 679 c 1,24,-1
 875 669 l 1,25,-1
 741 1 l 1,26,27
 680 -6 680 -6 625 -6 c 128,-1,28
 570 -6 570 -6 547 8 c 128,-1,29
 524 22 524 22 517 64 c 2,30,-1
 481 287 l 1,31,32
 458 449 458 449 451 521 c 1,33,-1
 443 521 l 1,34,35
 430 411 430 411 409 287 c 2,36,-1
 362 1 l 1,37,38
 297 -6 297 -6 244 -6 c 128,-1,39
 191 -6 191 -6 167.5 7.5 c 128,-1,40
 144 21 144 21 136 64 c 2,0,-1
EndSplineSet
EndChar

StartChar: X
Encoding: 88 88 60
Width: 612
GlyphClass: 2
Flags: W
LayerCount: 2
Fore
SplineSet
434 683 m 1,0,1
 458 689 458 689 500.5 689 c 128,-1,2
 543 689 543 689 578 676 c 1,3,-1
 582 668 l 1,4,-1
 394 358 l 1,5,-1
 602 24 l 1,6,7
 555 -9 555 -9 512.5 -9 c 128,-1,8
 470 -9 470 -9 448 4 c 128,-1,9
 426 17 426 17 405 51 c 2,10,-1
 295 228 l 1,11,-1
 159 0 l 1,12,13
 135 -6 135 -6 94 -6 c 128,-1,14
 53 -6 53 -6 14 7 c 1,15,-1
 10 16 l 1,16,-1
 217 353 l 1,17,-1
 27 659 l 1,18,19
 74 692 74 692 116.5 692 c 128,-1,20
 159 692 159 692 180.5 679 c 128,-1,21
 202 666 202 666 223 633 c 2,22,-1
 316 483 l 1,23,-1
 434 683 l 1,0,1
EndSplineSet
EndChar

StartChar: Y
Encoding: 89 89 61
Width: 537
GlyphClass: 2
Flags: W
LayerCount: 2
Fore
SplineSet
324 505 m 2,0,-1
 395 683 l 1,1,2
 420 689 420 689 460.5 689 c 128,-1,3
 501 689 501 689 532 678 c 1,4,-1
 538 669 l 1,5,-1
 345 211 l 1,6,-1
 345 0 l 1,7,8
 315 -6 315 -6 268 -6 c 128,-1,9
 221 -6 221 -6 192 0 c 1,10,-1
 192 215 l 1,11,-1
 -1 665 l 1,12,13
 46 691 46 691 85 691 c 128,-1,14
 124 691 124 691 142 677 c 128,-1,15
 160 663 160 663 173 630 c 2,16,-1
 225 500 l 2,17,18
 249 438 249 438 270 359 c 1,19,-1
 276 359 l 1,20,21
 292 424 292 424 324 505 c 2,0,-1
EndSplineSet
EndChar

StartChar: Z
Encoding: 90 90 62
Width: 577
GlyphClass: 2
Flags: W
LayerCount: 2
Fore
SplineSet
57 149 m 2,0,-1
 284 465 l 2,1,2
 316 510 316 510 364 564 c 1,3,-1
 361 567 l 1,4,5
 293 558 293 558 207 558 c 2,6,-1
 61 558 l 1,7,8
 55 580 55 580 55 611 c 128,-1,9
 55 642 55 642 66 683 c 1,10,-1
 504 683 l 1,11,12
 525 608 525 608 525 584 c 128,-1,13
 525 560 525 560 508 535 c 2,14,-1
 281 219 l 2,15,16
 249 174 249 174 203 124 c 1,17,-1
 206 121 l 1,18,19
 292 127 292 127 352 127 c 2,20,-1
 415 127 l 2,21,22
 480 127 480 127 528 150 c 1,23,24
 538 118 538 118 538 79.5 c 128,-1,25
 538 41 538 41 511 20.5 c 128,-1,26
 484 0 484 0 438 0 c 2,27,-1
 56 0 l 1,28,29
 39 76 39 76 39 100 c 128,-1,30
 39 124 39 124 57 149 c 2,0,-1
EndSplineSet
EndChar

StartChar: bracketleft
Encoding: 91 91 63
Width: 388
GlyphClass: 2
Flags: W
LayerCount: 2
Fore
SplineSet
350 -153 m 1,0,-1
 107 -162 l 1,1,-1
 98 -154 l 1,2,-1
 98 819 l 1,3,-1
 107 826 l 1,4,-1
 350 818 l 1,5,6
 355 801 355 801 355 770.5 c 128,-1,7
 355 740 355 740 344 716 c 1,8,-1
 244 713 l 1,9,-1
 244 -48 l 1,10,-1
 344 -51 l 1,11,12
 355 -77 355 -77 355 -107.5 c 128,-1,13
 355 -138 355 -138 350 -153 c 1,0,-1
EndSplineSet
EndChar

StartChar: backslash
Encoding: 92 92 64
Width: 447
GlyphClass: 2
Flags: W
LayerCount: 2
Fore
SplineSet
318 -118 m 1,0,-1
 4 719 l 1,1,2
 55 758 55 758 131 767 c 1,3,-1
 445 -70 l 1,4,5
 394 -109 394 -109 318 -118 c 1,0,-1
EndSplineSet
EndChar

StartChar: bracketright
Encoding: 93 93 65
Width: 388
GlyphClass: 2
Flags: W
LayerCount: 2
Fore
SplineSet
281 -162 m 1,0,-1
 38 -153 l 1,1,2
 33 -142 33 -142 33 -109.5 c 128,-1,3
 33 -77 33 -77 44 -51 c 1,4,-1
 144 -48 l 1,5,-1
 144 713 l 1,6,-1
 44 716 l 1,7,8
 33 740 33 740 33 773 c 128,-1,9
 33 806 33 806 38 818 c 1,10,-1
 281 826 l 1,11,-1
 289 819 l 1,12,-1
 289 -154 l 1,13,-1
 281 -162 l 1,0,-1
EndSplineSet
EndChar

StartChar: asciicircum
Encoding: 94 94 66
Width: 530
GlyphClass: 2
Flags: W
LayerCount: 2
Fore
SplineSet
500 306 m 1,0,1
 470 299 470 299 427 299 c 128,-1,2
 384 299 384 299 358 306 c 1,3,-1
 305 433 l 2,4,5
 290 468 290 468 269 537 c 1,6,-1
 261 537 l 1,7,8
 240 468 240 468 225 433 c 2,9,-1
 172 306 l 1,10,11
 146 299 146 299 125 299 c 0,12,13
 60 299 60 299 30 306 c 1,14,-1
 186 648 l 1,15,16
 213 655 213 655 266.5 655 c 128,-1,17
 320 655 320 655 344 648 c 1,18,-1
 500 306 l 1,0,1
EndSplineSet
EndChar

StartChar: underscore
Encoding: 95 95 67
Width: 560
GlyphClass: 2
Flags: W
LayerCount: 2
Fore
SplineSet
561 -174 m 1,0,-1
 -1 -174 l 1,1,2
 -7 -151 -7 -151 -7 -118.5 c 128,-1,3
 -7 -86 -7 -86 -1 -62 c 1,4,-1
 561 -62 l 1,5,6
 567 -92 567 -92 567 -119 c 128,-1,7
 567 -146 567 -146 561 -174 c 1,0,-1
EndSplineSet
EndChar

StartChar: grave
Encoding: 96 96 68
Width: 398
GlyphClass: 2
Flags: W
LayerCount: 2
Fore
SplineSet
145 765 m 1,0,-1
 299 598 l 1,1,2
 292 578 292 578 274 562 c 128,-1,3
 256 546 256 546 237 540 c 1,4,-1
 54 678 l 1,5,6
 63 706 63 706 90 731 c 128,-1,7
 117 756 117 756 145 765 c 1,0,-1
EndSplineSet
EndChar

StartChar: a
Encoding: 97 97 69
Width: 512
GlyphClass: 2
Flags: W
LayerCount: 2
Fore
SplineSet
481 69 m 1,0,1
 477 49 477 49 462.5 26 c 128,-1,2
 448 3 448 3 434 -8 c 1,3,4
 365 -5 365 -5 330 45 c 1,5,6
 266 -15 266 -15 188.5 -15 c 128,-1,7
 111 -15 111 -15 71.5 31 c 128,-1,8
 32 77 32 77 32 136 c 0,9,10
 32 221 32 221 88.5 265 c 128,-1,11
 145 309 145 309 229 309 c 0,12,13
 262 309 262 309 304 306 c 1,14,-1
 304 328 l 2,15,16
 304 394 304 394 236 394 c 0,17,18
 193 394 193 394 87 362 c 1,19,20
 57 397 57 397 51 466 c 1,21,22
 98 486 98 486 162.5 498 c 128,-1,23
 227 510 227 510 277 510 c 0,24,25
 352 510 352 510 402.5 468.5 c 128,-1,26
 453 427 453 427 453 340 c 2,27,-1
 453 136 l 2,28,29
 453 89 453 89 481 69 c 1,0,1
226 96 m 0,30,31
 265 96 265 96 304 129 c 1,32,-1
 304 212 l 1,33,34
 282 213 282 213 244 213 c 0,35,36
 177 213 177 213 177 146 c 0,37,38
 177 125 177 125 190.5 110.5 c 128,-1,39
 204 96 204 96 226 96 c 0,30,31
EndSplineSet
EndChar

StartChar: b
Encoding: 98 98 70
Width: 534
GlyphClass: 2
Flags: W
LayerCount: 2
Fore
SplineSet
456.5 439 m 128,-1,1
 502 370 502 370 502 251.5 c 128,-1,2
 502 133 502 133 435.5 62 c 128,-1,3
 369 -9 369 -9 259 -9 c 128,-1,4
 149 -9 149 -9 62 25 c 1,5,-1
 62 729 l 1,6,-1
 69 736 l 1,7,-1
 125 736 l 2,8,9
 170 736 170 736 189 715.5 c 128,-1,10
 208 695 208 695 208 646 c 2,11,-1
 208 472 l 1,12,13
 263 508 263 508 325 508 c 0,14,0
 411 508 411 508 456.5 439 c 128,-1,1
282 388 m 1,15,16
 240 388 240 388 208 353 c 1,17,-1
 208 103 l 1,18,19
 235 98 235 98 259 98 c 0,20,21
 350 98 350 98 350 254 c 0,22,23
 350 386 350 386 282 388 c 1,15,16
EndSplineSet
EndChar

StartChar: c
Encoding: 99 99 71
Width: 474
GlyphClass: 2
Flags: W
LayerCount: 2
Fore
SplineSet
313 281 m 1,0,1
 313 286 313 286 313 290 c 0,2,3
 313 346 313 346 301.5 374 c 128,-1,4
 290 402 290 402 252.5 402 c 128,-1,5
 215 402 215 402 199.5 365.5 c 128,-1,6
 184 329 184 329 184 249 c 128,-1,7
 184 169 184 169 206.5 135.5 c 128,-1,8
 229 102 229 102 276 102 c 128,-1,9
 323 102 323 102 386 145 c 1,10,11
 404 135 404 135 421 109.5 c 128,-1,12
 438 84 438 84 443 62 c 1,13,14
 409 27 409 27 357 6 c 128,-1,15
 305 -15 305 -15 250 -15 c 0,16,17
 145 -15 145 -15 88.5 56 c 128,-1,18
 32 127 32 127 32 254.5 c 128,-1,19
 32 382 32 382 97 447.5 c 128,-1,20
 162 513 162 513 250.5 513 c 128,-1,21
 339 513 339 513 393 467 c 128,-1,22
 447 421 447 421 447 349 c 0,23,24
 447 313 447 313 427.5 294.5 c 128,-1,25
 408 276 408 276 372.5 276 c 128,-1,26
 337 276 337 276 313 281 c 1,0,1
EndSplineSet
EndChar

StartChar: d
Encoding: 100 100 72
Width: 537
GlyphClass: 2
Flags: W
LayerCount: 2
Fore
SplineSet
78.5 55 m 128,-1,1
 33 125 33 125 33 246.5 c 128,-1,2
 33 368 33 368 90.5 438 c 128,-1,3
 148 508 148 508 233 508 c 0,4,5
 278 508 278 508 328 485 c 1,6,-1
 328 729 l 1,7,-1
 335 736 l 1,8,-1
 393 736 l 2,9,10
 437 736 437 736 455 716 c 128,-1,11
 473 696 473 696 473 646 c 2,12,-1
 473 144 l 2,13,14
 473 90 473 90 501 69 c 1,15,16
 497 49 497 49 483.5 26.5 c 128,-1,17
 470 4 470 4 455 -8 c 1,18,19
 385 -5 385 -5 351 48 c 1,20,21
 293 -15 293 -15 208.5 -15 c 128,-1,0
 124 -15 124 -15 78.5 55 c 128,-1,1
251 105 m 0,22,23
 295 105 295 105 328 148 c 1,24,-1
 328 371 l 1,25,26
 285 397 285 397 258 397 c 0,27,28
 186 397 186 397 186 242 c 0,29,30
 186 173 186 173 204 139 c 128,-1,31
 222 105 222 105 251 105 c 0,22,23
EndSplineSet
EndChar

StartChar: e
Encoding: 101 101 73
Width: 497
GlyphClass: 2
Flags: W
LayerCount: 2
Fore
SplineSet
448 201 m 1,0,-1
 183 201 l 1,1,2
 186 153 186 153 207 126.5 c 128,-1,3
 228 100 228 100 281 100 c 128,-1,4
 334 100 334 100 407 131 c 1,5,6
 438 101 438 101 448 42 c 1,7,8
 367 -15 367 -15 252 -15 c 0,9,10
 190 -15 190 -15 145 6.5 c 128,-1,11
 100 28 100 28 76 66 c 0,12,13
 32 139 32 139 32 253 c 128,-1,14
 32 367 32 367 87 440 c 128,-1,15
 142 513 142 513 246 513 c 128,-1,16
 350 513 350 513 405.5 453.5 c 128,-1,17
 461 394 461 394 461 301 c 0,18,19
 461 249 461 249 448 201 c 1,0,-1
306 381.5 m 128,-1,21
 289 407 289 407 253.5 407 c 128,-1,22
 218 407 218 407 201.5 382 c 128,-1,23
 185 357 185 357 182 304 c 1,24,-1
 323 304 l 1,25,-1
 323 316 l 2,26,20
 323 356 323 356 306 381.5 c 128,-1,21
EndSplineSet
EndChar

StartChar: f
Encoding: 102 102 74
Width: 354
GlyphClass: 2
Flags: W
LayerCount: 2
Fore
SplineSet
90 0 m 1,0,-1
 90 394 l 1,1,-1
 4 393 l 1,2,3
 -2 418 -2 418 -2 446.5 c 128,-1,4
 -2 475 -2 475 4 499 c 1,5,-1
 82 498 l 1,6,7
 77 536 77 536 77 568 c 0,8,9
 77 643 77 643 124.5 691.5 c 128,-1,10
 172 740 172 740 249.5 740 c 128,-1,11
 327 740 327 740 398 713 c 1,12,13
 398 710 398 710 398 697 c 128,-1,14
 398 684 398 684 389.5 656.5 c 128,-1,15
 381 629 381 629 366 614 c 1,16,17
 317 628 317 628 288 628 c 0,18,19
 220 628 220 628 220 557 c 0,20,21
 220 532 220 532 225 497 c 1,22,-1
 357 499 l 1,23,24
 363 475 363 475 363 446.5 c 128,-1,25
 363 418 363 418 357 393 c 1,26,-1
 235 395 l 1,27,-1
 235 0 l 1,28,29
 202 -6 202 -6 162.5 -6 c 128,-1,30
 123 -6 123 -6 90 0 c 1,0,-1
EndSplineSet
EndChar

StartChar: g
Encoding: 103 103 75
Width: 535
GlyphClass: 2
Flags: W
LayerCount: 2
Fore
SplineSet
78.5 60 m 128,-1,1
 33 130 33 130 33 251 c 128,-1,2
 33 372 33 372 90.5 442.5 c 128,-1,3
 148 513 148 513 229.5 513 c 128,-1,4
 311 513 311 513 365 466 c 1,5,6
 399 503 399 503 456 506 c 1,7,8
 471 495 471 495 485 472 c 128,-1,9
 499 449 499 449 502 430 c 1,10,11
 474 409 474 409 474 355 c 2,12,-1
 474 86 l 2,13,14
 474 -84 474 -84 424 -149 c 1,15,16
 367 -221 367 -221 239 -221 c 0,17,18
 142 -221 142 -221 53 -188 c 1,19,20
 53 -161 53 -161 63.5 -129.5 c 128,-1,21
 74 -98 74 -98 90 -80 c 1,22,23
 156 -110 156 -110 225 -110 c 0,24,25
 329 -110 329 -110 329 -3 c 2,26,-1
 329 31 l 1,27,28
 275 -10 275 -10 213 -10 c 0,29,0
 124 -10 124 -10 78.5 60 c 128,-1,1
329 147 m 1,30,-1
 329 366 l 1,31,32
 292 401 292 401 259 401 c 0,33,34
 186 401 186 401 186 247 c 0,35,36
 186 178 186 178 203.5 144 c 128,-1,37
 221 110 221 110 250 110 c 0,38,39
 293 110 293 110 329 147 c 1,30,-1
EndSplineSet
EndChar

StartChar: h
Encoding: 104 104 76
Width: 543
GlyphClass: 2
Flags: W
LayerCount: 2
Fore
SplineSet
484 331 m 2,0,-1
 484 123 l 2,1,2
 484 59 484 59 507 24 c 1,3,4
 468 -8 468 -8 419.5 -8 c 128,-1,5
 371 -8 371 -8 353 15 c 128,-1,6
 335 38 335 38 335 85 c 2,7,-1
 335 303 l 2,8,9
 335 340 335 340 325 356.5 c 128,-1,10
 315 373 315 373 289 373 c 0,11,12
 247 373 247 373 208 335 c 1,13,-1
 208 0 l 1,14,15
 177 -6 177 -6 136.5 -6 c 128,-1,16
 96 -6 96 -6 62 0 c 1,17,-1
 62 729 l 1,18,-1
 69 736 l 1,19,-1
 127 736 l 2,20,21
 171 736 171 736 189.5 715.5 c 128,-1,22
 208 695 208 695 208 646 c 2,23,-1
 208 450 l 1,24,25
 276 507 276 507 344 507 c 128,-1,26
 412 507 412 507 448 459 c 128,-1,27
 484 411 484 411 484 331 c 2,0,-1
EndSplineSet
EndChar

StartChar: j
Encoding: 106 106 78
Width: 301
GlyphClass: 2
Flags: W
LayerCount: 2
Fore
SplineSet
240 387 m 2,0,-1
 240 27 l 2,1,2
 240 -89 240 -89 203.5 -143.5 c 128,-1,3
 167 -198 167 -198 55 -220 c 1,4,5
 39 -207 39 -207 27 -181 c 128,-1,6
 15 -155 15 -155 14 -129 c 1,7,8
 59 -110 59 -110 76 -85 c 128,-1,9
 93 -60 93 -60 93 -7 c 2,10,-1
 93 336 l 2,11,12
 93 393 93 393 46 393 c 2,13,-1
 23 393 l 1,14,15
 17 418 17 418 17 445 c 128,-1,16
 17 472 17 472 23 497 c 1,17,18
 80 502 80 502 116 502 c 2,19,-1
 136 502 l 2,20,21
 185 502 185 502 212.5 471 c 128,-1,22
 240 440 240 440 240 387 c 2,0,-1
58 641 m 128,-1,24
 58 670 58 670 69 697 c 1,25,26
 97 712 97 712 142.5 712 c 128,-1,27
 188 712 188 712 213 697 c 1,28,29
 224 670 224 670 224 641 c 128,-1,30
 224 612 224 612 213 585 c 1,31,32
 188 570 188 570 140 570 c 128,-1,33
 92 570 92 570 69 585 c 1,34,23
 58 612 58 612 58 641 c 128,-1,24
EndSplineSet
EndChar

StartChar: k
Encoding: 107 107 79
Width: 520
GlyphClass: 2
Flags: W
LayerCount: 2
Fore
SplineSet
241 202 m 2,0,-1
 208 201 l 1,1,-1
 208 0 l 1,2,3
 177 -6 177 -6 136 -6 c 128,-1,4
 95 -6 95 -6 62 0 c 1,5,-1
 62 729 l 1,6,-1
 69 736 l 1,7,-1
 127 736 l 2,8,9
 171 736 171 736 189.5 715.5 c 128,-1,10
 208 695 208 695 208 646 c 2,11,-1
 208 324 l 1,12,-1
 226 324 l 2,13,14
 244 324 244 324 254 342 c 2,15,-1
 311 447 l 1,16,17
 338 502 338 502 395 502 c 0,18,19
 424 502 424 502 478 500 c 1,20,-1
 484 492 l 1,21,-1
 403 340 l 2,22,23
 384 305 384 305 353 284 c 1,24,25
 413 262 413 262 438 197 c 1,26,-1
 463 123 l 1,27,28
 479 80 479 80 488.5 64 c 128,-1,29
 498 48 498 48 511 39 c 1,30,31
 471 -8 471 -8 411 -8 c 0,32,33
 379 -8 379 -8 362.5 7 c 128,-1,34
 346 22 346 22 333 60 c 2,35,-1
 303 148 l 1,36,37
 291 180 291 180 277.5 191 c 128,-1,38
 264 202 264 202 241 202 c 2,0,-1
EndSplineSet
EndChar

StartChar: l
Encoding: 108 108 80
Width: 311
GlyphClass: 2
Flags: W
LayerCount: 2
Fore
SplineSet
249 109 m 2,0,-1
 278 109 l 1,1,2
 290 77 290 77 290 47.5 c 128,-1,3
 290 18 290 18 287 5 c 1,4,5
 227 -5 227 -5 172 -5 c 128,-1,6
 117 -5 117 -5 89 27 c 128,-1,7
 61 59 61 59 61 129 c 2,8,-1
 61 729 l 1,9,-1
 68 736 l 1,10,-1
 126 736 l 2,11,12
 170 736 170 736 188.5 715.5 c 128,-1,13
 207 695 207 695 207 646 c 2,14,-1
 207 156 l 2,15,16
 207 109 207 109 249 109 c 2,0,-1
EndSplineSet
EndChar

StartChar: m
Encoding: 109 109 81
Width: 807
GlyphClass: 2
Flags: W
LayerCount: 2
Fore
SplineSet
330 302 m 2,0,1
 330 374 330 374 283 374 c 1,2,3
 249 373 249 373 211 336 c 1,4,-1
 211 0 l 1,5,6
 180 -6 180 -6 137.5 -6 c 128,-1,7
 95 -6 95 -6 62 0 c 1,8,-1
 62 498 l 1,9,-1
 69 505 l 1,10,-1
 125 505 l 2,11,12
 187 505 187 505 205 442 c 1,13,14
 277 507 277 507 343 507 c 0,15,16
 424 507 424 507 460 437 c 1,17,18
 537 507 537 507 608 507 c 128,-1,19
 679 507 679 507 713 463 c 128,-1,20
 747 419 747 419 747 348 c 2,21,-1
 747 123 l 2,22,23
 747 61 747 61 771 24 c 1,24,25
 732 -8 732 -8 683.5 -8 c 128,-1,26
 635 -8 635 -8 616.5 15 c 128,-1,27
 598 38 598 38 598 85 c 2,28,-1
 598 303 l 2,29,30
 598 374 598 374 549 374 c 0,31,32
 518 374 518 374 479 335 c 1,33,-1
 479 0 l 1,34,35
 447 -6 447 -6 405 -6 c 128,-1,36
 363 -6 363 -6 330 0 c 1,37,-1
 330 302 l 2,0,1
EndSplineSet
EndChar

StartChar: n
Encoding: 110 110 82
Width: 547
GlyphClass: 2
Flags: W
LayerCount: 2
Fore
SplineSet
487 331 m 2,0,-1
 487 123 l 2,1,2
 487 59 487 59 511 24 c 1,3,4
 472 -8 472 -8 423.5 -8 c 128,-1,5
 375 -8 375 -8 356.5 15 c 128,-1,6
 338 38 338 38 338 85 c 2,7,-1
 338 303 l 2,8,9
 338 340 338 340 328 357 c 128,-1,10
 318 374 318 374 293 374 c 0,11,12
 250 374 250 374 211 335 c 1,13,-1
 211 0 l 1,14,15
 180 -6 180 -6 137.5 -6 c 128,-1,16
 95 -6 95 -6 62 0 c 1,17,-1
 62 498 l 1,18,-1
 69 505 l 1,19,-1
 125 505 l 2,20,21
 187 505 187 505 204 445 c 1,22,23
 277 507 277 507 346 507 c 128,-1,24
 415 507 415 507 451 459 c 128,-1,25
 487 411 487 411 487 331 c 2,0,-1
EndSplineSet
EndChar

StartChar: o
Encoding: 111 111 83
Width: 522
GlyphClass: 2
Flags: W
LayerCount: 2
Fore
SplineSet
418 455 m 0,0,1
 490 383 490 383 490 249.5 c 128,-1,2
 490 116 490 116 418 44 c 0,3,4
 359 -15 359 -15 261 -15 c 128,-1,5
 163 -15 163 -15 104 44 c 0,6,7
 32 116 32 116 32 249.5 c 128,-1,8
 32 383 32 383 104 455 c 0,9,10
 163 513 163 513 261 513 c 128,-1,11
 359 513 359 513 418 455 c 0,0,1
185 249 m 128,-1,13
 185 176 185 176 200.5 136.5 c 128,-1,14
 216 97 216 97 261 97 c 128,-1,15
 306 97 306 97 321.5 136.5 c 128,-1,16
 337 176 337 176 337 249 c 128,-1,17
 337 322 337 322 321.5 362 c 128,-1,18
 306 402 306 402 261 402 c 128,-1,19
 216 402 216 402 200.5 362 c 128,-1,12
 185 322 185 322 185 249 c 128,-1,13
EndSplineSet
EndChar

StartChar: p
Encoding: 112 112 84
Width: 537
GlyphClass: 2
Flags: W
LayerCount: 2
Fore
SplineSet
457.5 443 m 128,-1,1
 503 373 503 373 503 251.5 c 128,-1,2
 503 130 503 130 446 60 c 128,-1,3
 389 -10 389 -10 304 -10 c 0,4,5
 259 -10 259 -10 209 13 c 1,6,-1
 209 -126 l 2,7,8
 209 -175 209 -175 190 -195.5 c 128,-1,9
 171 -216 171 -216 127 -216 c 2,10,-1
 69 -216 l 1,11,-1
 62 -209 l 1,12,-1
 62 498 l 1,13,-1
 69 505 l 1,14,-1
 109 505 l 2,15,16
 165 505 165 505 192 456 c 1,17,18
 249 513 249 513 330.5 513 c 128,-1,0
 412 513 412 513 457.5 443 c 128,-1,1
286 393 m 0,19,20
 242 393 242 393 209 351 c 1,21,-1
 209 127 l 1,22,23
 249 102 249 102 278 102 c 0,24,25
 351 102 351 102 351 256 c 0,26,27
 351 325 351 325 333 359 c 128,-1,28
 315 393 315 393 286 393 c 0,19,20
EndSplineSet
EndChar

StartChar: q
Encoding: 113 113 85
Width: 537
GlyphClass: 2
Flags: W
LayerCount: 2
Fore
SplineSet
328 -126 m 2,0,-1
 328 29 l 1,1,2
 274 -10 274 -10 213 -10 c 0,3,4
 124 -10 124 -10 78.5 60 c 128,-1,5
 33 130 33 130 33 251 c 128,-1,6
 33 372 33 372 90.5 442.5 c 128,-1,7
 148 513 148 513 229 513 c 128,-1,8
 310 513 310 513 364 466 c 1,9,10
 396 503 396 503 455 506 c 1,11,12
 469 496 469 496 483 473 c 128,-1,13
 497 450 497 450 502 430 c 1,14,15
 474 410 474 410 474 355 c 2,16,-1
 474 -209 l 1,17,-1
 467 -216 l 1,18,-1
 409 -216 l 2,19,20
 365 -216 365 -216 346.5 -195.5 c 128,-1,21
 328 -175 328 -175 328 -126 c 2,0,-1
250 110 m 0,22,23
 294 110 294 110 328 146 c 1,24,-1
 328 367 l 1,25,26
 291 401 291 401 259 401 c 0,27,28
 186 401 186 401 186 247 c 0,29,30
 186 178 186 178 203.5 144 c 128,-1,31
 221 110 221 110 250 110 c 0,22,23
EndSplineSet
EndChar

StartChar: r
Encoding: 114 114 86
Width: 393
GlyphClass: 2
Flags: W
LayerCount: 2
Fore
SplineSet
33 429 m 1,0,1
 37 449 37 449 51 472 c 128,-1,2
 65 495 65 495 79 506 c 1,3,4
 168 497 168 497 201 416 c 1,5,6
 239 505 239 505 327 505 c 0,7,8
 360 505 360 505 392 497 c 1,9,10
 392 468 392 468 382 427.5 c 128,-1,11
 372 387 372 387 355 358 c 1,12,13
 334 365 334 365 305 367 c 1,14,15
 252 367 252 367 219 313 c 1,16,-1
 219 0 l 1,17,18
 189 -6 189 -6 146 -6 c 128,-1,19
 103 -6 103 -6 70 0 c 1,20,-1
 70 326 l 2,21,22
 70 401 70 401 33 429 c 1,0,1
EndSplineSet
EndChar

StartChar: s
Encoding: 115 115 87
Width: 442
GlyphClass: 2
Flags: W
LayerCount: 2
Fore
SplineSet
21 35 m 1,0,1
 22 59 22 59 34.5 89 c 128,-1,2
 47 119 47 119 63 135 c 1,3,4
 141 94 141 94 202 94 c 0,5,6
 232 94 232 94 248.5 104.5 c 128,-1,7
 265 115 265 115 265 132 c 0,8,9
 265 164 265 164 217 181 c 2,10,-1
 162 201 l 2,11,12
 36 247 36 247 36 350 c 0,13,14
 36 425 36 425 88 469 c 128,-1,15
 140 513 140 513 227 513 c 0,16,17
 270 513 270 513 322 501 c 128,-1,18
 374 489 374 489 409 472 c 1,19,20
 410 445 410 445 397.5 413 c 128,-1,21
 385 381 385 381 367 368 c 1,22,23
 285 405 285 405 229 405 c 0,24,25
 207 405 207 405 195 395 c 128,-1,26
 183 385 183 385 183 369 c 0,27,28
 183 344 183 344 225 328 c 2,29,-1
 286 306 l 2,30,31
 419 257 419 257 419 147 c 0,32,33
 419 73 419 73 364 29 c 128,-1,34
 309 -15 309 -15 209 -15 c 128,-1,35
 109 -15 109 -15 21 35 c 1,0,1
EndSplineSet
EndChar

StartChar: t
Encoding: 116 116 88
Width: 371
GlyphClass: 2
Flags: W
LayerCount: 2
Fore
SplineSet
348 499 m 1,0,1
 354 472 354 472 354 446 c 128,-1,2
 354 420 354 420 348 393 c 1,3,-1
 228 395 l 1,4,-1
 228 156 l 2,5,6
 228 109 228 109 272 109 c 2,7,-1
 330 109 l 1,8,9
 342 73 342 73 342 45 c 128,-1,10
 342 17 342 17 338 5 c 1,11,12
 266 -5 266 -5 206 -5 c 0,13,14
 83 -5 83 -5 83 129 c 2,15,-1
 83 394 l 1,16,-1
 5 393 l 1,17,18
 -1 415 -1 415 -1 446 c 128,-1,19
 -1 477 -1 477 5 499 c 1,20,-1
 83 498 l 1,21,-1
 83 559 l 2,22,23
 83 609 83 609 101 629 c 128,-1,24
 119 649 119 649 163 649 c 2,25,-1
 221 649 l 1,26,-1
 228 642 l 1,27,-1
 228 497 l 1,28,-1
 348 499 l 1,0,1
EndSplineSet
EndChar

StartChar: u
Encoding: 117 117 89
Width: 549
GlyphClass: 2
Flags: W
LayerCount: 2
Fore
SplineSet
60 167 m 2,0,-1
 60 376 l 2,1,2
 60 439 60 439 36 474 c 1,3,4
 73 506 73 506 122.5 506 c 128,-1,5
 172 506 172 506 190.5 483 c 128,-1,6
 209 460 209 460 209 414 c 2,7,-1
 209 195 l 2,8,9
 209 158 209 158 219 141.5 c 128,-1,10
 229 125 229 125 254 125 c 0,11,12
 297 125 297 125 335 162 c 1,13,-1
 335 498 l 1,14,15
 366 504 366 504 409 504 c 128,-1,16
 452 504 452 504 485 498 c 1,17,-1
 485 142 l 2,18,19
 485 87 485 87 513 67 c 1,20,21
 509 47 509 47 495 25.5 c 128,-1,22
 481 4 481 4 466 -8 c 1,23,24
 386 -5 386 -5 352 62 c 1,25,26
 276 -9 276 -9 204 -9 c 128,-1,27
 132 -9 132 -9 96 39.5 c 128,-1,28
 60 88 60 88 60 167 c 2,0,-1
EndSplineSet
EndChar

StartChar: v
Encoding: 118 118 90
Width: 476
GlyphClass: 2
Flags: W
LayerCount: 2
Fore
SplineSet
247 114 m 1,0,-1
 339 498 l 1,1,2
 361 503 361 503 399.5 503 c 128,-1,3
 438 503 438 503 470 492 c 1,4,-1
 475 485 l 1,5,6
 377 137 377 137 334 0 c 1,7,8
 284 -6 284 -6 231 -6 c 128,-1,9
 178 -6 178 -6 155 8.5 c 128,-1,10
 132 23 132 23 119 66 c 2,11,-1
 -3 487 l 1,12,13
 46 507 46 507 80.5 507 c 128,-1,14
 115 507 115 507 135.5 491 c 128,-1,15
 156 475 156 475 165 438 c 2,16,-1
 213 247 l 2,17,18
 220 222 220 222 228 176.5 c 128,-1,19
 236 131 236 131 238 122 c 0,20,21
 239 114 239 114 247 114 c 1,0,-1
EndSplineSet
EndChar

StartChar: w
Encoding: 119 119 91
Width: 752
GlyphClass: 2
Flags: W
LayerCount: 2
Fore
SplineSet
105 65 m 2,0,-1
 7 489 l 1,1,2
 50 507 50 507 87 507 c 128,-1,3
 124 507 124 507 139.5 492 c 128,-1,4
 155 477 155 477 161 444 c 2,5,-1
 194 276 l 2,6,7
 214 175 214 175 221 118 c 0,8,9
 222 110 222 110 229 110 c 1,10,-1
 288 493 l 1,11,12
 320 501 320 501 376 501 c 128,-1,13
 432 501 432 501 463 493 c 1,14,-1
 523 118 l 2,15,16
 524 110 524 110 531 110 c 1,17,18
 544 201 544 201 559 276 c 2,19,-1
 605 498 l 1,20,21
 629 504 629 504 672.5 504 c 128,-1,22
 716 504 716 504 741 492 c 1,23,-1
 745 483 l 1,24,-1
 628 0 l 1,25,26
 592 -6 592 -6 532 -6 c 128,-1,27
 472 -6 472 -6 451 7.5 c 128,-1,28
 430 21 430 21 424 63 c 1,29,-1
 405 175 l 2,30,31
 403 191 403 191 398 228 c 0,32,33
 385 314 385 314 378 366 c 1,34,-1
 372 366 l 1,35,36
 365 306 365 306 344 177 c 2,37,-1
 314 0 l 1,38,39
 268 -6 268 -6 213 -6 c 128,-1,40
 158 -6 158 -6 136 8.5 c 128,-1,41
 114 23 114 23 105 65 c 2,0,-1
EndSplineSet
EndChar

StartChar: x
Encoding: 120 120 92
Width: 478
GlyphClass: 2
Flags: W
LayerCount: 2
Fore
SplineSet
325 498 m 1,0,1
 349 504 349 504 384.5 504 c 128,-1,2
 420 504 420 504 457 494 c 1,3,-1
 461 484 l 1,4,-1
 320 266 l 1,5,-1
 478 24 l 1,6,7
 428 -9 428 -9 378 -9 c 128,-1,8
 328 -9 328 -9 299 36 c 2,9,-1
 230 143 l 1,10,-1
 145 0 l 1,11,12
 127 -6 127 -6 82.5 -6 c 128,-1,13
 38 -6 38 -6 8 5 c 1,14,-1
 4 15 l 1,15,-1
 158 254 l 1,16,-1
 15 475 l 1,17,18
 61 508 61 508 116 508 c 0,19,20
 143 508 143 508 159.5 497 c 128,-1,21
 176 486 176 486 192 462 c 2,22,-1
 249 374 l 1,23,-1
 325 498 l 1,0,1
EndSplineSet
EndChar

StartChar: y
Encoding: 121 121 93
Width: 493
GlyphClass: 2
Flags: W
LayerCount: 2
Fore
SplineSet
487 483 m 1,0,-1
 362 14 l 2,1,2
 331 -103 331 -103 278.5 -161 c 128,-1,3
 226 -219 226 -219 120 -219 c 0,4,5
 60 -219 60 -219 2 -199 c 1,6,7
 2 -194 2 -194 2 -180.5 c 128,-1,8
 2 -167 2 -167 9.5 -138 c 128,-1,9
 17 -109 17 -109 32 -93 c 1,10,11
 84 -108 84 -108 120 -108 c 0,12,13
 195 -108 195 -108 221 -21 c 1,14,-1
 225 -7 l 1,15,16
 141 -5 141 -5 125 55 c 2,17,-1
 6 487 l 1,18,19
 50 507 50 507 88.5 507 c 128,-1,20
 127 507 127 507 144 493 c 128,-1,21
 161 479 161 479 170 443 c 2,22,-1
 220 245 l 2,23,24
 228 216 228 216 244 112 c 0,25,26
 245 105 245 105 253 105 c 1,27,-1
 343 498 l 1,28,29
 368 504 368 504 408.5 504 c 128,-1,30
 449 504 449 504 482 493 c 1,31,-1
 487 483 l 1,0,-1
EndSplineSet
EndChar

StartChar: z
Encoding: 122 122 94
Width: 449
GlyphClass: 2
Flags: W
LayerCount: 2
Fore
SplineSet
47 129 m 2,0,-1
 172 296 l 2,1,2
 192 322 192 322 252 390 c 1,3,-1
 249 395 l 1,4,5
 179 387 179 387 124 387 c 2,6,-1
 43 387 l 1,7,8
 38 406 38 406 38 436 c 128,-1,9
 38 466 38 466 46 498 c 1,10,-1
 393 498 l 1,11,12
 412 441 412 441 412 416 c 128,-1,13
 412 391 412 391 398 371 c 2,14,-1
 270 200 l 2,15,16
 227 143 227 143 194 109 c 1,17,-1
 197 105 l 1,18,19
 245 110 245 110 278 110 c 2,20,-1
 315 110 l 2,21,22
 376 110 376 110 410 126 c 1,23,24
 425 88 425 88 425 66 c 0,25,26
 425 0 425 0 344 0 c 2,27,-1
 43 0 l 1,28,29
 26 51 26 51 26 75.5 c 128,-1,30
 26 100 26 100 47 129 c 2,0,-1
EndSplineSet
EndChar

StartChar: braceleft
Encoding: 123 123 95
Width: 391
GlyphClass: 2
Flags: W
LayerCount: 2
Fore
SplineSet
44 375 m 1,0,1
 81 382 81 382 105 413.5 c 128,-1,2
 129 445 129 445 129 485 c 2,3,-1
 129 647 l 2,4,5
 129 722 129 722 172 766.5 c 128,-1,6
 215 811 215 811 287 823 c 2,7,-1
 352 833 l 1,8,9
 367 817 367 817 374.5 791.5 c 128,-1,10
 382 766 382 766 382 754.5 c 128,-1,11
 382 743 382 743 380 737 c 1,12,-1
 321 717 l 2,13,14
 303 711 303 711 290.5 692.5 c 128,-1,15
 278 674 278 674 278 646 c 2,16,-1
 278 487 l 2,17,18
 278 436 278 436 254 392.5 c 128,-1,19
 230 349 230 349 191 331 c 1,20,-1
 191 323 l 1,21,22
 230 306 230 306 254 262.5 c 128,-1,23
 278 219 278 219 278 167 c 2,24,-1
 278 9 l 2,25,26
 278 -19 278 -19 290.5 -37.5 c 128,-1,27
 303 -56 303 -56 321 -62 c 2,28,-1
 380 -82 l 1,29,30
 382 -88 382 -88 382 -99.5 c 128,-1,31
 382 -111 382 -111 374.5 -137 c 128,-1,32
 367 -163 367 -163 352 -179 c 1,33,-1
 287 -168 l 1,34,35
 215 -157 215 -157 172 -112 c 128,-1,36
 129 -67 129 -67 129 8 c 2,37,-1
 129 169 l 2,38,39
 129 209 129 209 105 241 c 128,-1,40
 81 273 81 273 44 280 c 1,41,42
 37 297 37 297 37 327 c 128,-1,43
 37 357 37 357 44 375 c 1,0,1
EndSplineSet
EndChar

StartChar: bar
Encoding: 124 124 96
Width: 268
GlyphClass: 2
Flags: W
LayerCount: 2
Fore
SplineSet
65 -142 m 1,0,-1
 65 773 l 1,1,2
 89 780 89 780 133 780 c 128,-1,3
 177 780 177 780 203 773 c 1,4,-1
 203 -142 l 1,5,6
 177 -148 177 -148 133.5 -148 c 128,-1,7
 90 -148 90 -148 65 -142 c 1,0,-1
EndSplineSet
EndChar

StartChar: braceright
Encoding: 125 125 97
Width: 391
GlyphClass: 2
Flags: W
LayerCount: 2
Fore
SplineSet
347 375 m 1,0,1
 354 357 354 357 354 327 c 128,-1,2
 354 297 354 297 347 280 c 1,3,4
 311 273 311 273 287 241 c 128,-1,5
 263 209 263 209 263 169 c 2,6,-1
 263 8 l 2,7,8
 263 -67 263 -67 219.5 -112 c 128,-1,9
 176 -157 176 -157 104 -168 c 1,10,-1
 40 -179 l 1,11,12
 25 -163 25 -163 17.5 -137 c 128,-1,13
 10 -111 10 -111 10 -99.5 c 128,-1,14
 10 -88 10 -88 12 -82 c 1,15,-1
 71 -62 l 2,16,17
 89 -56 89 -56 101 -37.5 c 128,-1,18
 113 -19 113 -19 113 9 c 2,19,-1
 113 167 l 2,20,21
 113 219 113 219 137.5 262.5 c 128,-1,22
 162 306 162 306 201 323 c 1,23,-1
 201 331 l 1,24,25
 162 349 162 349 137.5 392.5 c 128,-1,26
 113 436 113 436 113 487 c 2,27,-1
 113 646 l 2,28,29
 113 674 113 674 101 692.5 c 128,-1,30
 89 711 89 711 71 717 c 2,31,-1
 12 737 l 1,32,33
 10 743 10 743 10 754.5 c 128,-1,34
 10 766 10 766 17.5 791.5 c 128,-1,35
 25 817 25 817 40 833 c 1,36,-1
 104 823 l 2,37,38
 176 811 176 811 219.5 766 c 128,-1,39
 263 721 263 721 263 647 c 2,40,-1
 263 485 l 2,41,42
 263 445 263 445 286.5 413.5 c 128,-1,43
 310 382 310 382 347 375 c 1,0,1
EndSplineSet
EndChar

StartChar: asciitilde
Encoding: 126 126 98
Width: 626
GlyphClass: 2
Flags: W
LayerCount: 2
Fore
SplineSet
298 381 m 2,0,-1
 381 343 l 2,1,2
 406 332 406 332 431 332 c 128,-1,3
 456 332 456 332 481 360 c 1,4,-1
 505 385 l 1,5,6
 530 383 530 383 556.5 367.5 c 128,-1,7
 583 352 583 352 594 328 c 1,8,-1
 574 296 l 1,9,10
 514 195 514 195 417 195 c 0,11,12
 374 195 374 195 328 216 c 2,13,-1
 245 253 l 1,14,15
 221 265 221 265 195.5 265 c 128,-1,16
 170 265 170 265 145 237 c 2,17,-1
 121 211 l 1,18,19
 95 213 95 213 69 229 c 128,-1,20
 43 245 43 245 32 269 c 1,21,-1
 51 301 l 2,22,23
 112 402 112 402 209 402 c 0,24,25
 251 402 251 402 298 381 c 2,0,-1
EndSplineSet
EndChar

StartChar: exclamdown
Encoding: 161 161 99
Width: 305
GlyphClass: 2
Flags: W
LayerCount: 2
Fore
SplineSet
213 291 m 1,0,-1
 234 -153 l 1,1,2
 176 -194 176 -194 75 -194 c 1,3,-1
 67 -183 l 1,4,-1
 100 291 l 1,5,6
 124 297 124 297 157 297 c 128,-1,7
 190 297 190 297 213 291 c 1,0,-1
229 379 m 1,8,9
 201 363 201 363 156 363 c 128,-1,10
 111 363 111 363 85 379 c 1,11,12
 74 398 74 398 74 436 c 128,-1,13
 74 474 74 474 85 493 c 1,14,15
 114 509 114 509 156.5 509 c 128,-1,16
 199 509 199 509 229 493 c 1,17,18
 239 473 239 473 239 436 c 128,-1,19
 239 399 239 399 229 379 c 1,8,9
EndSplineSet
EndChar

StartChar: cent
Encoding: 162 162 100
Width: 464
GlyphClass: 2
Flags: W
LayerCount: 2
Fore
SplineSet
188 -33 m 1,0,-1
 188 67 l 1,1,2
 102 86 102 86 65 156.5 c 128,-1,3
 28 227 28 227 28 331 c 128,-1,4
 28 435 28 435 73.5 499 c 128,-1,5
 119 563 119 563 191 581 c 1,6,-1
 191 682 l 1,7,8
 208 686 208 686 243.5 686 c 128,-1,9
 279 686 279 686 298 682 c 1,10,-1
 298 584 l 1,11,12
 361 571 361 571 399.5 529 c 128,-1,13
 438 487 438 487 438 433 c 0,14,15
 438 352 438 352 358 352 c 0,16,17
 324 352 324 352 305 358 c 1,18,19
 305 362 305 362 305 365 c 0,20,21
 305 478 305 478 243 478 c 0,22,23
 208 478 208 478 193.5 441 c 128,-1,24
 179 404 179 404 179 324 c 0,25,26
 179 179 179 179 270 179 c 0,27,28
 317 179 317 179 379 222 c 1,29,30
 397 208 397 208 413.5 184.5 c 128,-1,31
 430 161 430 161 434 140 c 1,32,33
 384 84 384 84 295 66 c 1,34,-1
 295 -33 l 1,35,36
 281 -36 281 -36 241 -36 c 128,-1,37
 201 -36 201 -36 188 -33 c 1,0,-1
EndSplineSet
EndChar

StartChar: sterling
Encoding: 163 163 101
Width: 537
GlyphClass: 2
Flags: W
LayerCount: 2
Fore
SplineSet
241 362 m 1,0,-1
 412 363 l 1,1,2
 420 343 420 343 420 310.5 c 128,-1,3
 420 278 420 278 412 256 c 1,4,5
 307 256 307 256 255 257 c 1,6,7
 248 181 248 181 202 118 c 1,8,-1
 205 115 l 1,9,10
 293 122 293 122 378 122 c 2,11,-1
 509 122 l 1,12,13
 509 91 509 91 507 73 c 1,14,15
 493 -2 493 -2 407 -2 c 2,16,-1
 65 -2 l 1,17,18
 48 75 48 75 48 97.5 c 128,-1,19
 48 120 48 120 66 145 c 1,20,-1
 79 165 l 1,21,22
 114 215 114 215 121 256 c 1,23,-1
 49 256 l 1,24,25
 41 278 41 278 41 310.5 c 128,-1,26
 41 343 41 343 49 363 c 1,27,28
 57 363 57 363 75.5 362.5 c 128,-1,29
 94 362 94 362 103 362 c 1,30,31
 68 432 68 432 68 478 c 0,32,33
 68 550 68 550 125 606.5 c 128,-1,34
 182 663 182 663 284 663 c 0,35,36
 348 663 348 663 404 639 c 128,-1,37
 460 615 460 615 496 583 c 1,38,39
 491 553 491 553 469 527.5 c 128,-1,40
 447 502 447 502 419 492 c 1,41,42
 357 541 357 541 295 541 c 0,43,44
 259 541 259 541 236 521 c 128,-1,45
 213 501 213 501 213 469 c 128,-1,46
 213 437 213 437 241 362 c 1,0,-1
EndSplineSet
EndChar

StartChar: currency
Encoding: 164 164 102
Width: 589
GlyphClass: 2
Flags: W
LayerCount: 2
Fore
SplineSet
94 217 m 1,0,1
 64 268 64 268 64 333.5 c 128,-1,2
 64 399 64 399 93 449 c 1,3,-1
 24 526 l 1,4,5
 44 567 44 567 99 602 c 1,6,-1
 180 529 l 1,7,8
 230 554 230 554 292 554 c 128,-1,9
 354 554 354 554 406 529 c 1,10,-1
 489 604 l 1,11,12
 535 577 535 577 565 529 c 1,13,-1
 494 449 l 1,14,15
 523 399 523 399 523 333 c 128,-1,16
 523 267 523 267 492 216 c 1,17,-1
 562 138 l 1,18,19
 536 93 536 93 487 62 c 1,20,-1
 403 136 l 1,21,22
 354 113 354 113 292.5 113 c 128,-1,23
 231 113 231 113 182 136 c 1,24,-1
 99 63 l 1,25,26
 54 90 54 90 24 139 c 1,27,-1
 94 217 l 1,0,1
230.5 414 m 128,-1,29
 210 383 210 383 210 334 c 128,-1,30
 210 285 210 285 230.5 254 c 128,-1,31
 251 223 251 223 293.5 223 c 128,-1,32
 336 223 336 223 356.5 253.5 c 128,-1,33
 377 284 377 284 377 333.5 c 128,-1,34
 377 383 377 383 356.5 414 c 128,-1,35
 336 445 336 445 293.5 445 c 128,-1,28
 251 445 251 445 230.5 414 c 128,-1,29
EndSplineSet
EndChar

StartChar: yen
Encoding: 165 165 103
Width: 544
GlyphClass: 2
Flags: W
LayerCount: 2
Fore
SplineSet
489 152 m 1,0,-1
 343 152 l 1,1,-1
 343 0 l 1,2,3
 313 -6 313 -6 269.5 -6 c 128,-1,4
 226 -6 226 -6 197 0 c 1,5,-1
 197 152 l 1,6,-1
 51 152 l 1,7,8
 44 177 44 177 44 197.5 c 128,-1,9
 44 218 44 218 51 245 c 1,10,-1
 191 245 l 1,11,-1
 161 312 l 1,12,-1
 51 312 l 1,13,14
 44 337 44 337 44 357 c 128,-1,15
 44 377 44 377 51 405 c 1,16,-1
 119 405 l 1,17,-1
 17 632 l 1,18,19
 71 659 71 659 105 659 c 128,-1,20
 139 659 139 659 154 647 c 128,-1,21
 169 635 169 635 179 608 c 2,22,-1
 228 488 l 1,23,24
 250 437 250 437 272 356 c 1,25,-1
 278 356 l 1,26,27
 303 437 303 437 327 491 c 2,28,-1
 395 648 l 1,29,30
 420 655 420 655 454.5 655 c 128,-1,31
 489 655 489 655 525 646 c 1,32,-1
 531 639 l 1,33,-1
 422 405 l 1,34,-1
 489 405 l 1,35,36
 495 381 495 381 495 357.5 c 128,-1,37
 495 334 495 334 489 312 c 1,38,-1
 379 312 l 1,39,-1
 348 245 l 1,40,-1
 489 245 l 1,41,42
 495 222 495 222 495 198 c 128,-1,43
 495 174 495 174 489 152 c 1,0,-1
EndSplineSet
EndChar

StartChar: brokenbar
Encoding: 166 166 104
Width: 262
GlyphClass: 2
Flags: W
LayerCount: 2
Fore
SplineSet
63 -142 m 1,0,-1
 63 245 l 1,1,2
 88 252 88 252 130.5 252 c 128,-1,3
 173 252 173 252 199 245 c 1,4,-1
 199 -142 l 1,5,6
 173 -148 173 -148 130.5 -148 c 128,-1,7
 88 -148 88 -148 63 -142 c 1,0,-1
63 386 m 1,8,-1
 63 773 l 1,9,10
 88 780 88 780 130.5 780 c 128,-1,11
 173 780 173 780 199 773 c 1,12,-1
 199 386 l 1,13,14
 173 380 173 380 130.5 380 c 128,-1,15
 88 380 88 380 63 386 c 1,8,-1
EndSplineSet
EndChar

StartChar: section
Encoding: 167 167 105
Width: 498
GlyphClass: 2
Flags: W
LayerCount: 2
Fore
SplineSet
472 310 m 0,0,1
 472 224 472 224 373 163 c 1,2,3
 439 115 439 115 439 45 c 128,-1,4
 439 -25 439 -25 384 -70.5 c 128,-1,5
 329 -116 329 -116 232 -116 c 128,-1,6
 135 -116 135 -116 62 -74 c 1,7,8
 61 -48 61 -48 73.5 -17.5 c 128,-1,9
 86 13 86 13 104 27 c 1,10,11
 183 -8 183 -8 238 -8 c 0,12,13
 262 -8 262 -8 277 2.5 c 128,-1,14
 292 13 292 13 292 30 c 0,15,16
 292 58 292 58 249 75 c 2,17,-1
 191 99 l 2,18,19
 112 132 112 132 69.5 171 c 128,-1,20
 27 210 27 210 27 273 c 0,21,22
 27 358 27 358 126 419 c 1,23,24
 61 466 61 466 61 536 c 128,-1,25
 61 606 61 606 115 652 c 128,-1,26
 169 698 169 698 255 698 c 128,-1,27
 341 698 341 698 421 661 c 1,28,29
 421 657 421 657 421 644 c 128,-1,30
 421 631 421 631 409.5 602.5 c 128,-1,31
 398 574 398 574 380 560 c 1,32,33
 308 589 308 589 261 589 c 0,34,35
 238 589 238 589 223 578.5 c 128,-1,36
 208 568 208 568 208 551 c 0,37,38
 208 524 208 524 251 508 c 1,39,-1
 308 484 l 2,40,41
 386 452 386 452 429 412.5 c 128,-1,42
 472 373 472 373 472 310 c 0,0,1
234 369 m 1,43,-1
 221 374 l 1,44,45
 170 344 170 344 170 299 c 0,46,47
 170 272 170 272 194 252 c 128,-1,48
 218 232 218 232 266 214 c 1,49,-1
 278 209 l 1,50,51
 330 237 330 237 330 284 c 128,-1,52
 330 331 330 331 234 369 c 1,43,-1
EndSplineSet
EndChar

StartChar: dieresis
Encoding: 168 168 106
Width: 398
GlyphClass: 2
Flags: W
LayerCount: 2
Fore
SplineSet
228 622 m 128,-1,1
 228 649 228 649 236 670 c 1,2,3
 263 686 263 686 299 686 c 128,-1,4
 335 686 335 686 361 670 c 1,5,6
 370 649 370 649 370 621 c 128,-1,7
 370 593 370 593 361 574 c 1,8,9
 335 558 335 558 299 558 c 128,-1,10
 263 558 263 558 236 574 c 1,11,0
 228 595 228 595 228 622 c 128,-1,1
28 622 m 128,-1,13
 28 649 28 649 37 670 c 1,14,15
 63 686 63 686 99 686 c 128,-1,16
 135 686 135 686 162 670 c 1,17,18
 170 649 170 649 170 621.5 c 128,-1,19
 170 594 170 594 162 574 c 1,20,21
 135 558 135 558 99 558 c 128,-1,22
 63 558 63 558 37 574 c 1,23,12
 28 595 28 595 28 622 c 128,-1,13
EndSplineSet
EndChar

StartChar: copyright
Encoding: 169 169 107
Width: 791
GlyphClass: 2
Flags: W
LayerCount: 2
Fore
SplineSet
33 341 m 128,-1,1
 33 495 33 495 137 599.5 c 128,-1,2
 241 704 241 704 395 704 c 128,-1,3
 549 704 549 704 653.5 599.5 c 128,-1,4
 758 495 758 495 758 341 c 128,-1,5
 758 187 758 187 653.5 83 c 128,-1,6
 549 -21 549 -21 395 -21 c 128,-1,7
 241 -21 241 -21 137 83 c 128,-1,0
 33 187 33 187 33 341 c 128,-1,1
145 341 m 128,-1,9
 145 229 145 229 215.5 153 c 128,-1,10
 286 77 286 77 395 77 c 128,-1,11
 504 77 504 77 575 153 c 128,-1,12
 646 229 646 229 646 341 c 128,-1,13
 646 453 646 453 575 529.5 c 128,-1,14
 504 606 504 606 395 606 c 128,-1,15
 286 606 286 606 215.5 529.5 c 128,-1,8
 145 453 145 453 145 341 c 128,-1,9
443 366 m 1,16,17
 443 453 443 453 393 453 c 0,18,19
 339 453 339 453 339 345 c 128,-1,20
 339 237 339 237 416 237 c 0,21,22
 446 237 446 237 500 270 c 1,23,24
 534 246 534 246 540 204 c 1,25,26
 518 180 518 180 476.5 164 c 128,-1,27
 435 148 435 148 397 148 c 0,28,29
 305 148 305 148 264 203.5 c 128,-1,30
 223 259 223 259 223 349.5 c 128,-1,31
 223 440 223 440 275 488 c 128,-1,32
 327 536 327 536 394.5 536 c 128,-1,33
 462 536 462 536 504 502.5 c 128,-1,34
 546 469 546 469 546 420 c 0,35,36
 546 361 546 361 484 361 c 0,37,38
 458 361 458 361 443 366 c 1,16,17
EndSplineSet
EndChar

StartChar: ordfeminine
Encoding: 170 170 108
Width: 453
GlyphClass: 2
Flags: W
LayerCount: 2
Fore
SplineSet
414 344 m 1,0,1
 412 326 412 326 398.5 307 c 128,-1,2
 385 288 385 288 368 279 c 1,3,4
 312 281 312 281 282 321 c 1,5,6
 226 274 226 274 166.5 274 c 128,-1,7
 107 274 107 274 73 310 c 128,-1,8
 39 346 39 346 39 397 c 0,9,10
 39 465 39 465 84 499.5 c 128,-1,11
 129 534 129 534 199 534 c 0,12,13
 225 534 225 534 258 531 c 1,14,-1
 258 556 l 2,15,16
 258 580 258 580 243 592 c 128,-1,17
 228 604 228 604 197 604 c 128,-1,18
 166 604 166 604 89 580 c 1,19,20
 62 610 62 610 59 661 c 1,21,22
 148 698 148 698 242 698 c 0,23,24
 302 698 302 698 344.5 664 c 128,-1,25
 387 630 387 630 387 560 c 2,26,-1
 387 402 l 2,27,28
 387 359 387 359 414 344 c 1,0,1
171 376.5 m 128,-1,30
 183 365 183 365 206 365 c 128,-1,31
 229 365 229 365 259 389 c 1,32,33
 258 395 258 395 258 408 c 2,34,-1
 258 453 l 1,35,36
 224 455 224 455 210 455 c 0,37,38
 159 455 159 455 159 404 c 0,39,29
 159 388 159 388 171 376.5 c 128,-1,30
EndSplineSet
EndChar

StartChar: guillemotleft
Encoding: 171 171 109
Width: 609
GlyphClass: 2
Flags: W
LayerCount: 2
Fore
SplineSet
573 410 m 1,0,-1
 449 258 l 1,1,-1
 577 102 l 1,2,3
 570 79 570 79 544.5 56 c 128,-1,4
 519 33 519 33 495 27 c 1,5,-1
 293 212 l 1,6,7
 286 229 286 229 286 255 c 128,-1,8
 286 281 286 281 293 298 c 1,9,-1
 493 486 l 1,10,11
 517 481 517 481 541.5 457.5 c 128,-1,12
 566 434 566 434 573 410 c 1,0,-1
311 410 m 1,13,-1
 187 258 l 1,14,-1
 315 102 l 1,15,16
 308 79 308 79 282.5 56 c 128,-1,17
 257 33 257 33 233 27 c 1,18,-1
 31 212 l 1,19,20
 24 229 24 229 24 255 c 128,-1,21
 24 281 24 281 31 298 c 1,22,-1
 231 486 l 1,23,24
 255 481 255 481 279.5 457.5 c 128,-1,25
 304 434 304 434 311 410 c 1,13,-1
EndSplineSet
EndChar

StartChar: logicalnot
Encoding: 172 172 110
Width: 530
GlyphClass: 2
Flags: W
LayerCount: 2
Fore
SplineSet
351 245 m 1,0,-1
 286 244 l 1,1,-1
 48 244 l 1,2,3
 42 268 42 268 42 303.5 c 128,-1,4
 42 339 42 339 48 364 c 1,5,-1
 471 364 l 1,6,-1
 478 357 l 1,7,-1
 478 123 l 1,8,9
 453 118 453 118 417 118 c 128,-1,10
 381 118 381 118 350 123 c 1,11,-1
 350 184 l 1,12,-1
 351 245 l 1,0,-1
EndSplineSet
EndChar

StartChar: uni00AD
Encoding: 173 173 111
Width: 373
GlyphClass: 2
Flags: W
LayerCount: 2
Fore
SplineSet
325 209 m 1,0,-1
 48 209 l 1,1,2
 42 233 42 233 42 269 c 128,-1,3
 42 305 42 305 48 329 c 1,4,-1
 325 329 l 1,5,6
 331 305 331 305 331 269 c 128,-1,7
 331 233 331 233 325 209 c 1,0,-1
EndSplineSet
EndChar

StartChar: registered
Encoding: 174 174 112
Width: 600
GlyphClass: 2
Flags: W
LayerCount: 2
Fore
SplineSet
28 471 m 128,-1,1
 28 586 28 586 106.5 665 c 128,-1,2
 185 744 185 744 300 744 c 128,-1,3
 415 744 415 744 493.5 665 c 128,-1,4
 572 586 572 586 572 471 c 128,-1,5
 572 356 572 356 493.5 277.5 c 128,-1,6
 415 199 415 199 300 199 c 128,-1,7
 185 199 185 199 106.5 277.5 c 128,-1,0
 28 356 28 356 28 471 c 128,-1,1
115 471 m 128,-1,9
 115 391 115 391 168 335 c 128,-1,10
 221 279 221 279 300 279 c 128,-1,11
 379 279 379 279 432 335 c 128,-1,12
 485 391 485 391 485 471 c 128,-1,13
 485 551 485 551 432 607.5 c 128,-1,14
 379 664 379 664 300 664 c 128,-1,15
 221 664 221 664 168 607.5 c 128,-1,8
 115 551 115 551 115 471 c 128,-1,9
200 601 m 1,16,-1
 307 604 l 1,17,18
 359 604 359 604 383.5 583 c 128,-1,19
 408 562 408 562 408 532 c 128,-1,20
 408 502 408 502 393.5 485 c 128,-1,21
 379 468 379 468 358 463 c 1,22,23
 376 455 376 455 391 426 c 1,24,-1
 402 403 l 2,25,26
 414 380 414 380 425 374 c 1,27,28
 406 347 406 347 375.5 347 c 128,-1,29
 345 347 345 347 329 377 c 1,30,-1
 308 420 l 1,31,32
 298 438 298 438 280 438 c 2,33,-1
 272 438 l 1,34,-1
 272 352 l 1,35,36
 258 348 258 348 234 348 c 128,-1,37
 210 348 210 348 197 352 c 1,38,-1
 197 599 l 1,39,-1
 200 601 l 1,16,-1
272 495 m 1,40,-1
 296 496 l 1,41,42
 328 496 328 496 328 521.5 c 128,-1,43
 328 547 328 547 299 547 c 2,44,-1
 272 547 l 1,45,-1
 272 495 l 1,40,-1
EndSplineSet
EndChar

StartChar: macron
Encoding: 175 175 113
Width: 398
GlyphClass: 2
Flags: W
LayerCount: 2
Fore
SplineSet
351 572 m 1,0,-1
 48 572 l 1,1,2
 40 597 40 597 40 625 c 128,-1,3
 40 653 40 653 48 680 c 1,4,-1
 351 680 l 1,5,6
 358 652 358 652 358 625.5 c 128,-1,7
 358 599 358 599 351 572 c 1,0,-1
EndSplineSet
EndChar

StartChar: degree
Encoding: 176 176 114
Width: 347
GlyphClass: 2
Flags: W
LayerCount: 2
Fore
SplineSet
15 515 m 128,-1,1
 15 585 15 585 60 629.5 c 128,-1,2
 105 674 105 674 174 674 c 128,-1,3
 243 674 243 674 287.5 629.5 c 128,-1,4
 332 585 332 585 332 515 c 128,-1,5
 332 445 332 445 287.5 400.5 c 128,-1,6
 243 356 243 356 174 356 c 128,-1,7
 105 356 105 356 60 400.5 c 128,-1,0
 15 445 15 445 15 515 c 128,-1,1
119 515 m 128,-1,9
 119 485 119 485 134 467 c 128,-1,10
 149 449 149 449 173.5 449 c 128,-1,11
 198 449 198 449 213 467 c 128,-1,12
 228 485 228 485 228 515 c 128,-1,13
 228 545 228 545 213 563 c 128,-1,14
 198 581 198 581 173.5 581 c 128,-1,15
 149 581 149 581 134 563 c 128,-1,8
 119 545 119 545 119 515 c 128,-1,9
EndSplineSet
EndChar

StartChar: plusminus
Encoding: 177 177 115
Width: 530
GlyphClass: 2
Flags: W
LayerCount: 2
Fore
SplineSet
204 415 m 1,0,-1
 203 484 l 1,1,-1
 203 550 l 1,2,3
 228 556 228 556 265.5 556 c 128,-1,4
 303 556 303 556 328 550 c 1,5,-1
 328 484 l 1,6,7
 328 484 328 484 327 415 c 1,8,-1
 390 416 l 1,9,-1
 466 416 l 1,10,11
 472 391 472 391 472 362.5 c 128,-1,12
 472 334 472 334 466 308 c 1,13,-1
 390 308 l 1,14,-1
 327 309 l 1,15,-1
 328 242 l 1,16,-1
 328 175 l 1,17,18
 302 170 302 170 265.5 170 c 128,-1,19
 229 170 229 170 203 175 c 1,20,-1
 203 242 l 1,21,-1
 204 309 l 1,22,-1
 140 308 l 1,23,-1
 64 308 l 1,24,25
 58 334 58 334 58 362.5 c 128,-1,26
 58 391 58 391 64 416 c 1,27,-1
 140 416 l 1,28,-1
 204 415 l 1,0,-1
466 0 m 1,29,-1
 64 0 l 1,30,31
 58 25 58 25 58 56 c 128,-1,32
 58 87 58 87 64 112 c 1,33,-1
 466 112 l 1,34,35
 472 87 472 87 472 56 c 128,-1,36
 472 25 472 25 466 0 c 1,29,-1
EndSplineSet
EndChar

StartChar: twosuperior
Encoding: 178 178 116
Width: 420
GlyphClass: 2
Flags: W
LayerCount: 2
Fore
SplineSet
367 429 m 1,0,1
 367 391 367 391 365 378 c 0,2,3
 354 320 354 320 292 320 c 2,4,-1
 80 320 l 1,5,6
 41 371 41 371 41 395 c 0,7,8
 41 446 41 446 108 502 c 2,9,-1
 196 575 l 2,10,11
 225 600 225 600 225 628 c 0,12,13
 225 644 225 644 214 655 c 128,-1,14
 203 666 203 666 186 666 c 128,-1,15
 169 666 169 666 156.5 652 c 128,-1,16
 144 638 144 638 139 618 c 1,17,18
 116 619 116 619 85.5 631 c 128,-1,19
 55 643 55 643 45 658 c 1,20,21
 56 709 56 709 98 743 c 128,-1,22
 140 777 140 777 204.5 777 c 128,-1,23
 269 777 269 777 312 737.5 c 128,-1,24
 355 698 355 698 355 637 c 0,25,26
 355 554 355 554 274 493 c 1,27,-1
 217 451 l 2,28,29
 210 446 210 446 194 435 c 128,-1,30
 178 424 178 424 171 418 c 1,31,32
 231 429 231 429 276 429 c 2,33,-1
 367 429 l 1,0,1
EndSplineSet
EndChar

StartChar: threesuperior
Encoding: 179 179 117
Width: 420
GlyphClass: 2
Flags: W
LayerCount: 2
Fore
SplineSet
319 645 m 2,0,-1
 272 606 l 2,1,2
 259 595 259 595 247 589 c 1,3,4
 297 584 297 584 329 549 c 128,-1,5
 361 514 361 514 361 463 c 0,6,7
 361 395 361 395 312 356 c 128,-1,8
 263 317 263 317 193 317 c 0,9,10
 98 317 98 317 40 365 c 1,11,12
 48 412 48 412 89 446 c 1,13,14
 135 415 135 415 167.5 415 c 128,-1,15
 200 415 200 415 216 429 c 128,-1,16
 232 443 232 443 232 466 c 128,-1,17
 232 489 232 489 218.5 503.5 c 128,-1,18
 205 518 205 518 179 518 c 0,19,20
 175 518 175 518 150 513 c 1,21,22
 135 518 135 518 119.5 538.5 c 128,-1,23
 104 559 104 559 100 577 c 1,24,-1
 167 636 l 2,25,26
 176 644 176 644 213 670 c 1,27,-1
 210 674 l 1,28,29
 182 668 182 668 130 668 c 2,30,-1
 63 668 l 1,31,32
 56 689 56 689 56 719 c 128,-1,33
 56 749 56 749 66 770 c 1,34,-1
 320 770 l 1,35,36
 346 725 346 725 346 696.5 c 128,-1,37
 346 668 346 668 319 645 c 2,0,-1
EndSplineSet
EndChar

StartChar: acute
Encoding: 180 180 118
Width: 398
GlyphClass: 2
Flags: W
LayerCount: 2
Fore
SplineSet
106 598 m 1,0,-1
 260 765 l 1,1,2
 288 756 288 756 315.5 731 c 128,-1,3
 343 706 343 706 351 678 c 1,4,-1
 168 540 l 1,5,6
 149 546 149 546 131.5 562 c 128,-1,7
 114 578 114 578 106 598 c 1,0,-1
EndSplineSet
EndChar

StartChar: paragraph
Encoding: 182 182 119
Width: 740
GlyphClass: 2
Flags: W
LayerCount: 2
Fore
SplineSet
277 63 m 2,0,-1
 277 238 l 1,1,-1
 264 238 l 2,2,3
 160 238 160 238 94 296 c 128,-1,4
 28 354 28 354 28 467 c 128,-1,5
 28 580 28 580 94.5 634.5 c 128,-1,6
 161 689 161 689 273 689 c 0,7,8
 282 689 282 689 420 684 c 1,9,-1
 427 677 l 1,10,-1
 427 93 l 2,11,12
 427 26 427 26 416.5 -18 c 128,-1,13
 406 -62 406 -62 376 -96 c 0,14,15
 320 -159 320 -159 201 -159 c 0,16,17
 123 -159 123 -159 56 -134 c 1,18,19
 56 -110 56 -110 64.5 -78 c 128,-1,20
 73 -46 73 -46 88 -26 c 1,21,22
 143 -47 143 -47 188 -47 c 128,-1,23
 233 -47 233 -47 255 -23 c 128,-1,24
 277 1 277 1 277 63 c 2,0,-1
488 -131 m 1,25,-1
 488 676 l 1,26,-1
 495 683 l 1,27,-1
 720 683 l 1,28,29
 727 662 727 662 727 619 c 128,-1,30
 727 576 727 576 720 555 c 1,31,-1
 691 555 l 2,32,33
 673 555 673 555 639 557 c 1,34,-1
 639 -131 l 1,35,36
 609 -137 609 -137 563 -137 c 128,-1,37
 517 -137 517 -137 488 -131 c 1,25,-1
EndSplineSet
EndChar

StartChar: periodcentered
Encoding: 183 183 120
Width: 326
GlyphClass: 2
Flags: W
LayerCount: 2
Fore
SplineSet
81 286 m 128,-1,1
 81 322 81 322 92 345 c 1,2,3
 121 363 121 363 163.5 363 c 128,-1,4
 206 363 206 363 235 345 c 1,5,6
 245 321 245 321 245 286 c 128,-1,7
 245 251 245 251 235 227 c 1,8,9
 210 210 210 210 164 210 c 128,-1,10
 118 210 118 210 92 227 c 1,11,0
 81 250 81 250 81 286 c 128,-1,1
EndSplineSet
EndChar

StartChar: cedilla
Encoding: 184 184 121
Width: 398
GlyphClass: 2
Flags: W
LayerCount: 2
Fore
SplineSet
136 -77 m 1,0,1
 145 -40 145 -40 162 0 c 1,2,-1
 241 0 l 1,3,4
 230 -21 230 -21 225 -32 c 1,5,6
 271 -35 271 -35 298 -59.5 c 128,-1,7
 325 -84 325 -84 325 -127 c 128,-1,8
 325 -170 325 -170 287 -200.5 c 128,-1,9
 249 -231 249 -231 193.5 -231 c 128,-1,10
 138 -231 138 -231 103 -208 c 1,11,12
 105 -168 105 -168 128 -143 c 1,13,14
 148 -156 148 -156 175 -156 c 0,15,16
 212 -156 212 -156 212 -126 c 0,17,18
 212 -112 212 -112 203 -103.5 c 128,-1,19
 194 -95 194 -95 182 -95 c 128,-1,20
 170 -95 170 -95 158 -99 c 1,21,22
 143 -92 143 -92 136 -77 c 1,0,1
EndSplineSet
EndChar

StartChar: onesuperior
Encoding: 185 185 122
Width: 420
GlyphClass: 2
Flags: W
LayerCount: 2
Fore
SplineSet
37 622 m 1,0,1
 92 655 92 655 122.5 687.5 c 128,-1,2
 153 720 153 720 176 768 c 1,3,4
 207 774 207 774 231.5 774 c 128,-1,5
 256 774 256 774 292 768 c 1,6,-1
 292 429 l 1,7,-1
 374 429 l 1,8,9
 380 404 380 404 380 375 c 128,-1,10
 380 346 380 346 374 322 c 1,11,-1
 72 322 l 1,12,13
 66 347 66 347 66 375.5 c 128,-1,14
 66 404 66 404 72 429 c 1,15,-1
 171 429 l 1,16,-1
 171 524 l 2,17,18
 171 541 171 541 175 605 c 1,19,20
 149 573 149 573 93 546 c 1,21,22
 73 556 73 556 57.5 578 c 128,-1,23
 42 600 42 600 37 622 c 1,0,1
EndSplineSet
EndChar

StartChar: ordmasculine
Encoding: 186 186 123
Width: 450
GlyphClass: 2
Flags: W
LayerCount: 2
Fore
SplineSet
350 653 m 1,0,1
 409 591 409 591 409 484.5 c 128,-1,2
 409 378 409 378 350 318 c 1,3,4
 304 273 304 273 225 273 c 128,-1,5
 146 273 146 273 100 318 c 0,6,7
 40 378 40 378 40 485 c 128,-1,8
 40 592 40 592 100 653 c 1,9,10
 146 698 146 698 225 698 c 128,-1,11
 304 698 304 698 350 653 c 1,0,1
225 604 m 128,-1,13
 164 604 164 604 164 485.5 c 128,-1,14
 164 367 164 367 225 367 c 128,-1,15
 286 367 286 367 286 485.5 c 128,-1,12
 286 604 286 604 225 604 c 128,-1,13
EndSplineSet
EndChar

StartChar: guillemotright
Encoding: 187 187 124
Width: 609
GlyphClass: 2
Flags: W
LayerCount: 2
Fore
SplineSet
36 103 m 1,0,-1
 160 256 l 1,1,-1
 32 411 l 1,2,3
 39 434 39 434 64.5 457.5 c 128,-1,4
 90 481 90 481 114 486 c 1,5,-1
 316 301 l 1,6,7
 324 284 324 284 324 258.5 c 128,-1,8
 324 233 324 233 316 216 c 1,9,-1
 116 27 l 1,10,11
 91 33 91 33 67 56.5 c 128,-1,12
 43 80 43 80 36 103 c 1,0,-1
298 103 m 1,13,-1
 422 256 l 1,14,-1
 294 411 l 1,15,16
 301 434 301 434 326.5 457.5 c 128,-1,17
 352 481 352 481 376 486 c 1,18,-1
 578 301 l 1,19,20
 586 284 586 284 586 258.5 c 128,-1,21
 586 233 586 233 578 216 c 1,22,-1
 378 27 l 1,23,24
 353 33 353 33 329 56.5 c 128,-1,25
 305 80 305 80 298 103 c 1,13,-1
EndSplineSet
EndChar

StartChar: onequarter
Encoding: 188 188 125
Width: 1040
GlyphClass: 2
Flags: W
LayerCount: 2
Fore
SplineSet
27 537 m 1,0,1
 82 570 82 570 112.5 602.5 c 128,-1,2
 143 635 143 635 166 683 c 1,3,4
 197 689 197 689 221.5 689 c 128,-1,5
 246 689 246 689 282 683 c 1,6,-1
 282 344 l 1,7,-1
 364 344 l 1,8,9
 370 318 370 318 370 289.5 c 128,-1,10
 370 261 370 261 364 237 c 1,11,-1
 62 237 l 1,12,13
 56 262 56 262 56 290 c 128,-1,14
 56 318 56 318 62 344 c 1,15,-1
 161 344 l 1,16,-1
 161 439 l 2,17,18
 161 456 161 456 165 520 c 1,19,20
 139 488 139 488 83 461 c 1,21,22
 63 471 63 471 47.5 493 c 128,-1,23
 32 515 32 515 27 537 c 1,0,1
292 0 m 1,24,-1
 670 683 l 1,25,26
 700 690 700 690 722 690 c 0,27,28
 792 690 792 690 813 683 c 1,29,-1
 436 0 l 1,30,31
 406 -7 406 -7 384 -7 c 0,32,33
 314 -7 314 -7 292 0 c 1,24,-1
981 77 m 1,34,-1
 949 78 l 1,35,-1
 949 8 l 1,36,37
 927 2 927 2 891.5 2 c 128,-1,38
 856 2 856 2 831 8 c 1,39,-1
 831 29 l 1,40,-1
 832 78 l 1,41,-1
 778 77 l 1,42,-1
 672 77 l 1,43,44
 645 123 645 123 645 148 c 128,-1,45
 645 173 645 173 660 200 c 1,46,-1
 774 457 l 1,47,48
 782 458 782 458 797.5 458 c 128,-1,49
 813 458 813 458 843 451.5 c 128,-1,50
 873 445 873 445 892 431 c 1,51,-1
 837 311 l 1,52,53
 793 212 793 212 764 176 c 1,54,-1
 766 174 l 1,55,56
 802 178 802 178 831 178 c 1,57,-1
 831 212 l 2,58,59
 831 254 831 254 854 278 c 128,-1,60
 877 302 877 302 917 302 c 2,61,-1
 946 302 l 1,62,-1
 950 297 l 1,63,-1
 950 251 l 1,64,-1
 949 179 l 1,65,-1
 1003 179 l 1,66,67
 1007 162 1007 162 1007 134.5 c 128,-1,68
 1007 107 1007 107 997 77 c 1,69,-1
 981 77 l 1,34,-1
EndSplineSet
EndChar

StartChar: onehalf
Encoding: 189 189 126
Width: 1040
GlyphClass: 2
Flags: W
LayerCount: 2
Fore
SplineSet
280 0 m 1,0,-1
 658 683 l 1,1,2
 688 690 688 690 710 690 c 0,3,4
 780 690 780 690 801 683 c 1,5,-1
 424 0 l 1,6,7
 394 -7 394 -7 372 -7 c 0,8,9
 302 -7 302 -7 280 0 c 1,0,-1
27 537 m 1,10,11
 82 570 82 570 112.5 602.5 c 128,-1,12
 143 635 143 635 166 683 c 1,13,14
 197 689 197 689 221.5 689 c 128,-1,15
 246 689 246 689 282 683 c 1,16,-1
 282 344 l 1,17,-1
 364 344 l 1,18,19
 370 318 370 318 370 289.5 c 128,-1,20
 370 261 370 261 364 237 c 1,21,-1
 62 237 l 1,22,23
 56 262 56 262 56 290 c 128,-1,24
 56 318 56 318 62 344 c 1,25,-1
 161 344 l 1,26,-1
 161 439 l 2,27,28
 161 456 161 456 165 520 c 1,29,30
 139 488 139 488 83 461 c 1,31,32
 63 471 63 471 47.5 493 c 128,-1,33
 32 515 32 515 27 537 c 1,10,11
996 114 m 1,34,35
 996 76 996 76 994 63 c 0,36,37
 983 5 983 5 921 5 c 2,38,-1
 709 5 l 1,39,40
 670 56 670 56 670 80 c 0,41,42
 670 131 670 131 737 187 c 2,43,-1
 825 260 l 2,44,45
 854 285 854 285 854 313 c 0,46,47
 854 329 854 329 843 340 c 128,-1,48
 832 351 832 351 815 351 c 128,-1,49
 798 351 798 351 785.5 337 c 128,-1,50
 773 323 773 323 768 303 c 1,51,52
 745 304 745 304 714.5 316 c 128,-1,53
 684 328 684 328 674 343 c 1,54,55
 685 394 685 394 727 428 c 128,-1,56
 769 462 769 462 833.5 462 c 128,-1,57
 898 462 898 462 941 422.5 c 128,-1,58
 984 383 984 383 984 322 c 0,59,60
 984 239 984 239 903 178 c 1,61,-1
 846 136 l 2,62,63
 840 131 840 131 823.5 120 c 128,-1,64
 807 109 807 109 800 103 c 1,65,66
 860 114 860 114 905 114 c 2,67,-1
 996 114 l 1,34,35
EndSplineSet
EndChar

StartChar: threequarters
Encoding: 190 190 127
Width: 1040
GlyphClass: 2
Flags: W
LayerCount: 2
Fore
SplineSet
266 0 m 1,0,-1
 644 683 l 1,1,2
 674 690 674 690 696 690 c 0,3,4
 766 690 766 690 787 683 c 1,5,-1
 410 0 l 1,6,7
 380 -7 380 -7 358 -7 c 0,8,9
 288 -7 288 -7 266 0 c 1,0,-1
323 560 m 2,10,-1
 276 521 l 2,11,12
 263 510 263 510 251 504 c 1,13,14
 301 499 301 499 333 464 c 128,-1,15
 365 429 365 429 365 378 c 0,16,17
 365 310 365 310 316 271 c 128,-1,18
 267 232 267 232 197 232 c 0,19,20
 102 232 102 232 44 280 c 1,21,22
 52 327 52 327 93 361 c 1,23,24
 139 330 139 330 171.5 330 c 128,-1,25
 204 330 204 330 220 344 c 128,-1,26
 236 358 236 358 236 381 c 128,-1,27
 236 404 236 404 222.5 418.5 c 128,-1,28
 209 433 209 433 183 433 c 0,29,30
 179 433 179 433 154 428 c 1,31,32
 139 433 139 433 123.5 453.5 c 128,-1,33
 108 474 108 474 104 492 c 1,34,-1
 171 551 l 2,35,36
 180 559 180 559 217 585 c 1,37,-1
 214 589 l 1,38,39
 186 583 186 583 134 583 c 2,40,-1
 67 583 l 1,41,42
 60 604 60 604 60 634 c 128,-1,43
 60 664 60 664 70 685 c 1,44,-1
 324 685 l 1,45,46
 350 640 350 640 350 611.5 c 128,-1,47
 350 583 350 583 323 560 c 2,10,-1
962 77 m 1,48,-1
 930 78 l 1,49,-1
 930 8 l 1,50,51
 908 2 908 2 872.5 2 c 128,-1,52
 837 2 837 2 812 8 c 1,53,-1
 812 29 l 1,54,-1
 813 78 l 1,55,-1
 759 77 l 1,56,-1
 653 77 l 1,57,58
 626 123 626 123 626 148 c 128,-1,59
 626 173 626 173 641 200 c 1,60,-1
 755 457 l 1,61,62
 763 458 763 458 778.5 458 c 128,-1,63
 794 458 794 458 824 451.5 c 128,-1,64
 854 445 854 445 873 431 c 1,65,-1
 818 311 l 1,66,67
 774 212 774 212 745 176 c 1,68,-1
 747 174 l 1,69,70
 783 178 783 178 812 178 c 1,71,-1
 812 212 l 2,72,73
 812 254 812 254 835 278 c 128,-1,74
 858 302 858 302 898 302 c 2,75,-1
 927 302 l 1,76,-1
 931 297 l 1,77,-1
 931 251 l 1,78,-1
 930 179 l 1,79,-1
 984 179 l 1,80,81
 988 162 988 162 988 134.5 c 128,-1,82
 988 107 988 107 978 77 c 1,83,-1
 962 77 l 1,48,-1
EndSplineSet
EndChar

StartChar: questiondown
Encoding: 191 191 128
Width: 417
GlyphClass: 2
Flags: W
LayerCount: 2
Fore
SplineSet
421 -146 m 1,0,1
 326 -203 326 -203 223 -203 c 128,-1,2
 120 -203 120 -203 66.5 -153.5 c 128,-1,3
 13 -104 13 -104 13 -22 c 0,4,5
 13 106 13 106 144 175 c 2,6,-1
 205 207 l 1,7,-1
 214 287 l 1,8,9
 238 295 238 295 270.5 295 c 128,-1,10
 303 295 303 295 327 287 c 1,11,-1
 335 138 l 1,12,-1
 323 123 l 1,13,-1
 269 99 l 1,14,15
 169 52 169 52 169 -6 c 0,16,17
 169 -38 169 -38 190 -56.5 c 128,-1,18
 211 -75 211 -75 257 -75 c 128,-1,19
 303 -75 303 -75 367 -40 c 1,20,21
 388 -56 388 -56 404 -87 c 128,-1,22
 420 -118 420 -118 421 -146 c 1,0,1
269 363 m 128,-1,24
 223 363 223 363 198 379 c 1,25,26
 187 398 187 398 187 436 c 128,-1,27
 187 474 187 474 198 493 c 1,28,29
 225 509 225 509 268.5 509 c 128,-1,30
 312 509 312 509 341 493 c 1,31,32
 352 474 352 474 352 436 c 128,-1,33
 352 398 352 398 341 379 c 1,34,23
 315 363 315 363 269 363 c 128,-1,24
EndSplineSet
EndChar

StartChar: Agrave
Encoding: 192 192 129
Width: 634
GlyphClass: 2
Flags: W
LayerCount: 2
Fore
SplineSet
240 146 m 2,0,1
 212 146 212 146 198 147 c 1,2,-1
 154 -1 l 1,3,4
 131 -7 131 -7 87 -7 c 128,-1,5
 43 -7 43 -7 16 4 c 1,6,-1
 10 12 l 1,7,-1
 232 683 l 1,8,9
 268 689 268 689 321 689 c 128,-1,10
 374 689 374 689 408 682 c 1,11,-1
 624 10 l 1,12,13
 591 -9 591 -9 545 -9 c 128,-1,14
 499 -9 499 -9 479 8.5 c 128,-1,15
 459 26 459 26 446 74 c 2,16,-1
 425 147 l 1,17,18
 411 146 411 146 382 146 c 2,19,-1
 240 146 l 2,0,1
233 266 m 1,20,-1
 275 267 l 1,21,-1
 352 267 l 2,22,23
 357 267 357 267 370 266.5 c 128,-1,24
 383 266 383 266 390 266 c 1,25,-1
 314 542 l 1,26,-1
 309 542 l 1,27,28
 300 493 300 493 261 358 c 1,29,-1
 233 266 l 1,20,-1
230 934 m 1,30,-1
 451 799 l 1,31,32
 443 747 443 747 409 727 c 1,33,-1
 171 821 l 1,34,35
 174 852 174 852 192 885.5 c 128,-1,36
 210 919 210 919 230 934 c 1,30,-1
EndSplineSet
EndChar

StartChar: Aacute
Encoding: 193 193 130
Width: 634
GlyphClass: 2
Flags: W
LayerCount: 2
Fore
SplineSet
240 146 m 2,0,1
 212 146 212 146 198 147 c 1,2,-1
 154 -1 l 1,3,4
 131 -7 131 -7 87 -7 c 128,-1,5
 43 -7 43 -7 16 4 c 1,6,-1
 10 12 l 1,7,-1
 232 683 l 1,8,9
 268 689 268 689 321 689 c 128,-1,10
 374 689 374 689 408 682 c 1,11,-1
 624 10 l 1,12,13
 591 -9 591 -9 545 -9 c 128,-1,14
 499 -9 499 -9 479 8.5 c 128,-1,15
 459 26 459 26 446 74 c 2,16,-1
 425 147 l 1,17,18
 411 146 411 146 382 146 c 2,19,-1
 240 146 l 2,0,1
233 266 m 1,20,-1
 275 267 l 1,21,-1
 352 267 l 2,22,23
 357 267 357 267 370 266.5 c 128,-1,24
 383 266 383 266 390 266 c 1,25,-1
 314 542 l 1,26,-1
 309 542 l 1,27,28
 300 493 300 493 261 358 c 1,29,-1
 233 266 l 1,20,-1
199 799 m 1,30,-1
 420 934 l 1,31,32
 440 919 440 919 458 885.5 c 128,-1,33
 476 852 476 852 479 821 c 1,34,-1
 241 727 l 1,35,36
 226 736 226 736 213.5 757.5 c 128,-1,37
 201 779 201 779 199 799 c 1,30,-1
EndSplineSet
EndChar

StartChar: Acircumflex
Encoding: 194 194 131
Width: 634
GlyphClass: 2
Flags: W
LayerCount: 2
Fore
SplineSet
240 146 m 2,0,1
 212 146 212 146 198 147 c 1,2,-1
 154 -1 l 1,3,4
 131 -7 131 -7 87 -7 c 128,-1,5
 43 -7 43 -7 16 4 c 1,6,-1
 10 12 l 1,7,-1
 232 683 l 1,8,9
 268 689 268 689 321 689 c 128,-1,10
 374 689 374 689 408 682 c 1,11,-1
 624 10 l 1,12,13
 591 -9 591 -9 545 -9 c 128,-1,14
 499 -9 499 -9 479 8.5 c 128,-1,15
 459 26 459 26 446 74 c 2,16,-1
 425 147 l 1,17,18
 411 146 411 146 382 146 c 2,19,-1
 240 146 l 2,0,1
233 266 m 1,20,-1
 275 267 l 1,21,-1
 352 267 l 2,22,23
 357 267 357 267 370 266.5 c 128,-1,24
 383 266 383 266 390 266 c 1,25,-1
 314 542 l 1,26,-1
 309 542 l 1,27,28
 300 493 300 493 261 358 c 1,29,-1
 233 266 l 1,20,-1
435 735 m 1,30,-1
 318 810 l 1,31,-1
 199 724 l 1,32,33
 182 730 182 730 162.5 748.5 c 128,-1,34
 143 767 143 767 138 786 c 1,35,-1
 256 906 l 1,36,37
 287 913 287 913 318 913 c 128,-1,38
 349 913 349 913 381 907 c 1,39,-1
 494 797 l 1,40,41
 488 776 488 776 470 759 c 128,-1,42
 452 742 452 742 435 735 c 1,30,-1
EndSplineSet
EndChar

StartChar: Atilde
Encoding: 195 195 132
Width: 634
GlyphClass: 2
Flags: W
LayerCount: 2
Fore
SplineSet
240 146 m 2,0,1
 212 146 212 146 198 147 c 1,2,-1
 154 -1 l 1,3,4
 131 -7 131 -7 87 -7 c 128,-1,5
 43 -7 43 -7 16 4 c 1,6,-1
 10 12 l 1,7,-1
 232 683 l 1,8,9
 268 689 268 689 321 689 c 128,-1,10
 374 689 374 689 408 682 c 1,11,-1
 624 10 l 1,12,13
 591 -9 591 -9 545 -9 c 128,-1,14
 499 -9 499 -9 479 8.5 c 128,-1,15
 459 26 459 26 446 74 c 2,16,-1
 425 147 l 1,17,18
 411 146 411 146 382 146 c 2,19,-1
 240 146 l 2,0,1
233 266 m 1,20,-1
 275 267 l 1,21,-1
 352 267 l 2,22,23
 357 267 357 267 370 266.5 c 128,-1,24
 383 266 383 266 390 266 c 1,25,-1
 314 542 l 1,26,-1
 309 542 l 1,27,28
 300 493 300 493 261 358 c 1,29,-1
 233 266 l 1,20,-1
322 758 m 2,30,-1
 274 781 l 1,31,32
 258 790 258 790 240 790 c 128,-1,33
 222 790 222 790 206 766 c 1,34,-1
 197 754 l 1,35,36
 175 754 175 754 152.5 766.5 c 128,-1,37
 130 779 130 779 122 798 c 1,38,-1
 131 818 l 1,39,40
 172 903 172 903 252 903 c 0,41,42
 287 903 287 903 318 886 c 1,43,-1
 366 863 l 1,44,45
 382 854 382 854 399.5 854 c 128,-1,46
 417 854 417 854 434 878 c 2,47,-1
 443 891 l 1,48,49
 465 891 465 891 487 878 c 128,-1,50
 509 865 509 865 518 846 c 1,51,-1
 509 827 l 2,52,53
 490 787 490 787 458.5 764 c 128,-1,54
 427 741 427 741 392.5 741 c 128,-1,55
 358 741 358 741 322 758 c 2,30,-1
EndSplineSet
EndChar

StartChar: Adieresis
Encoding: 196 196 133
Width: 634
GlyphClass: 2
Flags: W
LayerCount: 2
Fore
SplineSet
240 146 m 2,0,1
 212 146 212 146 198 147 c 1,2,-1
 154 -1 l 1,3,4
 131 -7 131 -7 87 -7 c 128,-1,5
 43 -7 43 -7 16 4 c 1,6,-1
 10 12 l 1,7,-1
 232 683 l 1,8,9
 268 689 268 689 321 689 c 128,-1,10
 374 689 374 689 408 682 c 1,11,-1
 624 10 l 1,12,13
 591 -9 591 -9 545 -9 c 128,-1,14
 499 -9 499 -9 479 8.5 c 128,-1,15
 459 26 459 26 446 74 c 2,16,-1
 425 147 l 1,17,18
 411 146 411 146 382 146 c 2,19,-1
 240 146 l 2,0,1
233 266 m 1,20,-1
 275 267 l 1,21,-1
 352 267 l 2,22,23
 357 267 357 267 370 266.5 c 128,-1,24
 383 266 383 266 390 266 c 1,25,-1
 314 542 l 1,26,-1
 309 542 l 1,27,28
 300 493 300 493 261 358 c 1,29,-1
 233 266 l 1,20,-1
375 850 m 1,30,31
 403 866 403 866 436 866 c 128,-1,32
 469 866 469 866 494 850 c 1,33,34
 506 834 506 834 506 800.5 c 128,-1,35
 506 767 506 767 494 752 c 1,36,37
 470 735 470 735 436 735 c 128,-1,38
 402 735 402 735 375 752 c 1,39,40
 361 767 361 767 361 800 c 128,-1,41
 361 833 361 833 375 850 c 1,30,31
203 866 m 128,-1,43
 237 866 237 866 265 850 c 1,44,45
 277 836 277 836 277 800.5 c 128,-1,46
 277 765 277 765 265 752 c 1,47,48
 238 735 238 735 203 735 c 128,-1,49
 168 735 168 735 146 752 c 1,50,51
 134 767 134 767 134 800.5 c 128,-1,52
 134 834 134 834 146 850 c 1,53,42
 169 866 169 866 203 866 c 128,-1,43
EndSplineSet
EndChar

StartChar: Aring
Encoding: 197 197 134
Width: 634
GlyphClass: 2
Flags: W
LayerCount: 2
Fore
SplineSet
402 683 m 1,0,-1
 408 682 l 1,1,-1
 624 10 l 1,2,3
 591 -9 591 -9 545 -9 c 128,-1,4
 499 -9 499 -9 479 8.5 c 128,-1,5
 459 26 459 26 446 74 c 2,6,-1
 425 147 l 1,7,8
 411 146 411 146 382 146 c 2,9,-1
 240 146 l 2,10,11
 212 146 212 146 198 147 c 1,12,-1
 154 -1 l 1,13,14
 131 -7 131 -7 87 -7 c 128,-1,15
 43 -7 43 -7 16 4 c 1,16,-1
 10 12 l 1,17,-1
 232 683 l 1,18,19
 235 683 235 683 237 684 c 1,20,21
 181 719 181 719 181 787 c 0,22,23
 181 841 181 841 219.5 877 c 128,-1,24
 258 913 258 913 320 913 c 128,-1,25
 382 913 382 913 420 877 c 128,-1,26
 458 841 458 841 458 780.5 c 128,-1,27
 458 720 458 720 402 683 c 1,0,-1
233 266 m 1,28,-1
 275 267 l 1,29,-1
 352 267 l 2,30,31
 357 267 357 267 370 266.5 c 128,-1,32
 383 266 383 266 390 266 c 1,33,-1
 314 542 l 1,34,-1
 309 542 l 1,35,36
 300 493 300 493 261 358 c 1,37,-1
 233 266 l 1,28,-1
270 787 m 128,-1,39
 270 765 270 765 284 750.5 c 128,-1,40
 298 736 298 736 320 736 c 128,-1,41
 342 736 342 736 355.5 750.5 c 128,-1,42
 369 765 369 765 369 787 c 128,-1,43
 369 809 369 809 355.5 823.5 c 128,-1,44
 342 838 342 838 320 838 c 128,-1,45
 298 838 298 838 284 823.5 c 128,-1,38
 270 809 270 809 270 787 c 128,-1,39
EndSplineSet
EndChar

StartChar: AE
Encoding: 198 198 135
Width: 885
GlyphClass: 2
Flags: W
LayerCount: 2
Fore
SplineSet
539 195 m 1,0,-1
 538 124 l 1,1,-1
 538 123 l 1,2,3
 582 125 582 125 610 125 c 2,4,-1
 849 125 l 1,5,6
 849 89 849 89 846 71 c 0,7,8
 834 -3 834 -3 748 -3 c 2,9,-1
 478 -3 l 2,10,11
 437 -3 437 -3 414 21 c 128,-1,12
 391 45 391 45 391 87 c 2,13,-1
 391 147 l 1,14,15
 378 146 378 146 354 146 c 2,16,-1
 265 146 l 2,17,18
 237 146 237 146 223 147 c 1,19,-1
 160 0 l 1,20,21
 137 -6 137 -6 87.5 -6 c 128,-1,22
 38 -6 38 -6 11 4 c 1,23,-1
 6 12 l 1,24,-1
 306 670 l 1,25,26
 335 683 335 683 398 683 c 2,27,-1
 824 683 l 1,28,29
 830 655 830 655 830 623.5 c 128,-1,30
 830 592 830 592 817 555 c 1,31,-1
 538 555 l 1,32,-1
 539 484 l 1,33,-1
 539 405 l 1,34,35
 565 406 565 406 605 406 c 2,36,-1
 766 406 l 1,37,38
 774 381 774 381 774 344.5 c 128,-1,39
 774 308 774 308 766 281 c 1,40,-1
 539 281 l 1,41,-1
 539 195 l 1,0,-1
353 266 m 1,42,-1
 391 265 l 1,43,-1
 391 542 l 1,44,-1
 387 542 l 1,45,46
 350 440 350 440 313 357 c 2,47,-1
 273 265 l 1,48,-1
 308 266 l 1,49,-1
 353 266 l 1,42,-1
EndSplineSet
EndChar

StartChar: Ccedilla
Encoding: 199 199 136
Width: 608
GlyphClass: 2
Flags: W
LayerCount: 2
Fore
SplineSet
255 -77 m 1,0,1
 263 -43 263 -43 275 -13 c 1,2,3
 211 -6 211 -6 163 26.5 c 128,-1,4
 115 59 115 59 89 110 c 0,5,6
 38 209 38 209 38 339 c 0,7,8
 38 518 38 518 119.5 608 c 128,-1,9
 201 698 201 698 321 698 c 128,-1,10
 441 698 441 698 511.5 639 c 128,-1,11
 582 580 582 580 582 492 c 0,12,13
 582 408 582 408 495 408 c 0,14,15
 467 408 467 408 437 416 c 1,16,17
 437 421 437 421 437 426 c 0,18,19
 437 489 437 489 411.5 533 c 128,-1,20
 386 577 386 577 322 577 c 128,-1,21
 258 577 258 577 228 517 c 128,-1,22
 198 457 198 457 198 343.5 c 128,-1,23
 198 230 198 230 235 174 c 128,-1,24
 272 118 272 118 342.5 118 c 128,-1,25
 413 118 413 118 510 189 c 1,26,27
 533 173 533 173 554.5 144.5 c 128,-1,28
 576 116 576 116 581 91 c 1,29,30
 542 52 542 52 481.5 23.5 c 128,-1,31
 421 -5 421 -5 353 -13 c 1,32,33
 348 -21 348 -21 344 -32 c 1,34,35
 390 -35 390 -35 417 -59.5 c 128,-1,36
 444 -84 444 -84 444 -127 c 128,-1,37
 444 -170 444 -170 406 -200.5 c 128,-1,38
 368 -231 368 -231 312 -231 c 128,-1,39
 256 -231 256 -231 223 -208 c 1,40,41
 225 -167 225 -167 247 -143 c 1,42,43
 269 -156 269 -156 294 -156 c 0,44,45
 332 -156 332 -156 332 -126 c 0,46,47
 332 -112 332 -112 322.5 -103.5 c 128,-1,48
 313 -95 313 -95 301 -95 c 128,-1,49
 289 -95 289 -95 277 -99 c 1,50,51
 262 -92 262 -92 255 -77 c 1,0,1
EndSplineSet
EndChar

StartChar: Egrave
Encoding: 200 200 137
Width: 572
GlyphClass: 2
Flags: W
LayerCount: 2
Fore
SplineSet
228 193 m 1,0,-1
 227 124 l 1,1,-1
 227 123 l 1,2,3
 271 125 271 125 300 125 c 2,4,-1
 536 125 l 1,5,6
 536 89 536 89 533 71 c 0,7,8
 519 -3 519 -3 435 -3 c 2,9,-1
 165 -3 l 2,10,11
 124 -3 124 -3 100.5 21 c 128,-1,12
 77 45 77 45 77 87 c 2,13,-1
 77 676 l 1,14,-1
 84 683 l 1,15,-1
 511 683 l 1,16,17
 516 660 516 660 516 625 c 128,-1,18
 516 590 516 590 504 555 c 1,19,-1
 227 555 l 1,20,-1
 228 484 l 1,21,-1
 228 405 l 1,22,23
 254 406 254 406 295 406 c 2,24,-1
 452 406 l 1,25,26
 461 382 461 382 461 344.5 c 128,-1,27
 461 307 461 307 452 281 c 1,28,-1
 228 281 l 1,29,-1
 228 193 l 1,0,-1
209 934 m 1,30,-1
 430 799 l 1,31,32
 422 747 422 747 388 727 c 1,33,-1
 150 821 l 1,34,35
 153 852 153 852 171 885.5 c 128,-1,36
 189 919 189 919 209 934 c 1,30,-1
EndSplineSet
EndChar

StartChar: Eacute
Encoding: 201 201 138
Width: 572
GlyphClass: 2
Flags: W
LayerCount: 2
Fore
SplineSet
228 193 m 1,0,-1
 227 124 l 1,1,-1
 227 123 l 1,2,3
 271 125 271 125 300 125 c 2,4,-1
 536 125 l 1,5,6
 536 89 536 89 533 71 c 0,7,8
 519 -3 519 -3 435 -3 c 2,9,-1
 165 -3 l 2,10,11
 124 -3 124 -3 100.5 21 c 128,-1,12
 77 45 77 45 77 87 c 2,13,-1
 77 676 l 1,14,-1
 84 683 l 1,15,-1
 511 683 l 1,16,17
 516 660 516 660 516 625 c 128,-1,18
 516 590 516 590 504 555 c 1,19,-1
 227 555 l 1,20,-1
 228 484 l 1,21,-1
 228 405 l 1,22,23
 254 406 254 406 295 406 c 2,24,-1
 452 406 l 1,25,26
 461 382 461 382 461 344.5 c 128,-1,27
 461 307 461 307 452 281 c 1,28,-1
 228 281 l 1,29,-1
 228 193 l 1,0,-1
178 799 m 1,30,-1
 399 934 l 1,31,32
 419 919 419 919 437 885.5 c 128,-1,33
 455 852 455 852 458 821 c 1,34,-1
 220 727 l 1,35,36
 205 736 205 736 192.5 757.5 c 128,-1,37
 180 779 180 779 178 799 c 1,30,-1
EndSplineSet
EndChar

StartChar: Ecircumflex
Encoding: 202 202 139
Width: 572
GlyphClass: 2
Flags: W
LayerCount: 2
Fore
SplineSet
228 193 m 1,0,-1
 227 124 l 1,1,-1
 227 123 l 1,2,3
 271 125 271 125 300 125 c 2,4,-1
 536 125 l 1,5,6
 536 89 536 89 533 71 c 0,7,8
 519 -3 519 -3 435 -3 c 2,9,-1
 165 -3 l 2,10,11
 124 -3 124 -3 100.5 21 c 128,-1,12
 77 45 77 45 77 87 c 2,13,-1
 77 676 l 1,14,-1
 84 683 l 1,15,-1
 511 683 l 1,16,17
 516 660 516 660 516 625 c 128,-1,18
 516 590 516 590 504 555 c 1,19,-1
 227 555 l 1,20,-1
 228 484 l 1,21,-1
 228 405 l 1,22,23
 254 406 254 406 295 406 c 2,24,-1
 452 406 l 1,25,26
 461 382 461 382 461 344.5 c 128,-1,27
 461 307 461 307 452 281 c 1,28,-1
 228 281 l 1,29,-1
 228 193 l 1,0,-1
414 735 m 1,30,-1
 297 810 l 1,31,-1
 178 724 l 1,32,33
 161 730 161 730 141.5 748.5 c 128,-1,34
 122 767 122 767 117 786 c 1,35,-1
 235 906 l 1,36,37
 266 913 266 913 297 913 c 128,-1,38
 328 913 328 913 360 907 c 1,39,-1
 473 797 l 1,40,41
 467 776 467 776 449 759 c 128,-1,42
 431 742 431 742 414 735 c 1,30,-1
EndSplineSet
EndChar

StartChar: Edieresis
Encoding: 203 203 140
Width: 572
GlyphClass: 2
Flags: W
LayerCount: 2
Fore
SplineSet
228 193 m 1,0,-1
 227 124 l 1,1,-1
 227 123 l 1,2,3
 271 125 271 125 300 125 c 2,4,-1
 536 125 l 1,5,6
 536 89 536 89 533 71 c 0,7,8
 519 -3 519 -3 435 -3 c 2,9,-1
 165 -3 l 2,10,11
 124 -3 124 -3 100.5 21 c 128,-1,12
 77 45 77 45 77 87 c 2,13,-1
 77 676 l 1,14,-1
 84 683 l 1,15,-1
 511 683 l 1,16,17
 516 660 516 660 516 625 c 128,-1,18
 516 590 516 590 504 555 c 1,19,-1
 227 555 l 1,20,-1
 228 484 l 1,21,-1
 228 405 l 1,22,23
 254 406 254 406 295 406 c 2,24,-1
 452 406 l 1,25,26
 461 382 461 382 461 344.5 c 128,-1,27
 461 307 461 307 452 281 c 1,28,-1
 228 281 l 1,29,-1
 228 193 l 1,0,-1
354 850 m 1,30,31
 382 866 382 866 415 866 c 128,-1,32
 448 866 448 866 473 850 c 1,33,34
 485 834 485 834 485 800.5 c 128,-1,35
 485 767 485 767 473 752 c 1,36,37
 449 735 449 735 415 735 c 128,-1,38
 381 735 381 735 354 752 c 1,39,40
 340 767 340 767 340 800 c 128,-1,41
 340 833 340 833 354 850 c 1,30,31
182 866 m 128,-1,43
 216 866 216 866 244 850 c 1,44,45
 256 836 256 836 256 800.5 c 128,-1,46
 256 765 256 765 244 752 c 1,47,48
 217 735 217 735 182 735 c 128,-1,49
 147 735 147 735 125 752 c 1,50,51
 113 767 113 767 113 800.5 c 128,-1,52
 113 834 113 834 125 850 c 1,53,42
 148 866 148 866 182 866 c 128,-1,43
EndSplineSet
EndChar

StartChar: Igrave
Encoding: 204 204 141
Width: 314
GlyphClass: 2
Flags: W
LayerCount: 2
Fore
SplineSet
80 0 m 1,0,-1
 80 683 l 1,1,2
 110 689 110 689 156.5 689 c 128,-1,3
 203 689 203 689 233 683 c 1,4,-1
 233 0 l 1,5,6
 203 -6 203 -6 156.5 -6 c 128,-1,7
 110 -6 110 -6 80 0 c 1,0,-1
67 935 m 1,8,-1
 288 800 l 1,9,10
 280 748 280 748 246 728 c 1,11,-1
 8 822 l 1,12,13
 11 853 11 853 29 886.5 c 128,-1,14
 47 920 47 920 67 935 c 1,8,-1
EndSplineSet
EndChar

StartChar: Iacute
Encoding: 205 205 142
Width: 314
GlyphClass: 2
Flags: W
LayerCount: 2
Fore
SplineSet
80 0 m 1,0,-1
 80 683 l 1,1,2
 110 689 110 689 156.5 689 c 128,-1,3
 203 689 203 689 233 683 c 1,4,-1
 233 0 l 1,5,6
 203 -6 203 -6 156.5 -6 c 128,-1,7
 110 -6 110 -6 80 0 c 1,0,-1
36 800 m 1,8,-1
 257 935 l 1,9,10
 277 920 277 920 295 886.5 c 128,-1,11
 313 853 313 853 316 822 c 1,12,-1
 78 728 l 1,13,14
 63 737 63 737 50.5 758.5 c 128,-1,15
 38 780 38 780 36 800 c 1,8,-1
EndSplineSet
EndChar

StartChar: Icircumflex
Encoding: 206 206 143
Width: 314
GlyphClass: 2
Flags: W
LayerCount: 2
Fore
SplineSet
80 0 m 1,0,-1
 80 683 l 1,1,2
 110 689 110 689 156.5 689 c 128,-1,3
 203 689 203 689 233 683 c 1,4,-1
 233 0 l 1,5,6
 203 -6 203 -6 156.5 -6 c 128,-1,7
 110 -6 110 -6 80 0 c 1,0,-1
272 736 m 1,8,-1
 155 811 l 1,9,-1
 36 725 l 1,10,11
 19 731 19 731 -0.5 749.5 c 128,-1,12
 -20 768 -20 768 -25 787 c 1,13,-1
 93 907 l 1,14,15
 124 914 124 914 155 914 c 128,-1,16
 186 914 186 914 218 908 c 1,17,-1
 331 798 l 1,18,19
 325 777 325 777 307 760 c 128,-1,20
 289 743 289 743 272 736 c 1,8,-1
EndSplineSet
EndChar

StartChar: Idieresis
Encoding: 207 207 144
Width: 314
GlyphClass: 2
Flags: W
LayerCount: 2
Fore
SplineSet
80 0 m 1,0,-1
 80 683 l 1,1,2
 110 689 110 689 156.5 689 c 128,-1,3
 203 689 203 689 233 683 c 1,4,-1
 233 0 l 1,5,6
 203 -6 203 -6 156.5 -6 c 128,-1,7
 110 -6 110 -6 80 0 c 1,0,-1
212 851 m 1,8,9
 240 867 240 867 273 867 c 128,-1,10
 306 867 306 867 331 851 c 1,11,12
 343 835 343 835 343 801.5 c 128,-1,13
 343 768 343 768 331 753 c 1,14,15
 307 736 307 736 273 736 c 128,-1,16
 239 736 239 736 212 753 c 1,17,18
 198 768 198 768 198 801 c 128,-1,19
 198 834 198 834 212 851 c 1,8,9
40 867 m 128,-1,21
 74 867 74 867 102 851 c 1,22,23
 114 837 114 837 114 801.5 c 128,-1,24
 114 766 114 766 102 753 c 1,25,26
 75 736 75 736 40 736 c 128,-1,27
 5 736 5 736 -17 753 c 1,28,29
 -29 768 -29 768 -29 801.5 c 128,-1,30
 -29 835 -29 835 -17 851 c 1,31,20
 6 867 6 867 40 867 c 128,-1,21
EndSplineSet
EndChar

StartChar: Eth
Encoding: 208 208 145
Width: 680
GlyphClass: 2
Flags: W
LayerCount: 2
Fore
SplineSet
617.5 514 m 128,-1,1
 641 441 641 441 641 341 c 128,-1,2
 641 241 641 241 618 168 c 128,-1,3
 595 95 595 95 530 44 c 0,4,5
 498 19 498 19 446.5 6.5 c 128,-1,6
 395 -6 395 -6 334.5 -6 c 128,-1,7
 274 -6 274 -6 100 -2 c 1,8,-1
 93 5 l 1,9,-1
 93 285 l 1,10,-1
 25 285 l 1,11,12
 18 307 18 307 18 346 c 128,-1,13
 18 385 18 385 25 408 c 1,14,-1
 93 408 l 1,15,-1
 93 678 l 1,16,-1
 100 685 l 1,17,18
 216 689 216 689 348 689 c 0,19,20
 395 689 395 689 446.5 676 c 128,-1,21
 498 663 498 663 530 638 c 0,22,0
 594 587 594 587 617.5 514 c 128,-1,1
348 569 m 2,23,-1
 242 570 l 1,24,-1
 242 408 l 1,25,-1
 373 408 l 1,26,27
 379 378 379 378 379 346 c 128,-1,28
 379 314 379 314 373 285 c 1,29,-1
 242 285 l 1,30,-1
 242 113 l 1,31,-1
 348 113 l 2,32,33
 484 113 484 113 484 342 c 0,34,35
 484 504 484 504 419 549 c 0,36,37
 390 569 390 569 348 569 c 2,23,-1
EndSplineSet
EndChar

StartChar: Ntilde
Encoding: 209 209 146
Width: 694
GlyphClass: 2
Flags: W
LayerCount: 2
Fore
SplineSet
609 689 m 1,0,-1
 616 683 l 1,1,-1
 616 3 l 1,2,3
 578 -6 578 -6 526.5 -6 c 128,-1,4
 475 -6 475 -6 435 0 c 1,5,-1
 269 366 l 1,6,7
 227 466 227 466 212 507 c 1,8,-1
 208 506 l 1,9,10
 220 364 220 364 220 215 c 2,11,-1
 220 0 l 1,12,13
 190 -6 190 -6 148.5 -6 c 128,-1,14
 107 -6 107 -6 78 0 c 1,15,-1
 78 680 l 1,16,17
 114 689 114 689 165.5 689 c 128,-1,18
 217 689 217 689 257 683 c 1,19,-1
 419 318 l 1,20,-1
 482 167 l 1,21,-1
 486 168 l 1,22,23
 474 306 474 306 474 457 c 2,24,-1
 474 597 l 2,25,26
 474 647 474 647 494 668 c 128,-1,27
 514 689 514 689 559 689 c 2,28,-1
 609 689 l 1,0,-1
352 758 m 2,29,-1
 304 781 l 1,30,31
 288 790 288 790 270 790 c 128,-1,32
 252 790 252 790 236 766 c 1,33,-1
 227 754 l 1,34,35
 205 754 205 754 182.5 766.5 c 128,-1,36
 160 779 160 779 152 798 c 1,37,-1
 161 818 l 1,38,39
 202 903 202 903 282 903 c 0,40,41
 317 903 317 903 348 886 c 1,42,-1
 396 863 l 1,43,44
 412 854 412 854 429.5 854 c 128,-1,45
 447 854 447 854 464 878 c 2,46,-1
 473 891 l 1,47,48
 495 891 495 891 517 878 c 128,-1,49
 539 865 539 865 548 846 c 1,50,-1
 539 827 l 2,51,52
 520 787 520 787 488.5 764 c 128,-1,53
 457 741 457 741 422.5 741 c 128,-1,54
 388 741 388 741 352 758 c 2,29,-1
EndSplineSet
EndChar

StartChar: Ograve
Encoding: 210 210 147
Width: 665
GlyphClass: 2
Flags: W
LayerCount: 2
Fore
SplineSet
197 341.5 m 128,-1,1
 197 103 197 103 332.5 103 c 128,-1,2
 468 103 468 103 468 341.5 c 128,-1,3
 468 580 468 580 332.5 580 c 128,-1,0
 197 580 197 580 197 341.5 c 128,-1,1
145 48 m 0,4,5
 38 137 38 137 38 341.5 c 128,-1,6
 38 546 38 546 145 635 c 0,7,8
 222 698 222 698 333 698 c 128,-1,9
 444 698 444 698 521 635 c 0,10,11
 628 546 628 546 628 341.5 c 128,-1,12
 628 137 628 137 521 48 c 0,13,14
 444 -15 444 -15 333 -15 c 128,-1,15
 222 -15 222 -15 145 48 c 0,4,5
243 934 m 1,16,-1
 464 799 l 1,17,18
 456 747 456 747 422 727 c 1,19,-1
 184 821 l 1,20,21
 187 852 187 852 205 885.5 c 128,-1,22
 223 919 223 919 243 934 c 1,16,-1
EndSplineSet
EndChar

StartChar: Oacute
Encoding: 211 211 148
Width: 665
GlyphClass: 2
Flags: W
LayerCount: 2
Fore
SplineSet
197 341.5 m 128,-1,1
 197 103 197 103 332.5 103 c 128,-1,2
 468 103 468 103 468 341.5 c 128,-1,3
 468 580 468 580 332.5 580 c 128,-1,0
 197 580 197 580 197 341.5 c 128,-1,1
145 48 m 0,4,5
 38 137 38 137 38 341.5 c 128,-1,6
 38 546 38 546 145 635 c 0,7,8
 222 698 222 698 333 698 c 128,-1,9
 444 698 444 698 521 635 c 0,10,11
 628 546 628 546 628 341.5 c 128,-1,12
 628 137 628 137 521 48 c 0,13,14
 444 -15 444 -15 333 -15 c 128,-1,15
 222 -15 222 -15 145 48 c 0,4,5
212 799 m 1,16,-1
 433 934 l 1,17,18
 453 919 453 919 471 885.5 c 128,-1,19
 489 852 489 852 492 821 c 1,20,-1
 254 727 l 1,21,22
 239 736 239 736 226.5 757.5 c 128,-1,23
 214 779 214 779 212 799 c 1,16,-1
EndSplineSet
EndChar

StartChar: Ocircumflex
Encoding: 212 212 149
Width: 665
GlyphClass: 2
Flags: W
LayerCount: 2
Fore
SplineSet
197 341.5 m 128,-1,1
 197 103 197 103 332.5 103 c 128,-1,2
 468 103 468 103 468 341.5 c 128,-1,3
 468 580 468 580 332.5 580 c 128,-1,0
 197 580 197 580 197 341.5 c 128,-1,1
145 48 m 0,4,5
 38 137 38 137 38 341.5 c 128,-1,6
 38 546 38 546 145 635 c 0,7,8
 222 698 222 698 333 698 c 128,-1,9
 444 698 444 698 521 635 c 0,10,11
 628 546 628 546 628 341.5 c 128,-1,12
 628 137 628 137 521 48 c 0,13,14
 444 -15 444 -15 333 -15 c 128,-1,15
 222 -15 222 -15 145 48 c 0,4,5
448 735 m 1,16,-1
 331 810 l 1,17,-1
 212 724 l 1,18,19
 195 730 195 730 175.5 748.5 c 128,-1,20
 156 767 156 767 151 786 c 1,21,-1
 269 906 l 1,22,23
 300 913 300 913 331 913 c 128,-1,24
 362 913 362 913 394 907 c 1,25,-1
 507 797 l 1,26,27
 501 776 501 776 483 759 c 128,-1,28
 465 742 465 742 448 735 c 1,16,-1
EndSplineSet
EndChar

StartChar: Otilde
Encoding: 213 213 150
Width: 665
GlyphClass: 2
Flags: W
LayerCount: 2
Fore
SplineSet
197 341.5 m 128,-1,1
 197 103 197 103 332.5 103 c 128,-1,2
 468 103 468 103 468 341.5 c 128,-1,3
 468 580 468 580 332.5 580 c 128,-1,0
 197 580 197 580 197 341.5 c 128,-1,1
145 48 m 0,4,5
 38 137 38 137 38 341.5 c 128,-1,6
 38 546 38 546 145 635 c 0,7,8
 222 698 222 698 333 698 c 128,-1,9
 444 698 444 698 521 635 c 0,10,11
 628 546 628 546 628 341.5 c 128,-1,12
 628 137 628 137 521 48 c 0,13,14
 444 -15 444 -15 333 -15 c 128,-1,15
 222 -15 222 -15 145 48 c 0,4,5
329 766 m 2,16,-1
 280 789 l 2,17,18
 262 798 262 798 245.5 798 c 128,-1,19
 229 798 229 798 210 774 c 2,20,-1
 200 761 l 1,21,22
 178 761 178 761 155.5 774 c 128,-1,23
 133 787 133 787 125 806 c 1,24,-1
 134 825 l 2,25,26
 152 864 152 864 184 887.5 c 128,-1,27
 216 911 216 911 253 911 c 128,-1,28
 290 911 290 911 324 894 c 2,29,-1
 373 871 l 2,30,31
 391 862 391 862 408 862 c 128,-1,32
 425 862 425 862 443 886 c 1,33,-1
 453 898 l 1,34,35
 475 898 475 898 497 885.5 c 128,-1,36
 519 873 519 873 528 854 c 1,37,-1
 519 834 l 2,38,39
 501 795 501 795 468.5 771.5 c 128,-1,40
 436 748 436 748 400.5 748 c 128,-1,41
 365 748 365 748 329 766 c 2,16,-1
EndSplineSet
EndChar

StartChar: Odieresis
Encoding: 214 214 151
Width: 665
GlyphClass: 2
Flags: W
LayerCount: 2
Fore
SplineSet
197 341.5 m 128,-1,1
 197 103 197 103 332.5 103 c 128,-1,2
 468 103 468 103 468 341.5 c 128,-1,3
 468 580 468 580 332.5 580 c 128,-1,0
 197 580 197 580 197 341.5 c 128,-1,1
145 48 m 0,4,5
 38 137 38 137 38 341.5 c 128,-1,6
 38 546 38 546 145 635 c 0,7,8
 222 698 222 698 333 698 c 128,-1,9
 444 698 444 698 521 635 c 0,10,11
 628 546 628 546 628 341.5 c 128,-1,12
 628 137 628 137 521 48 c 0,13,14
 444 -15 444 -15 333 -15 c 128,-1,15
 222 -15 222 -15 145 48 c 0,4,5
388 850 m 1,16,17
 416 866 416 866 449 866 c 128,-1,18
 482 866 482 866 507 850 c 1,19,20
 519 834 519 834 519 800.5 c 128,-1,21
 519 767 519 767 507 752 c 1,22,23
 483 735 483 735 449 735 c 128,-1,24
 415 735 415 735 388 752 c 1,25,26
 374 767 374 767 374 800 c 128,-1,27
 374 833 374 833 388 850 c 1,16,17
216 866 m 128,-1,29
 250 866 250 866 278 850 c 1,30,31
 290 836 290 836 290 800.5 c 128,-1,32
 290 765 290 765 278 752 c 1,33,34
 251 735 251 735 216 735 c 128,-1,35
 181 735 181 735 159 752 c 1,36,37
 147 767 147 767 147 800.5 c 128,-1,38
 147 834 147 834 159 850 c 1,39,28
 182 866 182 866 216 866 c 128,-1,29
EndSplineSet
EndChar

StartChar: multiply
Encoding: 215 215 152
Width: 530
GlyphClass: 2
Flags: W
LayerCount: 2
Fore
SplineSet
264 212 m 1,0,-1
 146 93 l 1,1,2
 121 105 121 105 95 129 c 1,3,4
 69 157 69 157 59 180 c 1,5,-1
 179 298 l 1,6,-1
 59 417 l 1,7,8
 72 447 72 447 95 468 c 1,9,10
 120 493 120 493 146 504 c 1,11,-1
 224 426 l 1,12,-1
 264 384 l 1,13,-1
 382 504 l 1,14,15
 440 476 440 476 470 417 c 1,16,-1
 351 298 l 1,17,-1
 470 180 l 1,18,19
 443 122 443 122 382 93 c 1,20,-1
 306 171 l 1,21,-1
 264 212 l 1,0,-1
EndSplineSet
EndChar

StartChar: Oslash
Encoding: 216 216 153
Width: 669
GlyphClass: 2
Flags: W
LayerCount: 2
Fore
SplineSet
127 65 m 1,0,1
 38 158 38 158 38 351 c 128,-1,2
 38 544 38 544 146 635 c 0,3,4
 221 698 221 698 334 698 c 0,5,6
 398 698 398 698 450 678 c 1,7,-1
 495 756 l 1,8,9
 554 747 554 747 589 704 c 1,10,-1
 540 618 l 1,11,12
 631 524 631 524 631 342 c 0,13,14
 631 140 631 140 523 48 c 0,15,16
 448 -15 448 -15 334 -15 c 0,17,18
 270 -15 270 -15 218 5 c 1,19,-1
 175 -70 l 1,20,21
 149 -66 149 -66 122.5 -52 c 128,-1,22
 96 -38 96 -38 80 -19 c 1,23,-1
 127 65 l 1,0,1
478 342 m 0,24,25
 478 417 478 417 463 473 c 1,26,-1
 275 112 l 1,27,28
 303 99 303 99 334 99 c 0,29,30
 478 99 478 99 478 342 c 0,24,25
190 342 m 0,31,32
 190 262 190 262 205 211 c 1,33,-1
 393 571 l 1,34,35
 365 584 365 584 334 584 c 0,36,37
 190 584 190 584 190 342 c 0,31,32
EndSplineSet
EndChar

StartChar: Ugrave
Encoding: 217 217 154
Width: 673
GlyphClass: 2
Flags: W
LayerCount: 2
Fore
SplineSet
604 683 m 1,0,-1
 604 251 l 2,1,2
 604 124 604 124 534 54.5 c 128,-1,3
 464 -15 464 -15 336 -15 c 128,-1,4
 208 -15 208 -15 138 54.5 c 128,-1,5
 68 124 68 124 68 251 c 2,6,-1
 68 683 l 1,7,-1
 75 689 l 1,8,-1
 131 689 l 2,9,10
 221 689 221 689 221 593 c 2,11,-1
 221 249 l 2,12,13
 221 177 221 177 248.5 142 c 128,-1,14
 276 107 276 107 336.5 107 c 128,-1,15
 397 107 397 107 424 142 c 128,-1,16
 451 177 451 177 451 249 c 2,17,-1
 451 683 l 1,18,19
 481 689 481 689 528 689 c 128,-1,20
 575 689 575 689 604 683 c 1,0,-1
244 934 m 1,21,-1
 465 799 l 1,22,23
 457 747 457 747 423 727 c 1,24,-1
 185 821 l 1,25,26
 188 852 188 852 206 885.5 c 128,-1,27
 224 919 224 919 244 934 c 1,21,-1
EndSplineSet
EndChar

StartChar: Uacute
Encoding: 218 218 155
Width: 673
GlyphClass: 2
Flags: W
LayerCount: 2
Fore
SplineSet
604 683 m 1,0,-1
 604 251 l 2,1,2
 604 124 604 124 534 54.5 c 128,-1,3
 464 -15 464 -15 336 -15 c 128,-1,4
 208 -15 208 -15 138 54.5 c 128,-1,5
 68 124 68 124 68 251 c 2,6,-1
 68 683 l 1,7,-1
 75 689 l 1,8,-1
 131 689 l 2,9,10
 221 689 221 689 221 593 c 2,11,-1
 221 249 l 2,12,13
 221 177 221 177 248.5 142 c 128,-1,14
 276 107 276 107 336.5 107 c 128,-1,15
 397 107 397 107 424 142 c 128,-1,16
 451 177 451 177 451 249 c 2,17,-1
 451 683 l 1,18,19
 481 689 481 689 528 689 c 128,-1,20
 575 689 575 689 604 683 c 1,0,-1
213 799 m 1,21,-1
 434 934 l 1,22,23
 454 919 454 919 472 885.5 c 128,-1,24
 490 852 490 852 493 821 c 1,25,-1
 255 727 l 1,26,27
 240 736 240 736 227.5 757.5 c 128,-1,28
 215 779 215 779 213 799 c 1,21,-1
EndSplineSet
EndChar

StartChar: Ucircumflex
Encoding: 219 219 156
Width: 673
GlyphClass: 2
Flags: W
LayerCount: 2
Fore
SplineSet
604 683 m 1,0,-1
 604 251 l 2,1,2
 604 124 604 124 534 54.5 c 128,-1,3
 464 -15 464 -15 336 -15 c 128,-1,4
 208 -15 208 -15 138 54.5 c 128,-1,5
 68 124 68 124 68 251 c 2,6,-1
 68 683 l 1,7,-1
 75 689 l 1,8,-1
 131 689 l 2,9,10
 221 689 221 689 221 593 c 2,11,-1
 221 249 l 2,12,13
 221 177 221 177 248.5 142 c 128,-1,14
 276 107 276 107 336.5 107 c 128,-1,15
 397 107 397 107 424 142 c 128,-1,16
 451 177 451 177 451 249 c 2,17,-1
 451 683 l 1,18,19
 481 689 481 689 528 689 c 128,-1,20
 575 689 575 689 604 683 c 1,0,-1
449 735 m 1,21,-1
 332 810 l 1,22,-1
 213 724 l 1,23,24
 196 730 196 730 176.5 748.5 c 128,-1,25
 157 767 157 767 152 786 c 1,26,-1
 270 906 l 1,27,28
 301 913 301 913 332 913 c 128,-1,29
 363 913 363 913 395 907 c 1,30,-1
 508 797 l 1,31,32
 502 776 502 776 484 759 c 128,-1,33
 466 742 466 742 449 735 c 1,21,-1
EndSplineSet
EndChar

StartChar: Udieresis
Encoding: 220 220 157
Width: 673
GlyphClass: 2
Flags: W
LayerCount: 2
Fore
SplineSet
604 683 m 1,0,-1
 604 251 l 2,1,2
 604 124 604 124 534 54.5 c 128,-1,3
 464 -15 464 -15 336 -15 c 128,-1,4
 208 -15 208 -15 138 54.5 c 128,-1,5
 68 124 68 124 68 251 c 2,6,-1
 68 683 l 1,7,-1
 75 689 l 1,8,-1
 131 689 l 2,9,10
 221 689 221 689 221 593 c 2,11,-1
 221 249 l 2,12,13
 221 177 221 177 248.5 142 c 128,-1,14
 276 107 276 107 336.5 107 c 128,-1,15
 397 107 397 107 424 142 c 128,-1,16
 451 177 451 177 451 249 c 2,17,-1
 451 683 l 1,18,19
 481 689 481 689 528 689 c 128,-1,20
 575 689 575 689 604 683 c 1,0,-1
389 850 m 1,21,22
 417 866 417 866 450 866 c 128,-1,23
 483 866 483 866 508 850 c 1,24,25
 520 834 520 834 520 800.5 c 128,-1,26
 520 767 520 767 508 752 c 1,27,28
 484 735 484 735 450 735 c 128,-1,29
 416 735 416 735 389 752 c 1,30,31
 375 767 375 767 375 800 c 128,-1,32
 375 833 375 833 389 850 c 1,21,22
217 866 m 128,-1,34
 251 866 251 866 279 850 c 1,35,36
 291 836 291 836 291 800.5 c 128,-1,37
 291 765 291 765 279 752 c 1,38,39
 252 735 252 735 217 735 c 128,-1,40
 182 735 182 735 160 752 c 1,41,42
 148 767 148 767 148 800.5 c 128,-1,43
 148 834 148 834 160 850 c 1,44,33
 183 866 183 866 217 866 c 128,-1,34
EndSplineSet
EndChar

StartChar: Yacute
Encoding: 221 221 158
Width: 526
GlyphClass: 2
Flags: W
LayerCount: 2
Fore
SplineSet
318 505 m 2,0,-1
 389 683 l 1,1,2
 414 689 414 689 454.5 689 c 128,-1,3
 495 689 495 689 526 678 c 1,4,-1
 532 669 l 1,5,-1
 339 211 l 1,6,-1
 339 0 l 1,7,8
 309 -6 309 -6 262 -6 c 128,-1,9
 215 -6 215 -6 186 0 c 1,10,-1
 186 215 l 1,11,-1
 -7 665 l 1,12,13
 40 691 40 691 79 691 c 128,-1,14
 118 691 118 691 136 677 c 128,-1,15
 154 663 154 663 167 630 c 2,16,-1
 219 500 l 2,17,18
 243 438 243 438 264 359 c 1,19,-1
 270 359 l 1,20,21
 286 424 286 424 318 505 c 2,0,-1
145 799 m 1,22,-1
 366 934 l 1,23,24
 386 919 386 919 404 885.5 c 128,-1,25
 422 852 422 852 425 821 c 1,26,-1
 187 727 l 1,27,28
 172 736 172 736 159.5 757.5 c 128,-1,29
 147 779 147 779 145 799 c 1,22,-1
EndSplineSet
EndChar

StartChar: Thorn
Encoding: 222 222 159
Width: 588
GlyphClass: 2
Flags: W
LayerCount: 2
Fore
SplineSet
78 0 m 1,0,-1
 78 683 l 1,1,2
 107 689 107 689 154 689 c 128,-1,3
 201 689 201 689 231 683 c 1,4,-1
 231 588 l 1,5,6
 258 589 258 589 312 589 c 0,7,8
 424 589 424 589 490 533.5 c 128,-1,9
 556 478 556 478 556 364.5 c 128,-1,10
 556 251 556 251 489 194 c 128,-1,11
 422 137 422 137 312 137 c 2,12,-1
 231 137 l 1,13,-1
 231 0 l 1,14,15
 201 -6 201 -6 154 -6 c 128,-1,16
 107 -6 107 -6 78 0 c 1,0,-1
299 471 m 1,17,-1
 231 472 l 1,18,-1
 231 253 l 1,19,20
 289 255 289 255 299 255 c 0,21,22
 400 255 400 255 400 363 c 128,-1,23
 400 471 400 471 299 471 c 1,17,-1
EndSplineSet
EndChar

StartChar: germandbls
Encoding: 223 223 160
Width: 653
GlyphClass: 2
Flags: W
LayerCount: 2
Fore
SplineSet
97 0 m 1,0,-1
 97 364 l 1,1,-1
 11 363 l 1,2,3
 5 388 5 388 5 420 c 128,-1,4
 5 452 5 452 11 478 c 1,5,-1
 97 477 l 1,6,-1
 97 500 l 2,7,8
 97 597 97 597 161 648.5 c 128,-1,9
 225 700 225 700 334.5 700 c 128,-1,10
 444 700 444 700 511 643.5 c 128,-1,11
 578 587 578 587 578 492 c 0,12,13
 578 455 578 455 561 415 c 1,14,15
 529 408 529 408 512 390.5 c 128,-1,16
 495 373 495 373 495 354.5 c 128,-1,17
 495 336 495 336 518 314 c 2,18,-1
 556 277 l 2,19,20
 627 208 627 208 627 138 c 128,-1,21
 627 68 627 68 571.5 26.5 c 128,-1,22
 516 -15 516 -15 436.5 -15 c 128,-1,23
 357 -15 357 -15 296 14 c 1,24,25
 297 39 297 39 308.5 69.5 c 128,-1,26
 320 100 320 100 337 117 c 1,27,28
 377 97 377 97 407 97 c 128,-1,29
 437 97 437 97 453.5 109 c 128,-1,30
 470 121 470 121 470 144 c 128,-1,31
 470 167 470 167 439 196 c 2,32,-1
 399 233 l 2,33,34
 336 291 336 291 336 345 c 0,35,36
 336 378 336 378 359.5 411 c 128,-1,37
 383 444 383 444 424 462 c 1,38,39
 426 482 426 482 426 491 c 0,40,41
 426 531 426 531 402 558.5 c 128,-1,42
 378 586 378 586 335 586 c 0,43,44
 248 586 248 586 248 484 c 2,45,-1
 248 0 l 1,46,47
 215 -6 215 -6 172.5 -6 c 128,-1,48
 130 -6 130 -6 97 0 c 1,0,-1
EndSplineSet
EndChar

StartChar: aacute
Encoding: 225 225 162
Width: 512
GlyphClass: 2
Flags: W
LayerCount: 2
Fore
SplineSet
481 69 m 1,0,1
 477 49 477 49 462.5 26 c 128,-1,2
 448 3 448 3 434 -8 c 1,3,4
 365 -5 365 -5 330 45 c 1,5,6
 266 -15 266 -15 188.5 -15 c 128,-1,7
 111 -15 111 -15 71.5 31 c 128,-1,8
 32 77 32 77 32 136 c 0,9,10
 32 221 32 221 88.5 265 c 128,-1,11
 145 309 145 309 229 309 c 0,12,13
 262 309 262 309 304 306 c 1,14,-1
 304 328 l 2,15,16
 304 394 304 394 236 394 c 0,17,18
 193 394 193 394 87 362 c 1,19,20
 57 397 57 397 51 466 c 1,21,22
 98 486 98 486 162.5 498 c 128,-1,23
 227 510 227 510 277 510 c 0,24,25
 352 510 352 510 402.5 468.5 c 128,-1,26
 453 427 453 427 453 340 c 2,27,-1
 453 136 l 2,28,29
 453 89 453 89 481 69 c 1,0,1
226 96 m 0,30,31
 265 96 265 96 304 129 c 1,32,-1
 304 212 l 1,33,34
 282 213 282 213 244 213 c 0,35,36
 177 213 177 213 177 146 c 0,37,38
 177 125 177 125 190.5 110.5 c 128,-1,39
 204 96 204 96 226 96 c 0,30,31
158 598 m 1,40,-1
 312 765 l 1,41,42
 340 756 340 756 367.5 731 c 128,-1,43
 395 706 395 706 403 678 c 1,44,-1
 220 540 l 1,45,46
 201 546 201 546 183.5 562 c 128,-1,47
 166 578 166 578 158 598 c 1,40,-1
EndSplineSet
EndChar

StartChar: adieresis
Encoding: 228 228 165
Width: 512
GlyphClass: 2
Flags: W
LayerCount: 2
Fore
SplineSet
481 69 m 1,0,1
 477 49 477 49 462.5 26 c 128,-1,2
 448 3 448 3 434 -8 c 1,3,4
 365 -5 365 -5 330 45 c 1,5,6
 266 -15 266 -15 188.5 -15 c 128,-1,7
 111 -15 111 -15 71.5 31 c 128,-1,8
 32 77 32 77 32 136 c 0,9,10
 32 221 32 221 88.5 265 c 128,-1,11
 145 309 145 309 229 309 c 0,12,13
 262 309 262 309 304 306 c 1,14,-1
 304 328 l 2,15,16
 304 394 304 394 236 394 c 0,17,18
 193 394 193 394 87 362 c 1,19,20
 57 397 57 397 51 466 c 1,21,22
 98 486 98 486 162.5 498 c 128,-1,23
 227 510 227 510 277 510 c 0,24,25
 352 510 352 510 402.5 468.5 c 128,-1,26
 453 427 453 427 453 340 c 2,27,-1
 453 136 l 2,28,29
 453 89 453 89 481 69 c 1,0,1
226 96 m 0,30,31
 265 96 265 96 304 129 c 1,32,-1
 304 212 l 1,33,34
 282 213 282 213 244 213 c 0,35,36
 177 213 177 213 177 146 c 0,37,38
 177 125 177 125 190.5 110.5 c 128,-1,39
 204 96 204 96 226 96 c 0,30,31
278 622 m 128,-1,41
 278 649 278 649 286 670 c 1,42,43
 313 686 313 686 349 686 c 128,-1,44
 385 686 385 686 411 670 c 1,45,46
 420 649 420 649 420 621 c 128,-1,47
 420 593 420 593 411 574 c 1,48,49
 385 558 385 558 349 558 c 128,-1,50
 313 558 313 558 286 574 c 1,51,40
 278 595 278 595 278 622 c 128,-1,41
78 622 m 128,-1,53
 78 649 78 649 87 670 c 1,54,55
 113 686 113 686 149 686 c 128,-1,56
 185 686 185 686 212 670 c 1,57,58
 220 649 220 649 220 621.5 c 128,-1,59
 220 594 220 594 212 574 c 1,60,61
 185 558 185 558 149 558 c 128,-1,62
 113 558 113 558 87 574 c 1,63,52
 78 595 78 595 78 622 c 128,-1,53
EndSplineSet
EndChar

StartChar: aring
Encoding: 229 229 166
Width: 512
GlyphClass: 2
Flags: W
LayerCount: 2
Fore
SplineSet
481 69 m 1,0,1
 477 49 477 49 462.5 26 c 128,-1,2
 448 3 448 3 434 -8 c 1,3,4
 365 -5 365 -5 330 45 c 1,5,6
 266 -15 266 -15 188.5 -15 c 128,-1,7
 111 -15 111 -15 71.5 31 c 128,-1,8
 32 77 32 77 32 136 c 0,9,10
 32 221 32 221 88.5 265 c 128,-1,11
 145 309 145 309 229 309 c 0,12,13
 262 309 262 309 304 306 c 1,14,-1
 304 328 l 2,15,16
 304 394 304 394 236 394 c 0,17,18
 193 394 193 394 87 362 c 1,19,20
 57 397 57 397 51 466 c 1,21,22
 98 486 98 486 162.5 498 c 128,-1,23
 227 510 227 510 277 510 c 0,24,25
 352 510 352 510 402.5 468.5 c 128,-1,26
 453 427 453 427 453 340 c 2,27,-1
 453 136 l 2,28,29
 453 89 453 89 481 69 c 1,0,1
226 96 m 0,30,31
 265 96 265 96 304 129 c 1,32,-1
 304 212 l 1,33,34
 282 213 282 213 244 213 c 0,35,36
 177 213 177 213 177 146 c 0,37,38
 177 125 177 125 190.5 110.5 c 128,-1,39
 204 96 204 96 226 96 c 0,30,31
149 578.5 m 128,-1,41
 111 615 111 615 111 668.5 c 128,-1,42
 111 722 111 722 149 758.5 c 128,-1,43
 187 795 187 795 249 795 c 128,-1,44
 311 795 311 795 349 758.5 c 128,-1,45
 387 722 387 722 387 668.5 c 128,-1,46
 387 615 387 615 349 578.5 c 128,-1,47
 311 542 311 542 249 542 c 128,-1,40
 187 542 187 542 149 578.5 c 128,-1,41
200 669 m 128,-1,49
 200 647 200 647 213.5 632.5 c 128,-1,50
 227 618 227 618 249 618 c 128,-1,51
 271 618 271 618 284.5 632.5 c 128,-1,52
 298 647 298 647 298 669 c 128,-1,53
 298 691 298 691 284.5 705.5 c 128,-1,54
 271 720 271 720 249 720 c 128,-1,55
 227 720 227 720 213.5 705.5 c 128,-1,48
 200 691 200 691 200 669 c 128,-1,49
EndSplineSet
EndChar

StartChar: ae
Encoding: 230 230 167
Width: 759
GlyphClass: 2
Flags: W
LayerCount: 2
Fore
SplineSet
715 201 m 1,0,-1
 453 201 l 1,1,2
 456 153 456 153 476 126.5 c 128,-1,3
 496 100 496 100 547.5 100 c 128,-1,4
 599 100 599 100 674 131 c 1,5,6
 706 99 706 99 714 42 c 1,7,8
 635 -15 635 -15 523 -15 c 128,-1,9
 411 -15 411 -15 355 58 c 1,10,11
 282 -15 282 -15 183 -15 c 0,12,13
 111 -15 111 -15 71.5 30.5 c 128,-1,14
 32 76 32 76 32 137 c 0,15,16
 32 221 32 221 88.5 265 c 128,-1,17
 145 309 145 309 229 309 c 0,18,19
 264 309 264 309 304 306 c 1,20,-1
 304 328 l 2,21,22
 304 394 304 394 237 394 c 0,23,24
 187 394 187 394 87 362 c 1,25,26
 57 397 57 397 51 466 c 1,27,28
 157 510 157 510 266 510 c 0,29,30
 345 510 345 510 390 462 c 1,31,32
 444 513 444 513 522 513 c 0,33,34
 618 513 618 513 672.5 453.5 c 128,-1,35
 727 394 727 394 727 301 c 0,36,37
 727 245 727 245 715 201 c 1,0,-1
226 96 m 0,38,39
 275 96 275 96 316 140 c 1,40,41
 306 175 306 175 305 211 c 1,42,43
 283 213 283 213 244 213 c 0,44,45
 177 213 177 213 177 146 c 0,46,47
 177 125 177 125 190.5 110.5 c 128,-1,48
 204 96 204 96 226 96 c 0,38,39
521 407 m 0,49,50
 487 407 487 407 471 382 c 128,-1,51
 455 357 455 357 452 304 c 1,52,-1
 589 304 l 1,53,-1
 589 315 l 2,54,55
 589 407 589 407 521 407 c 0,49,50
EndSplineSet
EndChar

StartChar: ccedilla
Encoding: 231 231 168
Width: 474
GlyphClass: 2
Flags: W
LayerCount: 2
Fore
SplineSet
187 -77 m 1,0,1
 198 -36 198 -36 208 -12 c 1,2,3
 123 2 123 2 77.5 71 c 128,-1,4
 32 140 32 140 32 248 c 0,5,6
 32 382 32 382 97 447.5 c 128,-1,7
 162 513 162 513 250.5 513 c 128,-1,8
 339 513 339 513 393 467 c 128,-1,9
 447 421 447 421 447 349 c 0,10,11
 447 313 447 313 427.5 294.5 c 128,-1,12
 408 276 408 276 372.5 276 c 128,-1,13
 337 276 337 276 313 281 c 1,14,15
 313 286 313 286 313 290 c 0,16,17
 313 346 313 346 301.5 374 c 128,-1,18
 290 402 290 402 252.5 402 c 128,-1,19
 215 402 215 402 199.5 365.5 c 128,-1,20
 184 329 184 329 184 249 c 128,-1,21
 184 169 184 169 206.5 135.5 c 128,-1,22
 229 102 229 102 276 102 c 128,-1,23
 323 102 323 102 386 145 c 1,24,25
 404 135 404 135 421 109.5 c 128,-1,26
 438 84 438 84 443 62 c 1,27,28
 384 0 384 0 285 -13 c 1,29,30
 280 -21 280 -21 276 -32 c 1,31,32
 322 -35 322 -35 349 -59.5 c 128,-1,33
 376 -84 376 -84 376 -127 c 128,-1,34
 376 -170 376 -170 338 -200.5 c 128,-1,35
 300 -231 300 -231 244 -231 c 128,-1,36
 188 -231 188 -231 155 -208 c 1,37,38
 157 -168 157 -168 179 -143 c 1,39,40
 201 -156 201 -156 226 -156 c 0,41,42
 264 -156 264 -156 264 -126 c 0,43,44
 264 -112 264 -112 254.5 -103.5 c 128,-1,45
 245 -95 245 -95 233 -95 c 128,-1,46
 221 -95 221 -95 209 -99 c 1,47,48
 194 -92 194 -92 187 -77 c 1,0,1
EndSplineSet
EndChar

StartChar: eacute
Encoding: 233 233 170
Width: 497
GlyphClass: 2
Flags: W
LayerCount: 2
Fore
SplineSet
448 201 m 1,0,-1
 183 201 l 1,1,2
 186 153 186 153 207 126.5 c 128,-1,3
 228 100 228 100 281 100 c 128,-1,4
 334 100 334 100 407 131 c 1,5,6
 438 101 438 101 448 42 c 1,7,8
 367 -15 367 -15 252 -15 c 0,9,10
 190 -15 190 -15 145 6.5 c 128,-1,11
 100 28 100 28 76 66 c 0,12,13
 32 139 32 139 32 253 c 128,-1,14
 32 367 32 367 87 440 c 128,-1,15
 142 513 142 513 246 513 c 128,-1,16
 350 513 350 513 405.5 453.5 c 128,-1,17
 461 394 461 394 461 301 c 0,18,19
 461 249 461 249 448 201 c 1,0,-1
306 381.5 m 128,-1,21
 289 407 289 407 253.5 407 c 128,-1,22
 218 407 218 407 201.5 382 c 128,-1,23
 185 357 185 357 182 304 c 1,24,-1
 323 304 l 1,25,-1
 323 316 l 2,26,20
 323 356 323 356 306 381.5 c 128,-1,21
164 598 m 1,27,-1
 318 765 l 1,28,29
 346 756 346 756 373.5 731 c 128,-1,30
 401 706 401 706 409 678 c 1,31,-1
 226 540 l 1,32,33
 207 546 207 546 189.5 562 c 128,-1,34
 172 578 172 578 164 598 c 1,27,-1
EndSplineSet
EndChar

StartChar: edieresis
Encoding: 235 235 172
Width: 497
GlyphClass: 2
Flags: W
LayerCount: 2
Fore
SplineSet
448 201 m 1,0,-1
 183 201 l 1,1,2
 186 153 186 153 207 126.5 c 128,-1,3
 228 100 228 100 281 100 c 128,-1,4
 334 100 334 100 407 131 c 1,5,6
 438 101 438 101 448 42 c 1,7,8
 367 -15 367 -15 252 -15 c 0,9,10
 190 -15 190 -15 145 6.5 c 128,-1,11
 100 28 100 28 76 66 c 0,12,13
 32 139 32 139 32 253 c 128,-1,14
 32 367 32 367 87 440 c 128,-1,15
 142 513 142 513 246 513 c 128,-1,16
 350 513 350 513 405.5 453.5 c 128,-1,17
 461 394 461 394 461 301 c 0,18,19
 461 249 461 249 448 201 c 1,0,-1
306 381.5 m 128,-1,21
 289 407 289 407 253.5 407 c 128,-1,22
 218 407 218 407 201.5 382 c 128,-1,23
 185 357 185 357 182 304 c 1,24,-1
 323 304 l 1,25,-1
 323 316 l 2,26,20
 323 356 323 356 306 381.5 c 128,-1,21
284 622 m 128,-1,28
 284 649 284 649 292 670 c 1,29,30
 319 686 319 686 355 686 c 128,-1,31
 391 686 391 686 417 670 c 1,32,33
 426 649 426 649 426 621 c 128,-1,34
 426 593 426 593 417 574 c 1,35,36
 391 558 391 558 355 558 c 128,-1,37
 319 558 319 558 292 574 c 1,38,27
 284 595 284 595 284 622 c 128,-1,28
84 622 m 128,-1,40
 84 649 84 649 93 670 c 1,41,42
 119 686 119 686 155 686 c 128,-1,43
 191 686 191 686 218 670 c 1,44,45
 226 649 226 649 226 621.5 c 128,-1,46
 226 594 226 594 218 574 c 1,47,48
 191 558 191 558 155 558 c 128,-1,49
 119 558 119 558 93 574 c 1,50,39
 84 595 84 595 84 622 c 128,-1,40
EndSplineSet
EndChar

StartChar: igrave
Encoding: 236 236 173
Width: 287
GlyphClass: 2
Flags: W
LayerCount: 2
Fore
SplineSet
227 387 m 2,0,-1
 227 0 l 1,1,2
 197 -6 197 -6 154 -6 c 128,-1,3
 111 -6 111 -6 78 0 c 1,4,-1
 78 336 l 2,5,6
 78 393 78 393 31 393 c 2,7,-1
 17 393 l 1,8,9
 11 418 11 418 11 445 c 128,-1,10
 11 472 11 472 17 497 c 1,11,12
 67 502 67 502 102 502 c 2,13,-1
 122 502 l 2,14,15
 171 502 171 502 199 471 c 128,-1,16
 227 440 227 440 227 387 c 2,0,-1
77 765 m 1,17,-1
 231 598 l 1,18,19
 224 578 224 578 206 562 c 128,-1,20
 188 546 188 546 169 540 c 1,21,-1
 -14 678 l 1,22,23
 -5 706 -5 706 22 731 c 128,-1,24
 49 756 49 756 77 765 c 1,17,-1
EndSplineSet
EndChar

StartChar: iacute
Encoding: 237 237 174
Width: 287
GlyphClass: 2
Flags: W
LayerCount: 2
Fore
SplineSet
227 387 m 2,0,-1
 227 0 l 1,1,2
 197 -6 197 -6 154 -6 c 128,-1,3
 111 -6 111 -6 78 0 c 1,4,-1
 78 336 l 2,5,6
 78 393 78 393 31 393 c 2,7,-1
 17 393 l 1,8,9
 11 418 11 418 11 445 c 128,-1,10
 11 472 11 472 17 497 c 1,11,12
 67 502 67 502 102 502 c 2,13,-1
 122 502 l 2,14,15
 171 502 171 502 199 471 c 128,-1,16
 227 440 227 440 227 387 c 2,0,-1
40 598 m 1,17,-1
 194 765 l 1,18,19
 222 756 222 756 249.5 731 c 128,-1,20
 277 706 277 706 285 678 c 1,21,-1
 102 540 l 1,22,23
 83 546 83 546 65.5 562 c 128,-1,24
 48 578 48 578 40 598 c 1,17,-1
EndSplineSet
EndChar

StartChar: icircumflex
Encoding: 238 238 175
Width: 287
GlyphClass: 2
Flags: W
LayerCount: 2
Fore
SplineSet
227 387 m 2,0,-1
 227 0 l 1,1,2
 197 -6 197 -6 154 -6 c 128,-1,3
 111 -6 111 -6 78 0 c 1,4,-1
 78 336 l 2,5,6
 78 393 78 393 31 393 c 2,7,-1
 17 393 l 1,8,9
 11 418 11 418 11 445 c 128,-1,10
 11 472 11 472 17 497 c 1,11,12
 67 502 67 502 102 502 c 2,13,-1
 122 502 l 2,14,15
 171 502 171 502 199 471 c 128,-1,16
 227 440 227 440 227 387 c 2,0,-1
227 551 m 1,17,-1
 135 638 l 1,18,-1
 38 544 l 1,19,20
 -5 561 -5 561 -28 601 c 1,21,-1
 77 737 l 1,22,23
 101 745 101 745 118 745 c 0,24,25
 171 745 171 745 199 737 c 1,26,-1
 292 612 l 1,27,28
 284 591 284 591 264.5 574 c 128,-1,29
 245 557 245 557 227 551 c 1,17,-1
EndSplineSet
EndChar

StartChar: idieresis
Encoding: 239 239 176
Width: 287
GlyphClass: 2
Flags: W
LayerCount: 2
Fore
SplineSet
227 387 m 2,0,-1
 227 0 l 1,1,2
 197 -6 197 -6 154 -6 c 128,-1,3
 111 -6 111 -6 78 0 c 1,4,-1
 78 336 l 2,5,6
 78 393 78 393 31 393 c 2,7,-1
 17 393 l 1,8,9
 11 418 11 418 11 445 c 128,-1,10
 11 472 11 472 17 497 c 1,11,12
 67 502 67 502 102 502 c 2,13,-1
 122 502 l 2,14,15
 171 502 171 502 199 471 c 128,-1,16
 227 440 227 440 227 387 c 2,0,-1
160 622 m 128,-1,18
 160 649 160 649 168 670 c 1,19,20
 195 686 195 686 231 686 c 128,-1,21
 267 686 267 686 293 670 c 1,22,23
 302 649 302 649 302 621 c 128,-1,24
 302 593 302 593 293 574 c 1,25,26
 267 558 267 558 231 558 c 128,-1,27
 195 558 195 558 168 574 c 1,28,17
 160 595 160 595 160 622 c 128,-1,18
-40 622 m 128,-1,30
 -40 649 -40 649 -31 670 c 1,31,32
 -5 686 -5 686 31 686 c 128,-1,33
 67 686 67 686 94 670 c 1,34,35
 102 649 102 649 102 621.5 c 128,-1,36
 102 594 102 594 94 574 c 1,37,38
 67 558 67 558 31 558 c 128,-1,39
 -5 558 -5 558 -31 574 c 1,40,29
 -40 595 -40 595 -40 622 c 128,-1,30
EndSplineSet
EndChar

StartChar: eth
Encoding: 240 240 177
Width: 519
GlyphClass: 2
Flags: W
LayerCount: 2
Fore
SplineSet
88 571 m 1,0,-1
 161 621 l 1,1,2
 130 643 130 643 97 662 c 1,3,4
 100 688 100 688 117.5 715 c 128,-1,5
 135 742 135 742 155 752 c 1,6,7
 214 727 214 727 265 693 c 1,8,-1
 350 751 l 1,9,10
 387 725 387 725 398 682 c 1,11,-1
 334 638 l 1,12,13
 488 490 488 490 488 249 c 0,14,15
 488 115 488 115 416 44 c 0,16,17
 357 -15 357 -15 259 -15 c 128,-1,18
 161 -15 161 -15 102 44 c 0,19,20
 31 114 31 114 31 241 c 128,-1,21
 31 368 31 368 103 434 c 0,22,23
 162 487 162 487 247 487 c 0,24,25
 269 487 269 487 290 479 c 1,26,27
 272 523 272 523 228 565 c 1,28,-1
 136 502 l 1,29,30
 98 528 98 528 88 571 c 1,0,-1
320 135 m 128,-1,32
 336 176 336 176 336 247.5 c 128,-1,33
 336 319 336 319 325 362 c 1,34,35
 290 381 290 381 261 381 c 0,36,37
 183 381 183 381 183 240 c 0,38,39
 183 173 183 173 199 133.5 c 128,-1,40
 215 94 215 94 259.5 94 c 128,-1,31
 304 94 304 94 320 135 c 128,-1,32
EndSplineSet
EndChar

StartChar: ntilde
Encoding: 241 241 178
Width: 547
GlyphClass: 2
Flags: W
LayerCount: 2
Fore
SplineSet
487 331 m 2,0,-1
 487 123 l 2,1,2
 487 59 487 59 511 24 c 1,3,4
 472 -8 472 -8 423.5 -8 c 128,-1,5
 375 -8 375 -8 356.5 15 c 128,-1,6
 338 38 338 38 338 85 c 2,7,-1
 338 303 l 2,8,9
 338 340 338 340 328 357 c 128,-1,10
 318 374 318 374 293 374 c 0,11,12
 250 374 250 374 211 335 c 1,13,-1
 211 0 l 1,14,15
 180 -6 180 -6 137.5 -6 c 128,-1,16
 95 -6 95 -6 62 0 c 1,17,-1
 62 498 l 1,18,-1
 69 505 l 1,19,-1
 125 505 l 2,20,21
 187 505 187 505 204 445 c 1,22,23
 277 507 277 507 346 507 c 128,-1,24
 415 507 415 507 451 459 c 128,-1,25
 487 411 487 411 487 331 c 2,0,-1
282 572 m 2,26,-1
 237 595 l 2,27,28
 221 604 221 604 205.5 604 c 128,-1,29
 190 604 190 604 172 580 c 1,30,-1
 163 567 l 1,31,32
 142 567 142 567 121 580 c 128,-1,33
 100 593 100 593 93 612 c 1,34,-1
 101 631 l 2,35,36
 118 670 118 670 148 693.5 c 128,-1,37
 178 717 178 717 212 717 c 128,-1,38
 246 717 246 717 278 700 c 2,39,-1
 323 677 l 2,40,41
 339 668 339 668 355 668 c 128,-1,42
 371 668 371 668 388 692 c 2,43,-1
 397 704 l 1,44,45
 418 704 418 704 438.5 691.5 c 128,-1,46
 459 679 459 679 467 660 c 1,47,-1
 459 640 l 1,48,49
 442 601 442 601 411.5 577.5 c 128,-1,50
 381 554 381 554 348.5 554 c 128,-1,51
 316 554 316 554 282 572 c 2,26,-1
EndSplineSet
EndChar

StartChar: oacute
Encoding: 243 243 180
Width: 522
GlyphClass: 2
Flags: W
LayerCount: 2
Fore
SplineSet
418 455 m 0,0,1
 490 383 490 383 490 249.5 c 128,-1,2
 490 116 490 116 418 44 c 0,3,4
 359 -15 359 -15 261 -15 c 128,-1,5
 163 -15 163 -15 104 44 c 0,6,7
 32 116 32 116 32 249.5 c 128,-1,8
 32 383 32 383 104 455 c 0,9,10
 163 513 163 513 261 513 c 128,-1,11
 359 513 359 513 418 455 c 0,0,1
185 249 m 128,-1,13
 185 176 185 176 200.5 136.5 c 128,-1,14
 216 97 216 97 261 97 c 128,-1,15
 306 97 306 97 321.5 136.5 c 128,-1,16
 337 176 337 176 337 249 c 128,-1,17
 337 322 337 322 321.5 362 c 128,-1,18
 306 402 306 402 261 402 c 128,-1,19
 216 402 216 402 200.5 362 c 128,-1,12
 185 322 185 322 185 249 c 128,-1,13
169 598 m 1,20,-1
 323 765 l 1,21,22
 351 756 351 756 378.5 731 c 128,-1,23
 406 706 406 706 414 678 c 1,24,-1
 231 540 l 1,25,26
 212 546 212 546 194.5 562 c 128,-1,27
 177 578 177 578 169 598 c 1,20,-1
EndSplineSet
EndChar

StartChar: otilde
Encoding: 245 245 182
Width: 522
GlyphClass: 2
Flags: W
LayerCount: 2
Fore
SplineSet
418 455 m 0,0,1
 490 383 490 383 490 249.5 c 128,-1,2
 490 116 490 116 418 44 c 0,3,4
 359 -15 359 -15 261 -15 c 128,-1,5
 163 -15 163 -15 104 44 c 0,6,7
 32 116 32 116 32 249.5 c 128,-1,8
 32 383 32 383 104 455 c 0,9,10
 163 513 163 513 261 513 c 128,-1,11
 359 513 359 513 418 455 c 0,0,1
185 249 m 128,-1,13
 185 176 185 176 200.5 136.5 c 128,-1,14
 216 97 216 97 261 97 c 128,-1,15
 306 97 306 97 321.5 136.5 c 128,-1,16
 337 176 337 176 337 249 c 128,-1,17
 337 322 337 322 321.5 362 c 128,-1,18
 306 402 306 402 261 402 c 128,-1,19
 216 402 216 402 200.5 362 c 128,-1,12
 185 322 185 322 185 249 c 128,-1,13
263 572 m 2,20,-1
 218 595 l 2,21,22
 202 604 202 604 186.5 604 c 128,-1,23
 171 604 171 604 153 580 c 1,24,-1
 144 567 l 1,25,26
 123 567 123 567 102 580 c 128,-1,27
 81 593 81 593 74 612 c 1,28,-1
 82 631 l 2,29,30
 99 670 99 670 129 693.5 c 128,-1,31
 159 717 159 717 193 717 c 128,-1,32
 227 717 227 717 259 700 c 2,33,-1
 304 677 l 2,34,35
 320 668 320 668 336 668 c 128,-1,36
 352 668 352 668 369 692 c 2,37,-1
 378 704 l 1,38,39
 399 704 399 704 419.5 691.5 c 128,-1,40
 440 679 440 679 448 660 c 1,41,-1
 440 640 l 1,42,43
 423 601 423 601 392.5 577.5 c 128,-1,44
 362 554 362 554 329.5 554 c 128,-1,45
 297 554 297 554 263 572 c 2,20,-1
EndSplineSet
EndChar

StartChar: divide
Encoding: 247 247 184
Width: 530
GlyphClass: 2
Flags: W
LayerCount: 2
Fore
SplineSet
190 477 m 128,-1,1
 190 505 190 505 200 528 c 1,2,3
 227 543 227 543 266.5 543 c 128,-1,4
 306 543 306 543 329 528 c 1,5,6
 340 506 340 506 340 477 c 128,-1,7
 340 448 340 448 329 426 c 1,8,9
 307 412 307 412 265 412 c 128,-1,10
 223 412 223 412 200 426 c 1,11,0
 190 449 190 449 190 477 c 128,-1,1
200 68 m 1,12,13
 190 91 190 91 190 119.5 c 128,-1,14
 190 148 190 148 200 171 c 1,15,16
 228 185 228 185 266 185 c 128,-1,17
 304 185 304 185 329 171 c 1,18,19
 340 149 340 149 340 119.5 c 128,-1,20
 340 90 340 90 329 68 c 1,21,22
 304 54 304 54 263.5 54 c 128,-1,23
 223 54 223 54 200 68 c 1,12,13
477 239 m 1,24,-1
 53 239 l 1,25,26
 47 263 47 263 47 298.5 c 128,-1,27
 47 334 47 334 53 359 c 1,28,-1
 477 359 l 1,29,30
 483 334 483 334 483 298.5 c 128,-1,31
 483 263 483 263 477 239 c 1,24,-1
EndSplineSet
EndChar

StartChar: oslash
Encoding: 248 248 185
Width: 525
GlyphClass: 2
Flags: W
LayerCount: 2
Fore
SplineSet
420 455 m 1,0,1
 491 385 491 385 491 248.5 c 128,-1,2
 491 112 491 112 420 44 c 1,3,4
 362 -15 362 -15 262 -15 c 0,5,6
 212 -15 212 -15 176 -1 c 1,7,-1
 142 -60 l 1,8,9
 94 -50 94 -50 67 -18 c 1,10,-1
 103 44 l 1,11,12
 34 113 34 113 34 249 c 128,-1,13
 34 385 34 385 104 455 c 0,14,15
 163 513 163 513 262 513 c 0,16,17
 309 513 309 513 347 500 c 1,18,-1
 381 559 l 1,19,20
 429 547 429 547 456 518 c 1,21,-1
 420 455 l 1,0,1
353 250 m 0,22,23
 353 294 353 294 348 321 c 1,24,-1
 230 97 l 1,25,26
 245 91 245 91 263 91 c 0,27,28
 353 91 353 91 353 250 c 0,22,23
178 328 m 128,-1,30
 172 296 172 296 172 251 c 128,-1,31
 172 206 172 206 177 179 c 1,32,-1
 294 402 l 1,33,34
 280 408 280 408 263 408 c 0,35,36
 227 408 227 408 205.5 384 c 128,-1,29
 184 360 184 360 178 328 c 128,-1,30
EndSplineSet
EndChar

StartChar: uacute
Encoding: 250 250 187
Width: 549
GlyphClass: 2
Flags: W
LayerCount: 2
Fore
SplineSet
60 167 m 2,0,-1
 60 376 l 2,1,2
 60 439 60 439 36 474 c 1,3,4
 73 506 73 506 122.5 506 c 128,-1,5
 172 506 172 506 190.5 483 c 128,-1,6
 209 460 209 460 209 414 c 2,7,-1
 209 195 l 2,8,9
 209 158 209 158 219 141.5 c 128,-1,10
 229 125 229 125 254 125 c 0,11,12
 297 125 297 125 335 162 c 1,13,-1
 335 498 l 1,14,15
 366 504 366 504 409 504 c 128,-1,16
 452 504 452 504 485 498 c 1,17,-1
 485 142 l 2,18,19
 485 87 485 87 513 67 c 1,20,21
 509 47 509 47 495 25.5 c 128,-1,22
 481 4 481 4 466 -8 c 1,23,24
 386 -5 386 -5 352 62 c 1,25,26
 276 -9 276 -9 204 -9 c 128,-1,27
 132 -9 132 -9 96 39.5 c 128,-1,28
 60 88 60 88 60 167 c 2,0,-1
174 598 m 1,29,-1
 328 765 l 1,30,31
 356 756 356 756 383.5 731 c 128,-1,32
 411 706 411 706 419 678 c 1,33,-1
 236 540 l 1,34,35
 217 546 217 546 199.5 562 c 128,-1,36
 182 578 182 578 174 598 c 1,29,-1
EndSplineSet
EndChar

StartChar: udieresis
Encoding: 252 252 189
Width: 549
GlyphClass: 2
Flags: W
LayerCount: 2
Fore
SplineSet
60 167 m 2,0,-1
 60 376 l 2,1,2
 60 439 60 439 36 474 c 1,3,4
 73 506 73 506 122.5 506 c 128,-1,5
 172 506 172 506 190.5 483 c 128,-1,6
 209 460 209 460 209 414 c 2,7,-1
 209 195 l 2,8,9
 209 158 209 158 219 141.5 c 128,-1,10
 229 125 229 125 254 125 c 0,11,12
 297 125 297 125 335 162 c 1,13,-1
 335 498 l 1,14,15
 366 504 366 504 409 504 c 128,-1,16
 452 504 452 504 485 498 c 1,17,-1
 485 142 l 2,18,19
 485 87 485 87 513 67 c 1,20,21
 509 47 509 47 495 25.5 c 128,-1,22
 481 4 481 4 466 -8 c 1,23,24
 386 -5 386 -5 352 62 c 1,25,26
 276 -9 276 -9 204 -9 c 128,-1,27
 132 -9 132 -9 96 39.5 c 128,-1,28
 60 88 60 88 60 167 c 2,0,-1
295 622 m 128,-1,30
 295 649 295 649 303 670 c 1,31,32
 330 686 330 686 366 686 c 128,-1,33
 402 686 402 686 428 670 c 1,34,35
 437 649 437 649 437 621 c 128,-1,36
 437 593 437 593 428 574 c 1,37,38
 402 558 402 558 366 558 c 128,-1,39
 330 558 330 558 303 574 c 1,40,29
 295 595 295 595 295 622 c 128,-1,30
95 622 m 128,-1,42
 95 649 95 649 104 670 c 1,43,44
 130 686 130 686 166 686 c 128,-1,45
 202 686 202 686 229 670 c 1,46,47
 237 649 237 649 237 621.5 c 128,-1,48
 237 594 237 594 229 574 c 1,49,50
 202 558 202 558 166 558 c 128,-1,51
 130 558 130 558 104 574 c 1,52,41
 95 595 95 595 95 622 c 128,-1,42
EndSplineSet
EndChar

StartChar: thorn
Encoding: 254 254 191
Width: 533
GlyphClass: 2
Flags: W
LayerCount: 2
Fore
SplineSet
500 264 m 0,0,1
 500 130 500 130 442.5 60 c 128,-1,2
 385 -10 385 -10 305 -10 c 0,3,4
 257 -10 257 -10 206 12 c 1,5,-1
 206 -126 l 2,6,7
 206 -175 206 -175 187.5 -195.5 c 128,-1,8
 169 -216 169 -216 125 -216 c 2,9,-1
 69 -216 l 1,10,-1
 62 -209 l 1,11,-1
 62 729 l 1,12,-1
 69 736 l 1,13,-1
 125 736 l 2,14,15
 169 736 169 736 187.5 715.5 c 128,-1,16
 206 695 206 695 206 646 c 2,17,-1
 206 467 l 1,18,19
 257 508 257 508 321 508 c 0,20,21
 403 508 403 508 451.5 439.5 c 128,-1,22
 500 371 500 371 500 264 c 0,0,1
283 389 m 0,23,24
 239 389 239 389 206 347 c 1,25,-1
 206 126 l 1,26,27
 248 101 248 101 275 101 c 0,28,29
 348 101 348 101 348 254 c 0,30,31
 348 322 348 322 330 355.5 c 128,-1,32
 312 389 312 389 283 389 c 0,23,24
EndSplineSet
EndChar

StartChar: ydieresis
Encoding: 255 255 192
Width: 493
GlyphClass: 2
Flags: W
LayerCount: 2
Fore
SplineSet
487 483 m 1,0,-1
 362 14 l 2,1,2
 331 -103 331 -103 278.5 -161 c 128,-1,3
 226 -219 226 -219 120 -219 c 0,4,5
 60 -219 60 -219 2 -199 c 1,6,7
 2 -194 2 -194 2 -180.5 c 128,-1,8
 2 -167 2 -167 9.5 -138 c 128,-1,9
 17 -109 17 -109 32 -93 c 1,10,11
 84 -108 84 -108 120 -108 c 0,12,13
 195 -108 195 -108 221 -21 c 1,14,-1
 225 -7 l 1,15,16
 141 -5 141 -5 125 55 c 2,17,-1
 6 487 l 1,18,19
 50 507 50 507 88.5 507 c 128,-1,20
 127 507 127 507 144 493 c 128,-1,21
 161 479 161 479 170 443 c 2,22,-1
 220 245 l 2,23,24
 228 216 228 216 244 112 c 0,25,26
 245 105 245 105 253 105 c 1,27,-1
 343 498 l 1,28,29
 368 504 368 504 408.5 504 c 128,-1,30
 449 504 449 504 482 493 c 1,31,-1
 487 483 l 1,0,-1
274 622 m 128,-1,33
 274 649 274 649 282 670 c 1,34,35
 309 686 309 686 345 686 c 128,-1,36
 381 686 381 686 407 670 c 1,37,38
 416 649 416 649 416 621 c 128,-1,39
 416 593 416 593 407 574 c 1,40,41
 381 558 381 558 345 558 c 128,-1,42
 309 558 309 558 282 574 c 1,43,32
 274 595 274 595 274 622 c 128,-1,33
74 622 m 128,-1,45
 74 649 74 649 83 670 c 1,46,47
 109 686 109 686 145 686 c 128,-1,48
 181 686 181 686 208 670 c 1,49,50
 216 649 216 649 216 621.5 c 128,-1,51
 216 594 216 594 208 574 c 1,52,53
 181 558 181 558 145 558 c 128,-1,54
 109 558 109 558 83 574 c 1,55,44
 74 595 74 595 74 622 c 128,-1,45
EndSplineSet
EndChar

StartChar: Aogonek
Encoding: 260 260 193
Width: 634
GlyphClass: 2
Flags: W
LayerCount: 2
Fore
SplineSet
10 12 m 1,0,-1
 232 683 l 1,1,2
 268 689 268 689 321 689 c 128,-1,3
 374 689 374 689 408 682 c 1,4,-1
 624 10 l 1,5,-1
 615 5 l 2,6,7
 539 -37 539 -37 539 -88 c 0,8,9
 539 -125 539 -125 581 -125 c 0,10,11
 604 -125 604 -125 632 -111 c 1,12,13
 662 -137 662 -137 663 -178 c 1,14,15
 618 -218 618 -218 556.5 -218 c 128,-1,16
 495 -218 495 -218 462 -191 c 128,-1,17
 429 -164 429 -164 429 -119 c 0,18,19
 429 -57 429 -57 493 -1 c 1,20,21
 462 14 462 14 446 74 c 1,22,-1
 425 147 l 1,23,24
 411 146 411 146 382 146 c 2,25,-1
 240 146 l 2,26,27
 212 146 212 146 198 147 c 1,28,-1
 154 -1 l 1,29,30
 131 -7 131 -7 87 -7 c 128,-1,31
 43 -7 43 -7 16 4 c 1,32,-1
 10 12 l 1,0,-1
233 266 m 1,33,-1
 275 267 l 1,34,-1
 352 267 l 2,35,36
 357 267 357 267 370 266.5 c 128,-1,37
 383 266 383 266 390 266 c 1,38,-1
 314 542 l 1,39,-1
 309 542 l 1,40,41
 300 493 300 493 261 358 c 1,42,-1
 233 266 l 1,33,-1
EndSplineSet
EndChar

StartChar: aogonek
Encoding: 261 261 194
Width: 541
GlyphClass: 2
Flags: W
LayerCount: 2
Fore
SplineSet
477 -111 m 1,0,1
 506 -136 506 -136 509 -178 c 1,2,3
 464 -218 464 -218 402 -218 c 128,-1,4
 340 -218 340 -218 307.5 -191 c 128,-1,5
 275 -164 275 -164 275 -119 c 0,6,7
 275 -44 275 -44 359 18 c 1,8,9
 342 30 342 30 331 46 c 1,10,11
 264 -15 264 -15 187.5 -15 c 128,-1,12
 111 -15 111 -15 71.5 31 c 128,-1,13
 32 77 32 77 32 136 c 0,14,15
 32 221 32 221 88.5 265 c 128,-1,16
 145 309 145 309 229 309 c 0,17,18
 262 309 262 309 304 306 c 1,19,-1
 304 328 l 2,20,21
 304 394 304 394 236 394 c 0,22,23
 193 394 193 394 87 362 c 1,24,25
 57 397 57 397 51 466 c 1,26,27
 98 486 98 486 162.5 498 c 128,-1,28
 227 510 227 510 277 510 c 0,29,30
 352 510 352 510 402.5 468.5 c 128,-1,31
 453 427 453 427 453 340 c 2,32,-1
 453 136 l 2,33,34
 453 92 453 92 484 69 c 1,35,36
 472 29 472 29 428 -13 c 128,-1,37
 384 -55 384 -55 384 -88 c 0,38,39
 384 -106 384 -106 396 -115.5 c 128,-1,40
 408 -125 408 -125 429.5 -125 c 128,-1,41
 451 -125 451 -125 477 -111 c 1,0,1
226 96 m 0,42,43
 265 96 265 96 304 129 c 1,44,-1
 304 212 l 1,45,46
 282 213 282 213 244 213 c 0,47,48
 177 213 177 213 177 146 c 0,49,50
 177 125 177 125 190.5 110.5 c 128,-1,51
 204 96 204 96 226 96 c 0,42,43
EndSplineSet
EndChar

StartChar: Cacute
Encoding: 262 262 195
Width: 608
GlyphClass: 2
Flags: W
LayerCount: 2
Fore
SplineSet
437 416 m 1,0,1
 437 421 437 421 437 426 c 0,2,3
 437 489 437 489 411.5 533 c 128,-1,4
 386 577 386 577 322 577 c 128,-1,5
 258 577 258 577 228 517 c 128,-1,6
 198 457 198 457 198 343.5 c 128,-1,7
 198 230 198 230 235 174 c 128,-1,8
 272 118 272 118 342.5 118 c 128,-1,9
 413 118 413 118 510 189 c 1,10,11
 533 173 533 173 554.5 144.5 c 128,-1,12
 576 116 576 116 581 91 c 1,13,14
 536 46 536 46 463 15.5 c 128,-1,15
 390 -15 390 -15 320.5 -15 c 128,-1,16
 251 -15 251 -15 203.5 5.5 c 128,-1,17
 156 26 156 26 125.5 59.5 c 128,-1,18
 95 93 95 93 75 140 c 0,19,20
 38 226 38 226 38 339 c 0,21,22
 38 518 38 518 119.5 608 c 128,-1,23
 201 698 201 698 321 698 c 128,-1,24
 441 698 441 698 511.5 639 c 128,-1,25
 582 580 582 580 582 492 c 0,26,27
 582 408 582 408 495 408 c 0,28,29
 467 408 467 408 437 416 c 1,0,1
205 800 m 1,30,-1
 426 935 l 1,31,32
 446 920 446 920 464 886.5 c 128,-1,33
 482 853 482 853 485 822 c 1,34,-1
 247 728 l 1,35,36
 232 737 232 737 219.5 758.5 c 128,-1,37
 207 780 207 780 205 800 c 1,30,-1
EndSplineSet
EndChar

StartChar: Ccaron
Encoding: 268 268 197
Width: 608
GlyphClass: 2
Flags: W
LayerCount: 2
Fore
SplineSet
437 416 m 1,0,1
 437 421 437 421 437 426 c 0,2,3
 437 489 437 489 411.5 533 c 128,-1,4
 386 577 386 577 322 577 c 128,-1,5
 258 577 258 577 228 517 c 128,-1,6
 198 457 198 457 198 343.5 c 128,-1,7
 198 230 198 230 235 174 c 128,-1,8
 272 118 272 118 342.5 118 c 128,-1,9
 413 118 413 118 510 189 c 1,10,11
 533 173 533 173 554.5 144.5 c 128,-1,12
 576 116 576 116 581 91 c 1,13,14
 536 46 536 46 463 15.5 c 128,-1,15
 390 -15 390 -15 320.5 -15 c 128,-1,16
 251 -15 251 -15 203.5 5.5 c 128,-1,17
 156 26 156 26 125.5 59.5 c 128,-1,18
 95 93 95 93 75 140 c 0,19,20
 38 226 38 226 38 339 c 0,21,22
 38 518 38 518 119.5 608 c 128,-1,23
 201 698 201 698 321 698 c 128,-1,24
 441 698 441 698 511.5 639 c 128,-1,25
 582 580 582 580 582 492 c 0,26,27
 582 408 582 408 495 408 c 0,28,29
 467 408 467 408 437 416 c 1,0,1
204 916 m 1,30,-1
 321 842 l 1,31,-1
 441 928 l 1,32,33
 458 922 458 922 478 904 c 128,-1,34
 498 886 498 886 503 867 c 1,35,-1
 384 746 l 1,36,37
 353 738 353 738 321.5 738 c 128,-1,38
 290 738 290 738 258 745 c 1,39,-1
 145 855 l 1,40,41
 151 876 151 876 169 893 c 128,-1,42
 187 910 187 910 204 916 c 1,30,-1
EndSplineSet
EndChar

StartChar: ccaron
Encoding: 269 269 198
Width: 474
GlyphClass: 2
Flags: W
LayerCount: 2
Fore
SplineSet
313 281 m 1,0,1
 313 286 313 286 313 290 c 0,2,3
 313 346 313 346 301.5 374 c 128,-1,4
 290 402 290 402 252.5 402 c 128,-1,5
 215 402 215 402 199.5 365.5 c 128,-1,6
 184 329 184 329 184 249 c 128,-1,7
 184 169 184 169 206.5 135.5 c 128,-1,8
 229 102 229 102 276 102 c 128,-1,9
 323 102 323 102 386 145 c 1,10,11
 404 135 404 135 421 109.5 c 128,-1,12
 438 84 438 84 443 62 c 1,13,14
 409 27 409 27 357 6 c 128,-1,15
 305 -15 305 -15 250 -15 c 0,16,17
 145 -15 145 -15 88.5 56 c 128,-1,18
 32 127 32 127 32 254.5 c 128,-1,19
 32 382 32 382 97 447.5 c 128,-1,20
 162 513 162 513 250.5 513 c 128,-1,21
 339 513 339 513 393 467 c 128,-1,22
 447 421 447 421 447 349 c 0,23,24
 447 313 447 313 427.5 294.5 c 128,-1,25
 408 276 408 276 372.5 276 c 128,-1,26
 337 276 337 276 313 281 c 1,0,1
156 748 m 1,27,-1
 248 661 l 1,28,-1
 347 756 l 1,29,30
 391 741 391 741 413 699 c 1,31,-1
 307 562 l 1,32,33
 281 553 281 553 264 553 c 128,-1,34
 247 553 247 553 229 553.5 c 128,-1,35
 211 554 211 554 184 562 c 1,36,-1
 91 687 l 1,37,38
 101 708 101 708 120.5 725 c 128,-1,39
 140 742 140 742 156 748 c 1,27,-1
EndSplineSet
EndChar

StartChar: Dcaron
Encoding: 270 270 199
Width: 665
GlyphClass: 2
Flags: W
LayerCount: 2
Fore
SplineSet
602.5 514.5 m 128,-1,1
 626 442 626 442 626 341.5 c 128,-1,2
 626 241 626 241 603 168 c 128,-1,3
 580 95 580 95 514 44 c 0,4,5
 483 19 483 19 431 6.5 c 128,-1,6
 379 -6 379 -6 319 -6 c 128,-1,7
 259 -6 259 -6 85 -2 c 1,8,-1
 78 5 l 1,9,-1
 78 678 l 1,10,-1
 85 685 l 1,11,12
 200 689 200 689 332 689 c 0,13,14
 379 689 379 689 431 676 c 128,-1,15
 483 663 483 663 514 638 c 0,16,0
 579 587 579 587 602.5 514.5 c 128,-1,1
254 114 m 2,17,-1
 332 113 l 1,18,19
 469 113 469 113 469 341 c 128,-1,20
 469 569 469 569 332 569 c 1,21,22
 332 569 332 569 230 570 c 1,23,-1
 230 113 l 1,24,25
 231 114 231 114 254 114 c 2,17,-1
197 915 m 1,26,-1
 314 841 l 1,27,-1
 434 927 l 1,28,29
 451 921 451 921 471 903 c 128,-1,30
 491 885 491 885 496 866 c 1,31,-1
 377 745 l 1,32,33
 346 737 346 737 314.5 737 c 128,-1,34
 283 737 283 737 251 744 c 1,35,-1
 138 854 l 1,36,37
 144 875 144 875 162 892 c 128,-1,38
 180 909 180 909 197 915 c 1,26,-1
EndSplineSet
EndChar

StartChar: dcaron
Encoding: 271 271 200
Width: 655
GlyphClass: 2
Flags: W
LayerCount: 2
Fore
SplineSet
78.5 55 m 128,-1,1
 33 125 33 125 33 246.5 c 128,-1,2
 33 368 33 368 90.5 438 c 128,-1,3
 148 508 148 508 233 508 c 0,4,5
 278 508 278 508 328 485 c 1,6,-1
 328 729 l 1,7,-1
 335 736 l 1,8,-1
 393 736 l 2,9,10
 437 736 437 736 455 716 c 128,-1,11
 473 696 473 696 473 646 c 2,12,-1
 473 144 l 2,13,14
 473 90 473 90 501 69 c 1,15,16
 497 49 497 49 483.5 26.5 c 128,-1,17
 470 4 470 4 455 -8 c 1,18,19
 385 -5 385 -5 351 48 c 1,20,21
 293 -15 293 -15 208.5 -15 c 128,-1,0
 124 -15 124 -15 78.5 55 c 128,-1,1
251 105 m 0,22,23
 295 105 295 105 328 148 c 1,24,-1
 328 371 l 1,25,26
 285 397 285 397 258 397 c 0,27,28
 186 397 186 397 186 242 c 0,29,30
 186 173 186 173 204 139 c 128,-1,31
 222 105 222 105 251 105 c 0,22,23
615 556 m 1,32,33
 602 551 602 551 577.5 551 c 128,-1,34
 553 551 553 551 532 562 c 1,35,-1
 543 794 l 1,36,37
 559 798 559 798 575 798 c 0,38,39
 636 798 636 798 668 775 c 1,40,-1
 615 556 l 1,32,33
EndSplineSet
EndChar

StartChar: Eogonek
Encoding: 280 280 201
Width: 573
GlyphClass: 2
Flags: W
LayerCount: 2
Fore
SplineSet
228 193 m 1,0,-1
 227 124 l 1,1,-1
 227 123 l 1,2,3
 271 125 271 125 300 125 c 2,4,-1
 536 125 l 1,5,6
 536 89 536 89 533 71 c 0,7,8
 524 21 524 21 483 6 c 1,9,10
 400 -30 400 -30 400 -88 c 0,11,12
 400 -125 400 -125 442 -125 c 0,13,14
 467 -125 467 -125 493 -111 c 1,15,16
 522 -136 522 -136 525 -178 c 1,17,18
 478 -218 478 -218 416.5 -218 c 128,-1,19
 355 -218 355 -218 322.5 -191 c 128,-1,20
 290 -164 290 -164 290 -118 c 0,21,22
 290 -52 290 -52 351 -3 c 1,23,-1
 165 -3 l 2,24,25
 124 -3 124 -3 100.5 21 c 128,-1,26
 77 45 77 45 77 87 c 2,27,-1
 77 676 l 1,28,-1
 84 683 l 1,29,-1
 511 683 l 1,30,31
 516 660 516 660 516 625 c 128,-1,32
 516 590 516 590 504 555 c 1,33,-1
 227 555 l 1,34,35
 227 555 227 555 228 484 c 1,36,-1
 228 405 l 1,37,38
 254 406 254 406 295 406 c 2,39,-1
 452 406 l 1,40,41
 461 382 461 382 461 344.5 c 128,-1,42
 461 307 461 307 452 281 c 1,43,-1
 228 281 l 1,44,-1
 228 193 l 1,0,-1
EndSplineSet
EndChar

StartChar: eogonek
Encoding: 281 281 202
Width: 497
GlyphClass: 2
Flags: W
LayerCount: 2
Fore
SplineSet
448 201 m 1,0,-1
 183 201 l 1,1,2
 186 153 186 153 207 126.5 c 128,-1,3
 228 100 228 100 281 100 c 128,-1,4
 334 100 334 100 407 131 c 1,5,6
 438 101 438 101 448 42 c 1,7,8
 421 22 421 22 387 10 c 1,9,10
 322 -38 322 -38 322 -88 c 0,11,12
 322 -106 322 -106 334 -115.5 c 128,-1,13
 346 -125 346 -125 367 -125 c 128,-1,14
 388 -125 388 -125 416 -111 c 1,15,16
 446 -137 446 -137 447 -178 c 1,17,18
 402 -218 402 -218 340 -218 c 128,-1,19
 278 -218 278 -218 245.5 -190.5 c 128,-1,20
 213 -163 213 -163 213 -113.5 c 128,-1,21
 213 -64 213 -64 267 -15 c 1,22,-1
 252 -15 l 2,23,24
 190 -15 190 -15 145 6.5 c 128,-1,25
 100 28 100 28 76 66 c 0,26,27
 32 139 32 139 32 253 c 128,-1,28
 32 367 32 367 87 440 c 128,-1,29
 142 513 142 513 246 513 c 128,-1,30
 350 513 350 513 405.5 453.5 c 128,-1,31
 461 394 461 394 461 301 c 0,32,33
 461 249 461 249 448 201 c 1,0,-1
306 381.5 m 128,-1,35
 289 407 289 407 253.5 407 c 128,-1,36
 218 407 218 407 201.5 382 c 128,-1,37
 185 357 185 357 182 304 c 1,38,-1
 323 304 l 1,39,-1
 323 316 l 2,40,34
 323 356 323 356 306 381.5 c 128,-1,35
EndSplineSet
EndChar

StartChar: Ecaron
Encoding: 282 282 203
Width: 572
GlyphClass: 2
Flags: W
LayerCount: 2
Fore
SplineSet
228 193 m 1,0,-1
 227 124 l 1,1,-1
 227 123 l 1,2,3
 271 125 271 125 300 125 c 2,4,-1
 536 125 l 1,5,6
 536 89 536 89 533 71 c 0,7,8
 519 -3 519 -3 435 -3 c 2,9,-1
 165 -3 l 2,10,11
 124 -3 124 -3 100.5 21 c 128,-1,12
 77 45 77 45 77 87 c 2,13,-1
 77 676 l 1,14,-1
 84 683 l 1,15,-1
 511 683 l 1,16,17
 516 660 516 660 516 625 c 128,-1,18
 516 590 516 590 504 555 c 1,19,-1
 227 555 l 1,20,-1
 228 484 l 1,21,-1
 228 405 l 1,22,23
 254 406 254 406 295 406 c 2,24,-1
 452 406 l 1,25,26
 461 382 461 382 461 344.5 c 128,-1,27
 461 307 461 307 452 281 c 1,28,-1
 228 281 l 1,29,-1
 228 193 l 1,0,-1
177 915 m 1,30,-1
 294 841 l 1,31,-1
 414 927 l 1,32,33
 431 921 431 921 451 903 c 128,-1,34
 471 885 471 885 476 866 c 1,35,-1
 357 745 l 1,36,37
 326 737 326 737 294.5 737 c 128,-1,38
 263 737 263 737 231 744 c 1,39,-1
 118 854 l 1,40,41
 124 875 124 875 142 892 c 128,-1,42
 160 909 160 909 177 915 c 1,30,-1
EndSplineSet
EndChar

StartChar: Hbar
Encoding: 294 294 205
Width: 693
GlyphClass: 2
Flags: W
LayerCount: 2
Fore
SplineSet
234 287 m 1,0,-1
 235 213 l 1,1,-1
 235 0 l 1,2,3
 205 -6 205 -6 158 -6 c 128,-1,4
 111 -6 111 -6 82 0 c 1,5,-1
 82 489 l 1,6,-1
 17 489 l 1,7,8
 9 514 9 514 9 543.5 c 128,-1,9
 9 573 9 573 17 600 c 1,10,-1
 82 600 l 1,11,-1
 82 683 l 1,12,13
 111 689 111 689 158 689 c 128,-1,14
 205 689 205 689 235 683 c 1,15,-1
 235 600 l 1,16,-1
 458 600 l 1,17,-1
 458 683 l 1,18,19
 488 689 488 689 534.5 689 c 128,-1,20
 581 689 581 689 611 683 c 1,21,-1
 611 600 l 1,22,-1
 677 600 l 1,23,24
 684 572 684 572 684 544 c 128,-1,25
 684 516 684 516 677 489 c 1,26,-1
 611 489 l 1,27,-1
 611 0 l 1,28,29
 580 -6 580 -6 534.5 -6 c 128,-1,30
 489 -6 489 -6 458 0 c 1,31,-1
 458 213 l 1,32,-1
 459 287 l 1,33,-1
 408 286 l 1,34,-1
 285 286 l 1,35,-1
 234 287 l 1,0,-1
234 411 m 1,36,-1
 285 412 l 1,37,-1
 408 412 l 1,38,-1
 459 411 l 1,39,-1
 458 487 l 1,40,-1
 458 489 l 1,41,-1
 235 489 l 1,42,-1
 235 487 l 1,43,-1
 234 411 l 1,36,-1
EndSplineSet
EndChar

StartChar: hbar
Encoding: 295 295 206
Width: 546
GlyphClass: 2
Flags: W
LayerCount: 2
Fore
SplineSet
487 331 m 2,0,-1
 487 123 l 2,1,2
 487 59 487 59 510 24 c 1,3,4
 471 -8 471 -8 422.5 -8 c 128,-1,5
 374 -8 374 -8 356 15 c 128,-1,6
 338 38 338 38 338 85 c 2,7,-1
 338 303 l 2,8,9
 338 340 338 340 328 356.5 c 128,-1,10
 318 373 318 373 292 373 c 0,11,12
 250 373 250 373 211 335 c 1,13,-1
 211 0 l 1,14,15
 180 -6 180 -6 140 -6 c 128,-1,16
 100 -6 100 -6 65 0 c 1,17,-1
 65 560 l 1,18,-1
 -9 559 l 1,19,20
 -15 584 -15 584 -15 605 c 128,-1,21
 -15 626 -15 626 -9 653 c 1,22,-1
 65 652 l 1,23,-1
 65 729 l 1,24,-1
 72 736 l 1,25,-1
 130 736 l 2,26,27
 173 736 173 736 191.5 716.5 c 128,-1,28
 210 697 210 697 211 651 c 1,29,-1
 357 653 l 1,30,31
 363 631 363 631 363 605 c 128,-1,32
 363 579 363 579 357 559 c 1,33,-1
 211 561 l 1,34,-1
 211 450 l 1,35,36
 279 507 279 507 347 507 c 128,-1,37
 415 507 415 507 451 459 c 128,-1,38
 487 411 487 411 487 331 c 2,0,-1
EndSplineSet
EndChar

StartChar: Itilde
Encoding: 296 296 207
Width: 314
GlyphClass: 2
Flags: W
LayerCount: 2
Fore
SplineSet
80 0 m 1,0,-1
 80 683 l 1,1,2
 110 689 110 689 156.5 689 c 128,-1,3
 203 689 203 689 233 683 c 1,4,-1
 233 0 l 1,5,6
 203 -6 203 -6 156.5 -6 c 128,-1,7
 110 -6 110 -6 80 0 c 1,0,-1
159 759 m 2,8,-1
 111 782 l 1,9,10
 95 791 95 791 77 791 c 128,-1,11
 59 791 59 791 43 767 c 1,12,-1
 34 755 l 1,13,14
 12 755 12 755 -10.5 767.5 c 128,-1,15
 -33 780 -33 780 -41 799 c 1,16,-1
 -32 819 l 1,17,18
 9 904 9 904 89 904 c 0,19,20
 124 904 124 904 155 887 c 1,21,-1
 203 864 l 1,22,23
 219 855 219 855 236.5 855 c 128,-1,24
 254 855 254 855 271 879 c 2,25,-1
 280 892 l 1,26,27
 302 892 302 892 324 879 c 128,-1,28
 346 866 346 866 355 847 c 1,29,-1
 346 828 l 2,30,31
 327 788 327 788 295.5 765 c 128,-1,32
 264 742 264 742 229.5 742 c 128,-1,33
 195 742 195 742 159 759 c 2,8,-1
EndSplineSet
EndChar

StartChar: itilde
Encoding: 297 297 208
Width: 287
GlyphClass: 2
Flags: W
LayerCount: 2
Fore
SplineSet
227 387 m 2,0,-1
 227 0 l 1,1,2
 197 -6 197 -6 154 -6 c 128,-1,3
 111 -6 111 -6 78 0 c 1,4,-1
 78 336 l 2,5,6
 78 393 78 393 31 393 c 2,7,-1
 17 393 l 1,8,9
 11 418 11 418 11 445 c 128,-1,10
 11 472 11 472 17 497 c 1,11,12
 67 502 67 502 102 502 c 2,13,-1
 122 502 l 2,14,15
 171 502 171 502 199 471 c 128,-1,16
 227 440 227 440 227 387 c 2,0,-1
133 572 m 2,17,-1
 88 595 l 2,18,19
 72 604 72 604 56.5 604 c 128,-1,20
 41 604 41 604 23 580 c 1,21,-1
 14 567 l 1,22,23
 -7 567 -7 567 -28 580 c 128,-1,24
 -49 593 -49 593 -56 612 c 1,25,-1
 -48 631 l 2,26,27
 -31 670 -31 670 -1 693.5 c 128,-1,28
 29 717 29 717 63 717 c 128,-1,29
 97 717 97 717 129 700 c 2,30,-1
 174 677 l 2,31,32
 190 668 190 668 206 668 c 128,-1,33
 222 668 222 668 239 692 c 2,34,-1
 248 704 l 1,35,36
 269 704 269 704 289.5 691.5 c 128,-1,37
 310 679 310 679 318 660 c 1,38,-1
 310 640 l 1,39,40
 293 601 293 601 262.5 577.5 c 128,-1,41
 232 554 232 554 199.5 554 c 128,-1,42
 167 554 167 554 133 572 c 2,17,-1
EndSplineSet
EndChar

StartChar: dotlessi
Encoding: 305 305 209
Width: 294
GlyphClass: 2
Flags: W
LayerCount: 2
Fore
SplineSet
233 387 m 2,0,-1
 233 0 l 1,1,2
 203 -6 203 -6 160 -6 c 128,-1,3
 117 -6 117 -6 84 0 c 1,4,-1
 84 336 l 2,5,6
 84 393 84 393 37 393 c 2,7,-1
 23 393 l 1,8,9
 17 418 17 418 17 445 c 128,-1,10
 17 472 17 472 23 497 c 1,11,12
 73 502 73 502 108 502 c 2,13,-1
 128 502 l 2,14,15
 177 502 177 502 205 471 c 128,-1,16
 233 440 233 440 233 387 c 2,0,-1
EndSplineSet
EndChar

StartChar: IJ
Encoding: 306 306 210
Width: 775
GlyphClass: 2
Flags: W
LayerCount: 2
Fore
SplineSet
80 0 m 1,0,-1
 80 683 l 1,1,2
 110 689 110 689 156.5 689 c 128,-1,3
 203 689 203 689 233 683 c 1,4,-1
 233 0 l 1,5,6
 203 -6 203 -6 156.5 -6 c 128,-1,7
 110 -6 110 -6 80 0 c 1,0,-1
370 147 m 1,8,9
 418 116 418 116 466.5 116 c 128,-1,10
 515 116 515 116 534.5 147 c 128,-1,11
 554 178 554 178 554 245 c 2,12,-1
 554 683 l 1,13,14
 584 689 584 689 630.5 689 c 128,-1,15
 677 689 677 689 707 683 c 1,16,-1
 707 260 l 2,17,18
 707 137 707 137 663 67 c 0,19,20
 614 -10 614 -10 479 -10 c 0,21,22
 386 -10 386 -10 317 34 c 1,23,24
 327 100 327 100 370 147 c 1,8,9
EndSplineSet
EndChar

StartChar: ij
Encoding: 307 307 211
Width: 587
GlyphClass: 2
Flags: W
LayerCount: 2
Fore
SplineSet
233 387 m 2,0,-1
 233 0 l 1,1,2
 203 -6 203 -6 160 -6 c 128,-1,3
 117 -6 117 -6 84 0 c 1,4,-1
 84 336 l 2,5,6
 84 393 84 393 37 393 c 2,7,-1
 23 393 l 1,8,9
 17 418 17 418 17 445 c 128,-1,10
 17 472 17 472 23 497 c 1,11,12
 73 502 73 502 108 502 c 2,13,-1
 128 502 l 2,14,15
 177 502 177 502 205 471 c 128,-1,16
 233 440 233 440 233 387 c 2,0,-1
54 641 m 128,-1,18
 54 670 54 670 65 697 c 1,19,20
 93 712 93 712 138.5 712 c 128,-1,21
 184 712 184 712 209 697 c 1,22,23
 220 670 220 670 220 641 c 128,-1,24
 220 612 220 612 209 585 c 1,25,26
 184 570 184 570 136 570 c 128,-1,27
 88 570 88 570 65 585 c 1,28,17
 54 612 54 612 54 641 c 128,-1,18
526 387 m 2,29,-1
 526 27 l 2,30,31
 526 -89 526 -89 489.5 -143.5 c 128,-1,32
 453 -198 453 -198 341 -220 c 1,33,34
 325 -207 325 -207 313 -181 c 128,-1,35
 301 -155 301 -155 300 -129 c 1,36,37
 345 -110 345 -110 362 -85 c 128,-1,38
 379 -60 379 -60 379 -7 c 2,39,-1
 379 336 l 2,40,41
 379 393 379 393 332 393 c 2,42,-1
 309 393 l 1,43,44
 303 419 303 419 303 445.5 c 128,-1,45
 303 472 303 472 309 497 c 1,46,47
 366 502 366 502 402 502 c 2,48,-1
 422 502 l 2,49,50
 471 502 471 502 498.5 471 c 128,-1,51
 526 440 526 440 526 387 c 2,29,-1
344 641 m 128,-1,53
 344 670 344 670 355 697 c 1,54,55
 383 712 383 712 428.5 712 c 128,-1,56
 474 712 474 712 499 697 c 1,57,58
 510 670 510 670 510 641 c 128,-1,59
 510 612 510 612 499 585 c 1,60,61
 474 570 474 570 426 570 c 128,-1,62
 378 570 378 570 355 585 c 1,63,52
 344 612 344 612 344 641 c 128,-1,53
EndSplineSet
EndChar

StartChar: Jcircumflex
Encoding: 308 308 212
Width: 468
GlyphClass: 2
Flags: W
LayerCount: 2
Fore
SplineSet
63 147 m 1,0,1
 111 116 111 116 159.5 116 c 128,-1,2
 208 116 208 116 227.5 147 c 128,-1,3
 247 178 247 178 247 245 c 2,4,-1
 247 683 l 1,5,6
 277 689 277 689 323.5 689 c 128,-1,7
 370 689 370 689 400 683 c 1,8,-1
 400 260 l 2,9,10
 400 137 400 137 356 67 c 0,11,12
 307 -10 307 -10 172 -10 c 0,13,14
 79 -10 79 -10 10 34 c 1,15,16
 20 100 20 100 63 147 c 1,0,1
439 735 m 1,17,-1
 322 810 l 1,18,-1
 203 724 l 1,19,20
 186 730 186 730 166.5 748.5 c 128,-1,21
 147 767 147 767 142 786 c 1,22,-1
 260 906 l 1,23,24
 291 913 291 913 322 913 c 128,-1,25
 353 913 353 913 385 907 c 1,26,-1
 498 797 l 1,27,28
 492 776 492 776 474 759 c 128,-1,29
 456 742 456 742 439 735 c 1,17,-1
EndSplineSet
EndChar

StartChar: jcircumflex
Encoding: 309 309 213
Width: 291
GlyphClass: 2
Flags: W
LayerCount: 2
Fore
SplineSet
232 387 m 2,0,-1
 232 27 l 2,1,2
 232 -89 232 -89 195.5 -143.5 c 128,-1,3
 159 -198 159 -198 47 -220 c 1,4,5
 31 -207 31 -207 19 -181 c 128,-1,6
 7 -155 7 -155 6 -129 c 1,7,8
 51 -110 51 -110 68 -85 c 128,-1,9
 85 -60 85 -60 85 -7 c 2,10,-1
 85 336 l 2,11,12
 85 393 85 393 38 393 c 2,13,-1
 15 393 l 1,14,15
 9 418 9 418 9 445 c 128,-1,16
 9 472 9 472 15 497 c 1,17,18
 72 502 72 502 108 502 c 2,19,-1
 128 502 l 2,20,21
 177 502 177 502 204.5 471 c 128,-1,22
 232 440 232 440 232 387 c 2,0,-1
228 551 m 1,23,-1
 136 638 l 1,24,-1
 39 544 l 1,25,26
 -4 561 -4 561 -27 601 c 1,27,-1
 78 737 l 1,28,29
 102 745 102 745 119 745 c 0,30,31
 172 745 172 745 200 737 c 1,32,-1
 293 612 l 1,33,34
 285 591 285 591 265.5 574 c 128,-1,35
 246 557 246 557 228 551 c 1,23,-1
EndSplineSet
EndChar

StartChar: Kcommaaccent
Encoding: 310 310 214
Width: 617
GlyphClass: 2
Flags: W
LayerCount: 2
Fore
SplineSet
609 38 m 1,0,1
 578 -8 578 -8 508 -8 c 0,2,3
 468 -8 468 -8 448.5 12 c 128,-1,4
 429 32 429 32 415 79 c 1,5,-1
 375 200 l 2,6,7
 359 249 359 249 337 269.5 c 128,-1,8
 315 290 315 290 278 290 c 0,9,10
 267 290 267 290 231 288 c 1,11,-1
 231 0 l 1,12,13
 201 -6 201 -6 154 -6 c 128,-1,14
 107 -6 107 -6 78 0 c 1,15,-1
 78 683 l 1,16,17
 107 689 107 689 154 689 c 128,-1,18
 201 689 201 689 231 683 c 1,19,-1
 231 416 l 1,20,-1
 260 417 l 2,21,22
 278 417 278 417 286 423.5 c 128,-1,23
 294 430 294 430 305 450 c 2,24,-1
 404 635 l 2,25,26
 419 664 419 664 435.5 676 c 128,-1,27
 452 688 452 688 493.5 688 c 128,-1,28
 535 688 535 688 575 684 c 1,29,-1
 583 673 l 1,30,-1
 458 440 l 2,31,32
 435 396 435 396 404 370 c 1,33,34
 450 360 450 360 474.5 332 c 128,-1,35
 499 304 499 304 516 256 c 1,36,-1
 558 129 l 2,37,38
 559 127 559 127 563 115 c 128,-1,39
 567 103 567 103 568.5 100 c 128,-1,40
 570 97 570 97 573.5 87.5 c 128,-1,41
 577 78 577 78 580 74 c 128,-1,42
 583 70 583 70 587.5 62.5 c 128,-1,43
 592 55 592 55 598 50 c 1,44,45
 598 50 598 50 609 38 c 1,0,1
267 -75 m 1,46,47
 300 -51 300 -51 350 -51 c 0,48,49
 375 -51 375 -51 397 -59 c 1,50,51
 409 -83 409 -83 409 -119 c 0,52,53
 409 -178 409 -178 369 -222.5 c 128,-1,54
 329 -267 329 -267 260 -288 c 1,55,56
 222 -275 222 -275 214 -227 c 1,57,58
 280 -189 280 -189 280 -128 c 0,59,60
 280 -101 280 -101 267 -75 c 1,46,47
EndSplineSet
EndChar

StartChar: kcommaaccent
Encoding: 311 311 215
Width: 520
GlyphClass: 2
Flags: W
LayerCount: 2
Fore
SplineSet
241 202 m 2,0,-1
 208 201 l 1,1,-1
 208 0 l 1,2,3
 177 -6 177 -6 136 -6 c 128,-1,4
 95 -6 95 -6 62 0 c 1,5,-1
 62 729 l 1,6,-1
 69 736 l 1,7,-1
 127 736 l 2,8,9
 171 736 171 736 189.5 715.5 c 128,-1,10
 208 695 208 695 208 646 c 2,11,-1
 208 324 l 1,12,-1
 226 324 l 2,13,14
 244 324 244 324 254 342 c 2,15,-1
 311 447 l 1,16,17
 338 502 338 502 395 502 c 0,18,19
 424 502 424 502 478 500 c 1,20,-1
 484 492 l 1,21,-1
 403 340 l 2,22,23
 384 305 384 305 353 284 c 1,24,25
 413 262 413 262 438 197 c 1,26,-1
 463 123 l 1,27,28
 479 80 479 80 488.5 64 c 128,-1,29
 498 48 498 48 511 39 c 1,30,31
 471 -8 471 -8 411 -8 c 0,32,33
 379 -8 379 -8 362.5 7 c 128,-1,34
 346 22 346 22 333 60 c 2,35,-1
 303 148 l 1,36,37
 291 180 291 180 277.5 191 c 128,-1,38
 264 202 264 202 241 202 c 2,0,-1
213 -75 m 1,39,40
 246 -51 246 -51 296 -51 c 0,41,42
 321 -51 321 -51 343 -59 c 1,43,44
 355 -83 355 -83 355 -119 c 0,45,46
 355 -178 355 -178 315 -222.5 c 128,-1,47
 275 -267 275 -267 206 -288 c 1,48,49
 168 -275 168 -275 160 -227 c 1,50,51
 226 -189 226 -189 226 -128 c 0,52,53
 226 -101 226 -101 213 -75 c 1,39,40
EndSplineSet
EndChar

StartChar: kgreenlandic
Encoding: 312 312 216
Width: 520
GlyphClass: 2
Flags: W
LayerCount: 2
Fore
SplineSet
241 202 m 2,0,-1
 208 201 l 1,1,-1
 208 0 l 1,2,3
 177 -6 177 -6 136 -6 c 128,-1,4
 95 -6 95 -6 62 0 c 1,5,-1
 62 498 l 1,6,-1
 69 505 l 1,7,-1
 127 505 l 2,8,9
 171 505 171 505 189.5 484.5 c 128,-1,10
 208 464 208 464 208 415 c 2,11,-1
 208 324 l 1,12,-1
 226 324 l 2,13,14
 244 324 244 324 254 342 c 2,15,-1
 311 447 l 1,16,17
 338 502 338 502 395 502 c 0,18,19
 424 502 424 502 478 500 c 1,20,-1
 484 492 l 1,21,-1
 403 340 l 2,22,23
 384 305 384 305 353 284 c 1,24,25
 413 262 413 262 438 197 c 1,26,-1
 463 123 l 1,27,28
 479 80 479 80 488.5 64 c 128,-1,29
 498 48 498 48 511 39 c 1,30,31
 471 -8 471 -8 411 -8 c 0,32,33
 379 -8 379 -8 362.5 7 c 128,-1,34
 346 22 346 22 333 60 c 2,35,-1
 303 148 l 1,36,37
 291 180 291 180 277.5 191 c 128,-1,38
 264 202 264 202 241 202 c 2,0,-1
EndSplineSet
EndChar

StartChar: Ldot
Encoding: 319 319 217
Width: 521
GlyphClass: 2
Flags: W
LayerCount: 2
Fore
SplineSet
323 129 m 2,0,-1
 500 129 l 1,1,2
 500 96 500 96 496 72 c 0,3,4
 484 -3 484 -3 396 -3 c 2,5,-1
 166 -3 l 2,6,7
 125 -3 125 -3 101 21 c 128,-1,8
 77 45 77 45 77 87 c 2,9,-1
 77 683 l 1,10,-1
 84 689 l 1,11,-1
 140 689 l 2,12,13
 230 689 230 689 230 593 c 2,14,-1
 230 126 l 1,15,16
 280 129 280 129 323 129 c 2,0,-1
347 304 m 1,17,18
 336 326 336 326 336 360.5 c 128,-1,19
 336 395 336 395 347 417 c 1,20,21
 373 435 373 435 412 435 c 128,-1,22
 451 435 451 435 477 417 c 1,23,24
 486 396 486 396 486 360.5 c 128,-1,25
 486 325 486 325 477 304 c 1,26,27
 454 287 454 287 412 287 c 128,-1,28
 370 287 370 287 347 304 c 1,17,18
EndSplineSet
EndChar

StartChar: ldot
Encoding: 320 320 218
Width: 395
GlyphClass: 2
Flags: W
LayerCount: 2
Fore
SplineSet
249 109 m 2,0,-1
 278 109 l 1,1,2
 290 77 290 77 290 47.5 c 128,-1,3
 290 18 290 18 287 5 c 1,4,5
 227 -5 227 -5 172 -5 c 128,-1,6
 117 -5 117 -5 89 27 c 128,-1,7
 61 59 61 59 61 129 c 2,8,-1
 61 729 l 1,9,-1
 68 736 l 1,10,-1
 126 736 l 2,11,12
 170 736 170 736 188.5 715.5 c 128,-1,13
 207 695 207 695 207 646 c 2,14,-1
 207 156 l 2,15,16
 207 109 207 109 249 109 c 2,0,-1
267 305 m 1,17,18
 256 327 256 327 256 361.5 c 128,-1,19
 256 396 256 396 267 418 c 1,20,21
 293 436 293 436 332 436 c 128,-1,22
 371 436 371 436 397 418 c 1,23,24
 406 397 406 397 406 361.5 c 128,-1,25
 406 326 406 326 397 305 c 1,26,27
 374 288 374 288 332 288 c 128,-1,28
 290 288 290 288 267 305 c 1,17,18
EndSplineSet
EndChar

StartChar: Lslash
Encoding: 321 321 219
Width: 531
GlyphClass: 2
Flags: W
LayerCount: 2
Fore
SplineSet
240 593 m 2,0,-1
 240 434 l 1,1,-1
 397 490 l 1,2,-1
 408 484 l 1,3,4
 416 459 416 459 416 430.5 c 128,-1,5
 416 402 416 402 411 372 c 1,6,-1
 240 313 l 1,7,-1
 240 126 l 1,8,9
 290 129 290 129 333 129 c 2,10,-1
 510 129 l 1,11,12
 510 96 510 96 506 72 c 0,13,14
 494 -3 494 -3 406 -3 c 2,15,-1
 176 -3 l 2,16,17
 135 -3 135 -3 111 21 c 128,-1,18
 87 45 87 45 87 87 c 2,19,-1
 87 266 l 1,20,-1
 17 241 l 1,21,-1
 7 247 l 1,22,23
 -2 272 -2 272 -2 300.5 c 128,-1,24
 -2 329 -2 329 4 359 c 1,25,-1
 87 388 l 1,26,-1
 87 683 l 1,27,-1
 94 689 l 1,28,-1
 150 689 l 2,29,30
 240 689 240 689 240 593 c 2,0,-1
EndSplineSet
EndChar

StartChar: lslash
Encoding: 322 322 220
Width: 360
GlyphClass: 2
Flags: W
LayerCount: 2
Fore
SplineSet
284 109 m 2,0,-1
 313 109 l 1,1,2
 325 73 325 73 325 45 c 128,-1,3
 325 17 325 17 321 5 c 1,4,5
 263 -5 263 -5 208 -5 c 128,-1,6
 153 -5 153 -5 125 27 c 128,-1,7
 97 59 97 59 97 129 c 2,8,-1
 97 269 l 1,9,-1
 29 236 l 1,10,-1
 18 241 l 1,11,12
 10 265 10 265 10 292 c 128,-1,13
 10 319 10 319 16 348 c 1,14,-1
 97 388 l 1,15,-1
 97 729 l 1,16,-1
 104 736 l 1,17,-1
 160 736 l 2,18,19
 204 736 204 736 222.5 715.5 c 128,-1,20
 241 695 241 695 241 646 c 2,21,-1
 241 459 l 1,22,-1
 316 497 l 1,23,-1
 327 491 l 1,24,25
 335 468 335 468 335 440.5 c 128,-1,26
 335 413 335 413 330 384 c 1,27,-1
 241 340 l 1,28,-1
 241 156 l 2,29,30
 241 109 241 109 284 109 c 2,0,-1
EndSplineSet
EndChar

StartChar: Nacute
Encoding: 323 323 221
Width: 694
GlyphClass: 2
Flags: W
LayerCount: 2
Fore
SplineSet
609 689 m 1,0,-1
 616 683 l 1,1,-1
 616 3 l 1,2,3
 578 -6 578 -6 526.5 -6 c 128,-1,4
 475 -6 475 -6 435 0 c 1,5,-1
 269 366 l 1,6,7
 227 466 227 466 212 507 c 1,8,-1
 208 506 l 1,9,10
 220 364 220 364 220 215 c 2,11,-1
 220 0 l 1,12,13
 190 -6 190 -6 148.5 -6 c 128,-1,14
 107 -6 107 -6 78 0 c 1,15,-1
 78 680 l 1,16,17
 114 689 114 689 165.5 689 c 128,-1,18
 217 689 217 689 257 683 c 1,19,-1
 419 318 l 1,20,-1
 482 167 l 1,21,-1
 486 168 l 1,22,23
 474 306 474 306 474 457 c 2,24,-1
 474 597 l 2,25,26
 474 647 474 647 494 668 c 128,-1,27
 514 689 514 689 559 689 c 2,28,-1
 609 689 l 1,0,-1
229 799 m 1,29,-1
 450 934 l 1,30,31
 470 919 470 919 488 885.5 c 128,-1,32
 506 852 506 852 509 821 c 1,33,-1
 271 727 l 1,34,35
 256 736 256 736 243.5 757.5 c 128,-1,36
 231 779 231 779 229 799 c 1,29,-1
EndSplineSet
EndChar

StartChar: Ncaron
Encoding: 327 327 223
Width: 694
GlyphClass: 2
Flags: W
LayerCount: 2
Fore
SplineSet
609 689 m 1,0,-1
 616 683 l 1,1,-1
 616 3 l 1,2,3
 578 -6 578 -6 526.5 -6 c 128,-1,4
 475 -6 475 -6 435 0 c 1,5,-1
 269 366 l 1,6,7
 227 466 227 466 212 507 c 1,8,-1
 208 506 l 1,9,10
 220 364 220 364 220 215 c 2,11,-1
 220 0 l 1,12,13
 190 -6 190 -6 148.5 -6 c 128,-1,14
 107 -6 107 -6 78 0 c 1,15,-1
 78 680 l 1,16,17
 114 689 114 689 165.5 689 c 128,-1,18
 217 689 217 689 257 683 c 1,19,-1
 419 318 l 1,20,-1
 482 167 l 1,21,-1
 486 168 l 1,22,23
 474 306 474 306 474 457 c 2,24,-1
 474 597 l 2,25,26
 474 647 474 647 494 668 c 128,-1,27
 514 689 514 689 559 689 c 2,28,-1
 609 689 l 1,0,-1
228 915 m 1,29,-1
 345 841 l 1,30,-1
 465 927 l 1,31,32
 482 921 482 921 502 903 c 128,-1,33
 522 885 522 885 527 866 c 1,34,-1
 408 745 l 1,35,36
 377 737 377 737 345.5 737 c 128,-1,37
 314 737 314 737 282 744 c 1,38,-1
 169 854 l 1,39,40
 175 875 175 875 193 892 c 128,-1,41
 211 909 211 909 228 915 c 1,29,-1
EndSplineSet
EndChar

StartChar: ncaron
Encoding: 328 328 224
Width: 547
GlyphClass: 2
Flags: W
LayerCount: 2
Fore
SplineSet
487 331 m 2,0,-1
 487 123 l 2,1,2
 487 59 487 59 511 24 c 1,3,4
 472 -8 472 -8 423.5 -8 c 128,-1,5
 375 -8 375 -8 356.5 15 c 128,-1,6
 338 38 338 38 338 85 c 2,7,-1
 338 303 l 2,8,9
 338 340 338 340 328 357 c 128,-1,10
 318 374 318 374 293 374 c 0,11,12
 250 374 250 374 211 335 c 1,13,-1
 211 0 l 1,14,15
 180 -6 180 -6 137.5 -6 c 128,-1,16
 95 -6 95 -6 62 0 c 1,17,-1
 62 498 l 1,18,-1
 69 505 l 1,19,-1
 125 505 l 2,20,21
 187 505 187 505 204 445 c 1,22,23
 277 507 277 507 346 507 c 128,-1,24
 415 507 415 507 451 459 c 128,-1,25
 487 411 487 411 487 331 c 2,0,-1
184 748 m 1,26,-1
 276 661 l 1,27,-1
 375 756 l 1,28,29
 419 741 419 741 441 699 c 1,30,-1
 335 562 l 1,31,32
 309 553 309 553 292 553 c 128,-1,33
 275 553 275 553 257 553.5 c 128,-1,34
 239 554 239 554 212 562 c 1,35,-1
 119 687 l 1,36,37
 129 708 129 708 148.5 725 c 128,-1,38
 168 742 168 742 184 748 c 1,26,-1
EndSplineSet
EndChar

StartChar: OE
Encoding: 338 338 225
Width: 914
GlyphClass: 2
Flags: W
LayerCount: 2
Fore
SplineSet
579 194 m 1,0,-1
 578 125 l 1,1,-1
 578 124 l 1,2,3
 622 126 622 126 651 126 c 2,4,-1
 887 126 l 1,5,6
 887 90 887 90 884 72 c 0,7,8
 872 -2 872 -2 787 -2 c 2,9,-1
 475 -2 l 1,10,11
 380 -15 380 -15 335 -15 c 0,12,13
 223 -15 223 -15 146 48 c 1,14,15
 38 139 38 139 38 341.5 c 128,-1,16
 38 544 38 544 146 635 c 1,17,18
 223 698 223 698 335 698 c 0,19,20
 383 698 383 698 477 683 c 1,21,-1
 862 683 l 1,22,23
 868 655 868 655 868 623.5 c 128,-1,24
 868 592 868 592 855 555 c 1,25,-1
 578 555 l 1,26,-1
 579 484 l 1,27,-1
 579 405 l 1,28,29
 605 406 605 406 646 406 c 2,30,-1
 804 406 l 1,31,32
 813 378 813 378 813 344.5 c 128,-1,33
 813 311 813 311 804 281 c 1,34,-1
 579 281 l 1,35,-1
 579 194 l 1,0,-1
334 103 m 0,36,37
 378 103 378 103 431 118 c 1,38,-1
 431 565 l 1,39,40
 378 580 378 580 335 580 c 0,41,42
 195 580 195 580 195 341.5 c 128,-1,43
 195 103 195 103 334 103 c 0,36,37
EndSplineSet
EndChar

StartChar: oe
Encoding: 339 339 226
Width: 804
GlyphClass: 2
Flags: W
LayerCount: 2
Fore
SplineSet
760 201 m 1,0,-1
 497 201 l 1,1,2
 500 153 500 153 520.5 126.5 c 128,-1,3
 541 100 541 100 593 100 c 128,-1,4
 645 100 645 100 718 131 c 1,5,6
 749 101 749 101 759 43 c 1,7,8
 681 -15 681 -15 571.5 -15 c 128,-1,9
 462 -15 462 -15 412 45 c 1,10,11
 357 -15 357 -15 260 -15 c 128,-1,12
 163 -15 163 -15 104 44 c 1,13,14
 32 113 32 113 32 248.5 c 128,-1,15
 32 384 32 384 104 455 c 0,16,17
 163 513 163 513 261 513 c 128,-1,18
 359 513 359 513 415 449 c 1,19,20
 466 513 466 513 564 513 c 128,-1,21
 662 513 662 513 717 453.5 c 128,-1,22
 772 394 772 394 772 301 c 0,23,24
 772 250 772 250 760 201 c 1,0,-1
185 249 m 128,-1,26
 185 176 185 176 200.5 136.5 c 128,-1,27
 216 97 216 97 261 97 c 128,-1,28
 306 97 306 97 321.5 136.5 c 128,-1,29
 337 176 337 176 337 249 c 128,-1,30
 337 322 337 322 321.5 362 c 128,-1,31
 306 402 306 402 261 402 c 128,-1,32
 216 402 216 402 200.5 362 c 128,-1,25
 185 322 185 322 185 249 c 128,-1,26
566 407 m 0,33,34
 532 407 532 407 515.5 382 c 128,-1,35
 499 357 499 357 496 304 c 1,36,-1
 634 304 l 1,37,-1
 634 315 l 2,38,39
 634 407 634 407 566 407 c 0,33,34
EndSplineSet
EndChar

StartChar: Racute
Encoding: 340 340 227
Width: 613
GlyphClass: 2
Flags: W
LayerCount: 2
Fore
SplineSet
562 473 m 0,0,1
 562 406 562 406 525.5 357 c 128,-1,2
 489 308 489 308 440 290 c 1,3,4
 491 272 491 272 516 199 c 1,5,-1
 548 110 l 2,6,7
 565 62 565 62 597 37 c 1,8,9
 582 17 582 17 554 4 c 128,-1,10
 526 -9 526 -9 491 -9 c 128,-1,11
 456 -9 456 -9 437 11 c 128,-1,12
 418 31 418 31 401 80 c 2,13,-1
 363 189 l 2,14,15
 353 220 353 220 333.5 237 c 128,-1,16
 314 254 314 254 276 254 c 2,17,-1
 229 254 l 1,18,-1
 229 0 l 1,19,20
 199 -6 199 -6 153 -6 c 128,-1,21
 107 -6 107 -6 78 0 c 1,22,-1
 78 678 l 1,23,-1
 85 685 l 1,24,25
 253 689 253 689 321 689 c 0,26,27
 430 689 430 689 496 634.5 c 128,-1,28
 562 580 562 580 562 473 c 0,0,1
229 574 m 1,29,-1
 229 371 l 1,30,31
 295 373 295 373 309 373 c 0,32,33
 406 373 406 373 406 473 c 128,-1,34
 406 573 406 573 309 573 c 0,35,36
 259 573 259 573 229 574 c 1,29,-1
182 799 m 1,37,-1
 403 934 l 1,38,39
 423 919 423 919 441 885.5 c 128,-1,40
 459 852 459 852 462 821 c 1,41,-1
 224 727 l 1,42,43
 209 736 209 736 196.5 757.5 c 128,-1,44
 184 779 184 779 182 799 c 1,37,-1
EndSplineSet
EndChar

StartChar: Rcommaaccent
Encoding: 342 342 229
Width: 613
GlyphClass: 2
Flags: W
LayerCount: 2
Fore
SplineSet
562 473 m 0,0,1
 562 406 562 406 525.5 357 c 128,-1,2
 489 308 489 308 440 290 c 1,3,4
 491 272 491 272 516 199 c 1,5,-1
 548 110 l 2,6,7
 565 62 565 62 597 37 c 1,8,9
 582 17 582 17 554 4 c 128,-1,10
 526 -9 526 -9 491 -9 c 128,-1,11
 456 -9 456 -9 437 11 c 128,-1,12
 418 31 418 31 401 80 c 2,13,-1
 363 189 l 2,14,15
 353 220 353 220 333.5 237 c 128,-1,16
 314 254 314 254 276 254 c 2,17,-1
 229 254 l 1,18,-1
 229 0 l 1,19,20
 199 -6 199 -6 153 -6 c 128,-1,21
 107 -6 107 -6 78 0 c 1,22,-1
 78 678 l 1,23,-1
 85 685 l 1,24,25
 253 689 253 689 321 689 c 0,26,27
 430 689 430 689 496 634.5 c 128,-1,28
 562 580 562 580 562 473 c 0,0,1
229 574 m 1,29,-1
 229 371 l 1,30,31
 295 373 295 373 309 373 c 0,32,33
 406 373 406 373 406 473 c 128,-1,34
 406 573 406 573 309 573 c 0,35,36
 259 573 259 573 229 574 c 1,29,-1
263 -75 m 1,37,38
 296 -51 296 -51 346 -51 c 0,39,40
 371 -51 371 -51 393 -59 c 1,41,42
 405 -83 405 -83 405 -119 c 0,43,44
 405 -178 405 -178 365 -222.5 c 128,-1,45
 325 -267 325 -267 256 -288 c 1,46,47
 218 -275 218 -275 210 -227 c 1,48,49
 276 -189 276 -189 276 -128 c 0,50,51
 276 -101 276 -101 263 -75 c 1,37,38
EndSplineSet
EndChar

StartChar: rcommaaccent
Encoding: 343 343 230
Width: 393
GlyphClass: 2
Flags: W
LayerCount: 2
Fore
SplineSet
33 429 m 1,0,1
 37 449 37 449 51 472 c 128,-1,2
 65 495 65 495 79 506 c 1,3,4
 168 497 168 497 201 416 c 1,5,6
 239 505 239 505 327 505 c 0,7,8
 360 505 360 505 392 497 c 1,9,10
 392 468 392 468 382 427.5 c 128,-1,11
 372 387 372 387 355 358 c 1,12,13
 334 365 334 365 305 367 c 1,14,15
 252 367 252 367 219 313 c 1,16,-1
 219 0 l 1,17,18
 189 -6 189 -6 146 -6 c 128,-1,19
 103 -6 103 -6 70 0 c 1,20,-1
 70 326 l 2,21,22
 70 401 70 401 33 429 c 1,0,1
85 -75 m 1,23,24
 118 -51 118 -51 168 -51 c 0,25,26
 193 -51 193 -51 215 -59 c 1,27,28
 227 -83 227 -83 227 -119 c 0,29,30
 227 -178 227 -178 187 -222.5 c 128,-1,31
 147 -267 147 -267 78 -288 c 1,32,33
 40 -275 40 -275 32 -227 c 1,34,35
 98 -189 98 -189 98 -128 c 0,36,37
 98 -101 98 -101 85 -75 c 1,23,24
EndSplineSet
EndChar

StartChar: Rcaron
Encoding: 344 344 231
Width: 613
GlyphClass: 2
Flags: W
LayerCount: 2
Fore
SplineSet
562 473 m 0,0,1
 562 406 562 406 525.5 357 c 128,-1,2
 489 308 489 308 440 290 c 1,3,4
 491 272 491 272 516 199 c 1,5,-1
 548 110 l 2,6,7
 565 62 565 62 597 37 c 1,8,9
 582 17 582 17 554 4 c 128,-1,10
 526 -9 526 -9 491 -9 c 128,-1,11
 456 -9 456 -9 437 11 c 128,-1,12
 418 31 418 31 401 80 c 2,13,-1
 363 189 l 2,14,15
 353 220 353 220 333.5 237 c 128,-1,16
 314 254 314 254 276 254 c 2,17,-1
 229 254 l 1,18,-1
 229 0 l 1,19,20
 199 -6 199 -6 153 -6 c 128,-1,21
 107 -6 107 -6 78 0 c 1,22,-1
 78 678 l 1,23,-1
 85 685 l 1,24,25
 253 689 253 689 321 689 c 0,26,27
 430 689 430 689 496 634.5 c 128,-1,28
 562 580 562 580 562 473 c 0,0,1
229 574 m 1,29,-1
 229 371 l 1,30,31
 295 373 295 373 309 373 c 0,32,33
 406 373 406 373 406 473 c 128,-1,34
 406 573 406 573 309 573 c 0,35,36
 259 573 259 573 229 574 c 1,29,-1
181 915 m 1,37,-1
 298 841 l 1,38,-1
 418 927 l 1,39,40
 435 921 435 921 455 903 c 128,-1,41
 475 885 475 885 480 866 c 1,42,-1
 361 745 l 1,43,44
 330 737 330 737 298.5 737 c 128,-1,45
 267 737 267 737 235 744 c 1,46,-1
 122 854 l 1,47,48
 128 875 128 875 146 892 c 128,-1,49
 164 909 164 909 181 915 c 1,37,-1
EndSplineSet
EndChar

StartChar: Sacute
Encoding: 346 346 233
Width: 557
GlyphClass: 2
Flags: W
LayerCount: 2
Fore
SplineSet
17 60 m 1,0,1
 20 92 20 92 37 123.5 c 128,-1,2
 54 155 54 155 77 174 c 1,3,4
 186 108 186 108 279 108 c 0,5,6
 322 108 322 108 344.5 128.5 c 128,-1,7
 367 149 367 149 367 178 c 0,8,9
 367 228 367 228 300 258 c 1,10,-1
 182 308 l 1,11,12
 40 370 40 370 40 491 c 0,13,14
 40 582 40 582 109 640 c 128,-1,15
 178 698 178 698 290.5 698 c 128,-1,16
 403 698 403 698 513 641 c 1,17,18
 508 572 508 572 461 526 c 1,19,20
 359 575 359 575 281 575 c 0,21,22
 240 575 240 575 218 555.5 c 128,-1,23
 196 536 196 536 196 511 c 0,24,25
 196 471 196 471 258 444 c 1,26,-1
 378 394 l 2,27,28
 450 363 450 363 489.5 312.5 c 128,-1,29
 529 262 529 262 529 198 c 0,30,31
 529 103 529 103 461.5 44 c 128,-1,32
 394 -15 394 -15 268 -15 c 0,33,34
 206 -15 206 -15 138.5 5 c 128,-1,35
 71 25 71 25 17 60 c 1,0,1
164 799 m 1,36,-1
 385 934 l 1,37,38
 405 919 405 919 423 885.5 c 128,-1,39
 441 852 441 852 444 821 c 1,40,-1
 206 727 l 1,41,42
 191 736 191 736 178.5 757.5 c 128,-1,43
 166 779 166 779 164 799 c 1,36,-1
EndSplineSet
EndChar

StartChar: sacute
Encoding: 347 347 234
Width: 442
GlyphClass: 2
Flags: W
LayerCount: 2
Fore
SplineSet
21 35 m 1,0,1
 22 59 22 59 34.5 89 c 128,-1,2
 47 119 47 119 63 135 c 1,3,4
 141 94 141 94 202 94 c 0,5,6
 232 94 232 94 248.5 104.5 c 128,-1,7
 265 115 265 115 265 132 c 0,8,9
 265 164 265 164 217 181 c 2,10,-1
 162 201 l 2,11,12
 36 247 36 247 36 350 c 0,13,14
 36 425 36 425 88 469 c 128,-1,15
 140 513 140 513 227 513 c 0,16,17
 270 513 270 513 322 501 c 128,-1,18
 374 489 374 489 409 472 c 1,19,20
 410 445 410 445 397.5 413 c 128,-1,21
 385 381 385 381 367 368 c 1,22,23
 285 405 285 405 229 405 c 0,24,25
 207 405 207 405 195 395 c 128,-1,26
 183 385 183 385 183 369 c 0,27,28
 183 344 183 344 225 328 c 2,29,-1
 286 306 l 2,30,31
 419 257 419 257 419 147 c 0,32,33
 419 73 419 73 364 29 c 128,-1,34
 309 -15 309 -15 209 -15 c 128,-1,35
 109 -15 109 -15 21 35 c 1,0,1
131 598 m 1,36,-1
 285 765 l 1,37,38
 313 756 313 756 340.5 731 c 128,-1,39
 368 706 368 706 376 678 c 1,40,-1
 193 540 l 1,41,42
 174 546 174 546 156.5 562 c 128,-1,43
 139 578 139 578 131 598 c 1,36,-1
EndSplineSet
EndChar

StartChar: Scaron
Encoding: 352 352 235
Width: 557
GlyphClass: 2
Flags: W
LayerCount: 2
Fore
SplineSet
17 60 m 1,0,1
 20 92 20 92 37 123.5 c 128,-1,2
 54 155 54 155 77 174 c 1,3,4
 186 108 186 108 279 108 c 0,5,6
 322 108 322 108 344.5 128.5 c 128,-1,7
 367 149 367 149 367 178 c 0,8,9
 367 228 367 228 300 258 c 1,10,-1
 182 308 l 1,11,12
 40 370 40 370 40 491 c 0,13,14
 40 582 40 582 109 640 c 128,-1,15
 178 698 178 698 290.5 698 c 128,-1,16
 403 698 403 698 513 641 c 1,17,18
 508 572 508 572 461 526 c 1,19,20
 359 575 359 575 281 575 c 0,21,22
 240 575 240 575 218 555.5 c 128,-1,23
 196 536 196 536 196 511 c 0,24,25
 196 471 196 471 258 444 c 1,26,-1
 378 394 l 2,27,28
 450 363 450 363 489.5 312.5 c 128,-1,29
 529 262 529 262 529 198 c 0,30,31
 529 103 529 103 461.5 44 c 128,-1,32
 394 -15 394 -15 268 -15 c 0,33,34
 206 -15 206 -15 138.5 5 c 128,-1,35
 71 25 71 25 17 60 c 1,0,1
163 915 m 1,36,-1
 280 841 l 1,37,-1
 400 927 l 1,38,39
 417 921 417 921 437 903 c 128,-1,40
 457 885 457 885 462 866 c 1,41,-1
 343 745 l 1,42,43
 312 737 312 737 280.5 737 c 128,-1,44
 249 737 249 737 217 744 c 1,45,-1
 104 854 l 1,46,47
 110 875 110 875 128 892 c 128,-1,48
 146 909 146 909 163 915 c 1,36,-1
EndSplineSet
EndChar

StartChar: scaron
Encoding: 353 353 236
Width: 442
GlyphClass: 2
Flags: W
LayerCount: 2
Fore
SplineSet
21 35 m 1,0,1
 22 59 22 59 34.5 89 c 128,-1,2
 47 119 47 119 63 135 c 1,3,4
 141 94 141 94 202 94 c 0,5,6
 232 94 232 94 248.5 104.5 c 128,-1,7
 265 115 265 115 265 132 c 0,8,9
 265 164 265 164 217 181 c 2,10,-1
 162 201 l 2,11,12
 36 247 36 247 36 350 c 0,13,14
 36 425 36 425 88 469 c 128,-1,15
 140 513 140 513 227 513 c 0,16,17
 270 513 270 513 322 501 c 128,-1,18
 374 489 374 489 409 472 c 1,19,20
 410 445 410 445 397.5 413 c 128,-1,21
 385 381 385 381 367 368 c 1,22,23
 285 405 285 405 229 405 c 0,24,25
 207 405 207 405 195 395 c 128,-1,26
 183 385 183 385 183 369 c 0,27,28
 183 344 183 344 225 328 c 2,29,-1
 286 306 l 2,30,31
 419 257 419 257 419 147 c 0,32,33
 419 73 419 73 364 29 c 128,-1,34
 309 -15 309 -15 209 -15 c 128,-1,35
 109 -15 109 -15 21 35 c 1,0,1
126 748 m 1,36,-1
 218 661 l 1,37,-1
 317 756 l 1,38,39
 361 741 361 741 383 699 c 1,40,-1
 277 562 l 1,41,42
 251 553 251 553 234 553 c 128,-1,43
 217 553 217 553 199 553.5 c 128,-1,44
 181 554 181 554 154 562 c 1,45,-1
 61 687 l 1,46,47
 71 708 71 708 90.5 725 c 128,-1,48
 110 742 110 742 126 748 c 1,36,-1
EndSplineSet
EndChar

StartChar: Tcaron
Encoding: 356 356 237
Width: 507
GlyphClass: 2
Flags: W
LayerCount: 2
Fore
SplineSet
330 557 m 1,0,-1
 331 483 l 1,1,-1
 331 0 l 1,2,3
 300 -6 300 -6 254.5 -6 c 128,-1,4
 209 -6 209 -6 178 0 c 1,5,-1
 178 483 l 1,6,-1
 179 557 l 1,7,-1
 178 557 l 1,8,-1
 116 556 l 1,9,-1
 10 556 l 1,10,11
 5 585 5 585 5 619.5 c 128,-1,12
 5 654 5 654 10 683 c 1,13,-1
 500 683 l 1,14,15
 508 657 508 657 508 622 c 128,-1,16
 508 587 508 587 489 571.5 c 128,-1,17
 470 556 470 556 428 556 c 2,18,-1
 393 556 l 1,19,-1
 331 557 l 1,20,-1
 330 557 l 1,0,-1
132 915 m 1,21,-1
 249 841 l 1,22,-1
 369 927 l 1,23,24
 386 921 386 921 406 903 c 128,-1,25
 426 885 426 885 431 866 c 1,26,-1
 312 745 l 1,27,28
 281 737 281 737 249.5 737 c 128,-1,29
 218 737 218 737 186 744 c 1,30,-1
 73 854 l 1,31,32
 79 875 79 875 97 892 c 128,-1,33
 115 909 115 909 132 915 c 1,21,-1
EndSplineSet
EndChar

StartChar: tcaron
Encoding: 357 357 238
Width: 405
GlyphClass: 2
Flags: W
LayerCount: 2
Fore
SplineSet
348 499 m 1,0,1
 354 472 354 472 354 446 c 128,-1,2
 354 420 354 420 348 393 c 1,3,-1
 228 395 l 1,4,-1
 228 156 l 2,5,6
 228 109 228 109 272 109 c 2,7,-1
 330 109 l 1,8,9
 342 73 342 73 342 45 c 128,-1,10
 342 17 342 17 338 5 c 1,11,12
 266 -5 266 -5 206 -5 c 0,13,14
 83 -5 83 -5 83 129 c 2,15,-1
 83 394 l 1,16,-1
 5 393 l 1,17,18
 -1 415 -1 415 -1 446 c 128,-1,19
 -1 477 -1 477 5 499 c 1,20,-1
 83 498 l 1,21,-1
 83 559 l 2,22,23
 83 609 83 609 101 629 c 128,-1,24
 119 649 119 649 163 649 c 2,25,-1
 221 649 l 1,26,-1
 228 642 l 1,27,-1
 228 497 l 1,28,-1
 348 499 l 1,0,1
369 556 m 1,29,30
 356 551 356 551 331.5 551 c 128,-1,31
 307 551 307 551 286 562 c 1,32,-1
 297 794 l 1,33,34
 313 798 313 798 329 798 c 0,35,36
 390 798 390 798 422 775 c 1,37,-1
 369 556 l 1,29,30
EndSplineSet
EndChar

StartChar: Uring
Encoding: 366 366 239
Width: 673
GlyphClass: 2
Flags: W
LayerCount: 2
Fore
SplineSet
604 683 m 1,0,-1
 604 251 l 2,1,2
 604 124 604 124 534 54.5 c 128,-1,3
 464 -15 464 -15 336 -15 c 128,-1,4
 208 -15 208 -15 138 54.5 c 128,-1,5
 68 124 68 124 68 251 c 2,6,-1
 68 683 l 1,7,-1
 75 689 l 1,8,-1
 131 689 l 2,9,10
 221 689 221 689 221 593 c 2,11,-1
 221 249 l 2,12,13
 221 177 221 177 248.5 142 c 128,-1,14
 276 107 276 107 336.5 107 c 128,-1,15
 397 107 397 107 424 142 c 128,-1,16
 451 177 451 177 451 249 c 2,17,-1
 451 683 l 1,18,19
 481 689 481 689 528 689 c 128,-1,20
 575 689 575 689 604 683 c 1,0,-1
196 787 m 128,-1,22
 196 841 196 841 234 877 c 128,-1,23
 272 913 272 913 334 913 c 128,-1,24
 396 913 396 913 434 877 c 128,-1,25
 472 841 472 841 472 787 c 128,-1,26
 472 733 472 733 434 697 c 128,-1,27
 396 661 396 661 334 661 c 128,-1,28
 272 661 272 661 234 697 c 128,-1,21
 196 733 196 733 196 787 c 128,-1,22
285 787 m 128,-1,30
 285 765 285 765 298.5 750.5 c 128,-1,31
 312 736 312 736 334 736 c 128,-1,32
 356 736 356 736 369.5 750.5 c 128,-1,33
 383 765 383 765 383 787 c 128,-1,34
 383 809 383 809 369.5 823.5 c 128,-1,35
 356 838 356 838 334 838 c 128,-1,36
 312 838 312 838 298.5 823.5 c 128,-1,29
 285 809 285 809 285 787 c 128,-1,30
EndSplineSet
EndChar

StartChar: Ydieresis
Encoding: 376 376 241
Width: 526
GlyphClass: 2
Flags: W
LayerCount: 2
Fore
SplineSet
318 505 m 2,0,-1
 389 683 l 1,1,2
 414 689 414 689 454.5 689 c 128,-1,3
 495 689 495 689 526 678 c 1,4,-1
 532 669 l 1,5,-1
 339 211 l 1,6,-1
 339 0 l 1,7,8
 309 -6 309 -6 262 -6 c 128,-1,9
 215 -6 215 -6 186 0 c 1,10,-1
 186 215 l 1,11,-1
 -7 665 l 1,12,13
 40 691 40 691 79 691 c 128,-1,14
 118 691 118 691 136 677 c 128,-1,15
 154 663 154 663 167 630 c 2,16,-1
 219 500 l 2,17,18
 243 438 243 438 264 359 c 1,19,-1
 270 359 l 1,20,21
 286 424 286 424 318 505 c 2,0,-1
321 850 m 1,22,23
 349 866 349 866 382 866 c 128,-1,24
 415 866 415 866 440 850 c 1,25,26
 452 834 452 834 452 800.5 c 128,-1,27
 452 767 452 767 440 752 c 1,28,29
 416 735 416 735 382 735 c 128,-1,30
 348 735 348 735 321 752 c 1,31,32
 307 767 307 767 307 800 c 128,-1,33
 307 833 307 833 321 850 c 1,22,23
149 866 m 128,-1,35
 183 866 183 866 211 850 c 1,36,37
 223 836 223 836 223 800.5 c 128,-1,38
 223 765 223 765 211 752 c 1,39,40
 184 735 184 735 149 735 c 128,-1,41
 114 735 114 735 92 752 c 1,42,43
 80 767 80 767 80 800.5 c 128,-1,44
 80 834 80 834 92 850 c 1,45,34
 115 866 115 866 149 866 c 128,-1,35
EndSplineSet
EndChar

